<svg width="26" height="25" viewBox="0 0 26 25" fill="none" xmlns="http://www.w3.org/2000/svg">
<path d="M18.2043 0.488454C19.6244 0.133434 21 1.20749 21 2.67127V4.50011H21.75C22.9926 4.50011 24 5.50747 24 6.75011V20.2501C24 21.4928 22.9926 22.5001 21.75 22.5001H2.25C1.00736 22.5001 0 21.4928 0 20.2501V6.75011C0 5.54141 0.95308 4.55532 2.14872 4.50235L18.2043 0.488454ZM8.34233 4.50011H19.5V2.67127C19.5 2.18335 19.0415 1.82533 18.5681 1.94367L8.34233 4.50011ZM2.25 6.00011C1.83579 6.00011 1.5 6.3359 1.5 6.75011V20.2501C1.5 20.6643 1.83579 21.0001 2.25 21.0001H21.75C22.1642 21.0001 22.5 20.6643 22.5 20.2501V6.75011C22.5 6.3359 22.1642 6.00011 21.75 6.00011H2.25Z" fill="white"/>
<circle cx="20.5" cy="19.5" r="5.5" fill="#6AB245"/>
<path d="M20.5 23.4375C18.3254 23.4375 16.5625 21.6746 16.5625 19.5C16.5625 17.3254 18.3254 15.5625 20.5 15.5625C22.6746 15.5625 24.4375 17.3254 24.4375 19.5C24.4375 21.6746 22.6746 23.4375 20.5 23.4375ZM20.5 24C22.9853 24 25 21.9853 25 19.5C25 17.0147 22.9853 15 20.5 15C18.0147 15 16 17.0147 16 19.5C16 21.9853 18.0147 24 20.5 24Z" fill="white"/>
<path d="M20.5 17.25C20.6553 17.25 20.7812 17.3759 20.7812 17.5312V19.2188H22.4688C22.6241 19.2188 22.75 19.3447 22.75 19.5C22.75 19.6553 22.6241 19.7812 22.4688 19.7812H20.7812V21.4688C20.7812 21.6241 20.6553 21.75 20.5 21.75C20.3447 21.75 20.2188 21.6241 20.2188 21.4688V19.7812H18.5312C18.3759 19.7812 18.25 19.6553 18.25 19.5C18.25 19.3447 18.3759 19.2188 18.5312 19.2188H20.2188V17.5312C20.2188 17.3759 20.3447 17.25 20.5 17.25Z" fill="white"/>
<path d="M20.7812 19.2188H20.2812V19.7188H20.7812V19.2188ZM20.7812 19.7812V19.2812H20.2812V19.7812H20.7812ZM20.2188 19.7812H20.7188V19.2812H20.2188V19.7812ZM20.2188 19.2188V19.7188H20.7188V19.2188H20.2188ZM23.9375 19.5C23.9375 21.3985 22.3985 22.9375 20.5 22.9375V23.9375C22.9508 23.9375 24.9375 21.9508 24.9375 19.5H23.9375ZM20.5 16.0625C22.3985 16.0625 23.9375 17.6015 23.9375 19.5H24.9375C24.9375 17.0492 22.9508 15.0625 20.5 15.0625V16.0625ZM17.0625 19.5C17.0625 17.6015 18.6015 16.0625 20.5 16.0625V15.0625C18.0492 15.0625 16.0625 17.0492 16.0625 19.5H17.0625ZM20.5 22.9375C18.6015 22.9375 17.0625 21.3985 17.0625 19.5H16.0625C16.0625 21.9508 18.0492 23.9375 20.5 23.9375V22.9375ZM24.5 19.5C24.5 21.7091 22.7091 23.5 20.5 23.5V24.5C23.2614 24.5 25.5 22.2614 25.5 19.5H24.5ZM20.5 15.5C22.7091 15.5 24.5 17.2909 24.5 19.5H25.5C25.5 16.7386 23.2614 14.5 20.5 14.5V15.5ZM16.5 19.5C16.5 17.2909 18.2909 15.5 20.5 15.5V14.5C17.7386 14.5 15.5 16.7386 15.5 19.5H16.5ZM20.5 23.5C18.2909 23.5 16.5 21.7091 16.5 19.5H15.5C15.5 22.2614 17.7386 24.5 20.5 24.5V23.5ZM21.2812 17.5312C21.2812 17.0998 20.9315 16.75 20.5 16.75V17.75C20.3792 17.75 20.2812 17.6521 20.2812 17.5312H21.2812ZM21.2812 19.2188V17.5312H20.2812V19.2188H21.2812ZM22.4688 18.7188H20.7812V19.7188H22.4688V18.7188ZM23.25 19.5C23.25 19.0685 22.9002 18.7188 22.4688 18.7188V19.7188C22.3479 19.7188 22.25 19.6208 22.25 19.5H23.25ZM22.4688 20.2812C22.9002 20.2812 23.25 19.9315 23.25 19.5H22.25C22.25 19.3792 22.3479 19.2812 22.4688 19.2812V20.2812ZM20.7812 20.2812H22.4688V19.2812H20.7812V20.2812ZM21.2812 21.4688V19.7812H20.2812V21.4688H21.2812ZM20.5 22.25C20.9315 22.25 21.2812 21.9002 21.2812 21.4688H20.2812C20.2812 21.3479 20.3792 21.25 20.5 21.25V22.25ZM19.7188 21.4688C19.7188 21.9002 20.0685 22.25 20.5 22.25V21.25C20.6208 21.25 20.7188 21.3479 20.7188 21.4688H19.7188ZM19.7188 19.7812V21.4688H20.7188V19.7812H19.7188ZM18.5312 20.2812H20.2188V19.2812H18.5312V20.2812ZM17.75 19.5C17.75 19.9315 18.0998 20.2812 18.5312 20.2812V19.2812C18.6521 19.2812 18.75 19.3792 18.75 19.5H17.75ZM18.5312 18.7188C18.0998 18.7188 17.75 19.0685 17.75 19.5H18.75C18.75 19.6208 18.6521 19.7188 18.5312 19.7188V18.7188ZM20.2188 18.7188H18.5312V19.7188H20.2188V18.7188ZM19.7188 17.5312V19.2188H20.7188V17.5312H19.7188ZM20.5 16.75C20.0685 16.75 19.7188 17.0998 19.7188 17.5312H20.7188C20.7188 17.6521 20.6208 17.75 20.5 17.75V16.75Z" fill="white"/>
</svg>
