<svg width="269" height="230" viewBox="0 0 269 230" fill="none" xmlns="http://www.w3.org/2000/svg">
<g clip-path="url(#clip0_1085_12572)">
<path d="M269 229.706C269 229.792 208.775 229.865 134.506 229.865C60.2369 229.865 0 229.792 0 229.706C0 229.62 60.2124 229.546 134.506 229.546C208.8 229.546 269 229.62 269 229.706Z" fill="#263238"/>
<path d="M167.224 104.029H119.566L110.463 117.564L101.58 104.029H54.7686C51.777 104.029 49.3493 101.597 49.3493 98.6004V5.58834C49.3493 2.59152 51.777 0.159668 54.7686 0.159668H167.218C170.209 0.159668 172.637 2.59152 172.637 5.58834V98.6004C172.637 101.597 170.209 104.029 167.218 104.029H167.224Z" fill="#FAFAFA"/>
<path d="M167.224 104.029C167.224 104.029 167.322 104.017 167.524 104.005C167.72 104.005 168.015 103.962 168.401 103.882C169.149 103.71 170.307 103.28 171.313 102.113C171.809 101.542 172.238 100.774 172.453 99.8594C172.52 99.6322 172.533 99.3927 172.576 99.1532C172.582 98.9076 172.606 98.6619 172.6 98.3979C172.6 97.882 172.6 97.3416 172.6 96.7828C172.6 94.5413 172.594 91.9559 172.588 89.0512C172.576 77.4078 172.557 60.5753 172.539 39.7695C172.539 29.3666 172.527 17.9688 172.52 5.73587C172.557 4.23745 171.944 2.72676 170.816 1.70121C170.258 1.18536 169.59 0.792336 168.867 0.552836C168.137 0.294912 167.377 0.276489 166.58 0.294912C163.423 0.294912 160.217 0.294912 156.968 0.294912C150.463 0.294912 143.769 0.294912 136.903 0.301053C123.171 0.301053 108.759 0.307194 93.8128 0.313335C86.3399 0.313335 78.7383 0.313335 71.0202 0.313335C67.1642 0.313335 63.2775 0.313335 59.3663 0.313335C58.3855 0.313335 57.4108 0.313335 56.4299 0.313335H54.9586C54.7073 0.313335 54.4805 0.331759 54.2414 0.344041C54.0084 0.387028 53.7632 0.39931 53.5364 0.473002C52.6046 0.694079 51.7463 1.1915 51.0659 1.86088C50.3976 2.54867 49.895 3.40841 49.6804 4.34799C49.4536 5.18317 49.5455 6.0859 49.5271 6.98249V9.65998C49.5271 11.4409 49.5271 13.2218 49.5271 14.9904C49.5271 18.5338 49.5271 22.0587 49.5271 25.5591C49.5271 32.5599 49.5271 39.4685 49.5271 46.2667C49.5271 59.869 49.5271 73.0477 49.521 85.6859C49.521 88.8424 49.521 91.9682 49.521 95.0571C49.521 95.8309 49.521 96.5985 49.521 97.3662C49.5333 98.1338 49.472 98.9014 49.6252 99.6261C49.9072 101.088 50.8452 102.39 52.108 103.133C52.7333 103.507 53.4444 103.753 54.1617 103.839C54.8789 103.913 55.6391 103.87 56.3809 103.882C57.8644 103.882 59.3418 103.882 60.807 103.882C63.7373 103.882 66.6308 103.882 69.4876 103.882C80.8962 103.882 91.6427 103.894 101.611 103.9H101.678L101.715 103.956C104.817 108.684 107.778 113.204 110.585 117.496H110.402C113.645 112.682 116.685 108.168 119.517 103.968L119.548 103.925H119.597C134.672 103.943 146.583 103.962 154.73 103.968C158.801 103.98 161.927 103.986 164.042 103.992C165.097 103.992 165.894 104.005 166.439 104.005C166.979 104.005 167.248 104.017 167.248 104.017C167.248 104.017 166.972 104.023 166.439 104.029C165.9 104.029 165.097 104.035 164.042 104.041C161.927 104.041 158.795 104.054 154.73 104.066C146.583 104.078 134.672 104.091 119.597 104.109L119.677 104.066C116.851 108.273 113.822 112.786 110.585 117.607L110.494 117.742L110.402 117.601C107.582 113.314 104.621 108.801 101.513 104.072L101.611 104.127C91.6427 104.127 80.8962 104.14 69.4876 104.146C66.637 104.146 63.7434 104.146 60.807 104.146C59.3418 104.146 57.8644 104.146 56.3809 104.146C55.633 104.134 54.9035 104.183 54.131 104.103C53.3709 104.011 52.623 103.759 51.9609 103.36C50.6306 102.574 49.6375 101.204 49.3432 99.6568C49.1838 98.8769 49.2513 98.097 49.2329 97.3416C49.2329 96.574 49.2329 95.8064 49.2329 95.0326C49.2329 91.9436 49.2329 88.8179 49.2329 85.6614C49.2329 73.0293 49.2329 59.8506 49.2267 46.2421C49.2267 39.4378 49.2267 32.5292 49.2267 25.5345C49.2267 22.0342 49.2267 18.5092 49.2267 14.9658C49.2267 13.1911 49.2267 11.4163 49.2267 9.63542C49.2267 8.74497 49.2267 7.85452 49.2267 6.95793V5.61918C49.2329 5.16475 49.2697 4.69803 49.3861 4.24974C49.6191 3.25489 50.1463 2.33988 50.8574 1.61523C51.5808 0.902874 52.4881 0.374746 53.4812 0.141387C53.7264 0.0676942 53.9778 0.0492712 54.2291 0.00628394C54.4805 -0.00599812 54.7379 -0.0305622 54.9831 -0.0244212H56.4544C57.4353 -0.0244212 58.4161 -0.0244212 59.3909 -0.0244212C63.302 -0.0244212 67.1887 -0.0244212 71.0447 -0.0244212C78.7628 -0.0244212 86.3644 -0.0244212 93.8373 -0.0244212C108.777 -0.0244212 123.196 -0.0182802 136.928 -0.0121392C143.794 -0.0121392 150.488 -0.0121391 156.992 -0.00599812C160.247 -0.00599812 163.448 -0.00599812 166.605 -0.00599812C167.383 -0.0244212 168.217 -0.00599811 168.977 0.270348C169.737 0.52213 170.442 0.939721 171.025 1.48013C171.607 2.02054 172.079 2.68377 172.379 3.40841C172.686 4.1392 172.815 4.93139 172.809 5.7113C172.802 17.9442 172.796 29.342 172.79 39.7449C172.772 60.5507 172.753 77.3894 172.741 89.0267C172.741 91.9375 172.729 94.5167 172.729 96.7582C172.729 97.317 172.729 97.8575 172.729 98.3733C172.729 98.6312 172.71 98.8891 172.698 99.1348C172.655 99.3804 172.637 99.6261 172.569 99.8533C172.343 100.781 171.907 101.554 171.399 102.125C170.375 103.298 169.198 103.716 168.444 103.882C168.058 103.956 167.763 103.992 167.561 103.992C167.365 103.998 167.261 103.998 167.261 103.998L167.224 104.029Z" fill="#263238"/>
<path d="M97.252 57.3574C97.252 58.5611 96.3508 59.3103 94.9102 59.3103H93.8251V60.8025H92.5745V55.3984H94.9102C96.3508 55.3984 97.252 56.1476 97.252 57.3574ZM95.9891 57.3574C95.9891 56.7617 95.6029 56.4179 94.8427 56.4179H93.8251V58.297H94.8427C95.609 58.297 95.9891 57.947 95.9891 57.3636V57.3574Z" fill="#263238"/>
<path d="M101.684 58.4322V60.8026H100.556V60.2867C100.336 60.6675 99.9003 60.864 99.2934 60.864C98.3248 60.864 97.7424 60.3236 97.7424 59.6051C97.7424 58.8866 98.2574 58.3646 99.5263 58.3646H100.483C100.483 57.8488 100.176 57.5478 99.5263 57.5478C99.085 57.5478 98.6313 57.6952 98.3309 57.9347L97.9018 57.0934C98.3554 56.7679 99.0298 56.5898 99.6918 56.5898C100.955 56.5898 101.69 57.1794 101.69 58.4383L101.684 58.4322ZM100.483 59.4884V59.0647H99.6551C99.0911 59.0647 98.9133 59.2735 98.9133 59.5498C98.9133 59.8507 99.1708 60.0534 99.5938 60.0534C99.9922 60.0534 100.342 59.8692 100.483 59.4884Z" fill="#263238"/>
<path d="M102.371 60.4158L102.769 59.5499C103.137 59.7894 103.701 59.9491 104.21 59.9491C104.768 59.9491 104.976 59.8017 104.976 59.5683C104.976 58.8867 102.469 59.5867 102.469 57.9225C102.469 57.1365 103.18 56.5776 104.388 56.5776C104.958 56.5776 105.589 56.7066 105.982 56.94L105.583 57.7997C105.172 57.5663 104.768 57.4927 104.388 57.4927C103.848 57.4927 103.615 57.6646 103.615 57.8795C103.615 58.5919 106.123 57.9041 106.123 59.5376C106.123 60.3114 105.405 60.8579 104.167 60.8579C103.468 60.8579 102.757 60.6676 102.371 60.4096V60.4158Z" fill="#263238"/>
<path d="M106.466 60.4158L106.864 59.5499C107.232 59.7894 107.796 59.9491 108.305 59.9491C108.863 59.9491 109.071 59.8017 109.071 59.5683C109.071 58.8867 106.564 59.5867 106.564 57.9225C106.564 57.1365 107.275 56.5776 108.483 56.5776C109.053 56.5776 109.684 56.7066 110.077 56.94L109.678 57.7997C109.267 57.5663 108.863 57.4927 108.483 57.4927C107.943 57.4927 107.71 57.6646 107.71 57.8795C107.71 58.5919 110.218 57.9041 110.218 59.5376C110.218 60.3114 109.5 60.8579 108.262 60.8579C107.563 60.8579 106.852 60.6676 106.466 60.4096V60.4158Z" fill="#263238"/>
<path d="M117.543 56.645L116.041 60.8025H114.883L113.951 58.2233L112.989 60.8025H111.83L110.334 56.645H111.468L112.449 59.4576L113.467 56.645H114.484L115.471 59.4576L116.483 56.645H117.55H117.543Z" fill="#263238"/>
<path d="M117.684 58.7206C117.684 57.4678 118.647 56.5835 119.965 56.5835C121.283 56.5835 122.239 57.4739 122.239 58.7206C122.239 59.9672 121.283 60.8577 119.965 60.8577C118.647 60.8577 117.684 59.9672 117.684 58.7206ZM121.025 58.7206C121.025 58.0021 120.572 57.5722 119.971 57.5722C119.37 57.5722 118.904 58.0021 118.904 58.7206C118.904 59.4391 119.364 59.8689 119.971 59.8689C120.578 59.8689 121.025 59.4391 121.025 58.7206Z" fill="#263238"/>
<path d="M125.617 56.5838V57.6953C125.519 57.6892 125.439 57.6769 125.347 57.6769C124.685 57.6769 124.244 58.0392 124.244 58.8375V60.7965H123.042V56.6391H124.189V57.1856C124.483 56.7864 124.973 56.5776 125.617 56.5776V56.5838Z" fill="#263238"/>
<path d="M130.521 55.0669V60.7965H129.375V60.3175C129.075 60.6798 128.633 60.8579 128.082 60.8579C126.911 60.8579 126.009 60.0227 126.009 58.7208C126.009 57.4189 126.911 56.5837 128.082 56.5837C128.59 56.5837 129.019 56.7434 129.326 57.0873V55.073H130.528L130.521 55.0669ZM129.344 58.7208C129.344 58.0023 128.885 57.5724 128.29 57.5724C127.695 57.5724 127.223 58.0023 127.223 58.7208C127.223 59.4393 127.683 59.8692 128.29 59.8692C128.897 59.8692 129.344 59.4393 129.344 58.7208Z" fill="#263238"/>
<path d="M80.7674 70.1309H72.9573C71.102 70.1309 69.5979 71.6376 69.5979 73.4961V86.902C69.5979 88.7606 71.102 90.2673 72.9573 90.2673H80.7674C82.6228 90.2673 84.1268 88.7606 84.1268 86.902V73.4961C84.1268 71.6376 82.6228 70.1309 80.7674 70.1309Z" fill="#EBEBEB"/>
<path d="M115.054 70.1309H107.637C105.781 70.1309 104.277 71.6376 104.277 73.4961V86.902C104.277 88.7606 105.781 90.2673 107.637 90.2673H115.054C116.91 90.2673 118.414 88.7606 118.414 86.902V73.4961C118.414 71.6376 116.91 70.1309 115.054 70.1309Z" fill="#EBEBEB"/>
<path d="M98.0611 70.1309H90.6434C88.788 70.1309 87.284 71.6376 87.284 73.4961V86.902C87.284 88.7606 88.788 90.2673 90.6434 90.2673H98.0611C99.9165 90.2673 101.421 88.7606 101.421 86.902V73.4961C101.421 71.6376 99.9165 70.1309 98.0611 70.1309Z" fill="#EBEBEB"/>
<path d="M132.367 70.1309H124.55C122.695 70.1309 121.191 71.6376 121.191 73.4961V86.902C121.191 88.7606 122.695 90.2673 124.55 90.2673H132.367C134.222 90.2673 135.726 88.7606 135.726 86.902V73.4961C135.726 71.6376 134.222 70.1309 132.367 70.1309Z" fill="#EBEBEB"/>
<path d="M149.035 70.1309H141.219C139.363 70.1309 137.859 71.6376 137.859 73.4961V86.902C137.859 88.7606 139.363 90.2673 141.219 90.2673H149.035C150.89 90.2673 152.394 88.7606 152.394 86.902V73.4961C152.394 71.6376 150.89 70.1309 149.035 70.1309Z" fill="#EBEBEB"/>
<path d="M78.7383 79.6674L80.2954 80.5088L79.5965 81.6817L78.0271 80.7544L78.0578 82.48H76.7152L76.7275 80.736L75.1581 81.6817L74.4715 80.5088L76.0286 79.6674L74.4715 78.8077L75.1581 77.6348L76.7275 78.5805L76.7152 76.8364H78.0578L78.0271 78.5805L79.5965 77.6348L80.2954 78.8077L78.7383 79.6674Z" fill="#066937"/>
<path d="M95.6703 79.5693L97.2274 80.4106L96.5285 81.5836L94.9592 80.6563L94.9898 82.3819H93.6473L93.6595 80.6378L92.0902 81.5836L91.4036 80.4106L92.9607 79.5693L91.4036 78.7096L92.0902 77.5366L93.6595 78.4823L93.6473 76.7383H94.9898L94.9592 78.4823L96.5285 77.5366L97.2274 78.7096L95.6703 79.5693Z" fill="#066937"/>
<path d="M113.013 79.5693L114.564 80.4106L113.865 81.5836L112.296 80.6563L112.326 82.3819H110.984L110.996 80.6378L109.427 81.5836L108.74 80.4106L110.291 79.5693L108.74 78.7096L109.427 77.5366L110.996 78.4823L110.984 76.7383H112.326L112.296 78.4823L113.865 77.5366L114.564 78.7096L113.013 79.5693Z" fill="#066937"/>
<path d="M129.816 79.5693L131.367 80.4106L130.668 81.5836L129.099 80.6563L129.13 82.3819H127.787L127.799 80.6378L126.23 81.5836L125.544 80.4106L127.095 79.5693L125.544 78.7096L126.23 77.5366L127.799 78.4823L127.787 76.7383H129.13L129.099 78.4823L130.668 77.5366L131.367 78.7096L129.816 79.5693Z" fill="#066937"/>
<path d="M80.6203 90.396H73.1045C71.1734 90.396 69.5979 88.8239 69.5979 86.8834V73.5205C69.5979 71.5861 71.1673 70.0078 73.1045 70.0078H80.6203C82.5513 70.0078 84.1268 71.5799 84.1268 73.5205V86.8834C84.1268 88.8178 82.5575 90.396 80.6203 90.396ZM73.1045 70.2535C71.3083 70.2535 69.8492 71.715 69.8492 73.5143V86.8772C69.8492 88.6765 71.3083 90.1381 73.1045 90.1381H80.6203C82.4165 90.1381 83.8755 88.6765 83.8755 86.8772V73.5143C83.8755 71.715 82.4165 70.2535 80.6203 70.2535H73.1045Z" fill="#263238"/>
<path d="M98.0795 90.396H90.5637C88.6327 90.396 87.0572 88.8239 87.0572 86.8834V73.5205C87.0572 71.5861 88.6265 70.0078 90.5637 70.0078H98.0795C100.011 70.0078 101.586 71.5799 101.586 73.5205V86.8834C101.586 88.8178 100.017 90.396 98.0795 90.396ZM90.5576 70.2535C88.7614 70.2535 87.3024 71.715 87.3024 73.5143V86.8772C87.3024 88.6765 88.7614 90.1381 90.5576 90.1381H98.0734C99.8696 90.1381 101.329 88.6765 101.329 86.8772V73.5143C101.329 71.715 99.8696 70.2535 98.0734 70.2535H90.5576Z" fill="#263238"/>
<path d="M115.054 90.396H107.539C105.608 90.396 104.032 88.8239 104.032 86.8834V73.5205C104.032 71.5861 105.601 70.0078 107.539 70.0078H115.054C116.986 70.0078 118.561 71.5799 118.561 73.5205V86.8834C118.561 88.8178 116.992 90.396 115.054 90.396ZM107.533 70.2535C105.736 70.2535 104.277 71.715 104.277 73.5143V86.8772C104.277 88.6765 105.736 90.1381 107.533 90.1381H115.048C116.845 90.1381 118.304 88.6765 118.304 86.8772V73.5143C118.304 71.715 116.845 70.2535 115.048 70.2535H107.533Z" fill="#263238"/>
<path d="M132.219 90.396H124.704C122.773 90.396 121.197 88.8239 121.197 86.8834V73.5205C121.197 71.5861 122.766 70.0078 124.704 70.0078H132.219C134.151 70.0078 135.726 71.5799 135.726 73.5205V86.8834C135.726 88.8178 134.157 90.396 132.219 90.396ZM124.704 70.2535C122.907 70.2535 121.448 71.715 121.448 73.5143V86.8772C121.448 88.6765 122.907 90.1381 124.704 90.1381H132.219C134.016 90.1381 135.475 88.6765 135.475 86.8772V73.5143C135.475 71.715 134.016 70.2535 132.219 70.2535H124.704Z" fill="#263238"/>
<path d="M148.888 90.396H141.372C139.441 90.396 137.866 88.8239 137.866 86.8834V73.5205C137.866 71.5861 139.435 70.0078 141.372 70.0078H148.888C150.819 70.0078 152.394 71.5799 152.394 73.5205V86.8834C152.394 88.8178 150.825 90.396 148.888 90.396ZM141.372 70.2535C139.576 70.2535 138.117 71.715 138.117 73.5143V86.8772C138.117 88.6765 139.576 90.1381 141.372 90.1381H148.888C150.684 90.1381 152.143 88.6765 152.143 86.8772V73.5143C152.143 71.715 150.684 70.2535 148.888 70.2535H141.372Z" fill="#263238"/>
<path d="M149.158 85.0474C149.158 85.1333 147.355 85.207 145.13 85.207C142.905 85.207 141.102 85.1333 141.102 85.0474C141.102 84.9614 142.905 84.8877 145.13 84.8877C147.355 84.8877 149.158 84.9614 149.158 85.0474Z" fill="#3B6738"/>
<path d="M111.658 49.251C120.627 49.251 127.898 41.9678 127.898 32.9834C127.898 23.9991 120.627 16.7158 111.658 16.7158C102.69 16.7158 95.419 23.9991 95.419 32.9834C95.419 41.9678 102.69 49.251 111.658 49.251Z" fill="#6BB334"/>
<path d="M108.802 30.0233H108.532V28.5065C108.532 26.7563 109.954 25.3315 111.701 25.3315C113.448 25.3315 114.871 26.7563 114.871 28.5065V29.7408H114.601V28.5065C114.601 26.9036 113.301 25.6017 111.701 25.6017C110.101 25.6017 108.802 26.9036 108.802 28.5065V30.0233Z" fill="white"/>
<path d="M115.686 40.6286H107.637C106.901 40.6286 106.3 40.0268 106.3 39.2899V31.2206C106.3 30.4837 106.901 29.8818 107.637 29.8818H115.686C116.422 29.8818 117.022 30.4837 117.022 31.2206V39.2899C117.022 40.0268 116.422 40.6286 115.686 40.6286ZM107.637 30.1582C107.048 30.1582 106.57 30.6372 106.57 31.2267V39.296C106.57 39.8856 107.048 40.3646 107.637 40.3646H115.686C116.274 40.3646 116.753 39.8856 116.753 39.296V31.2267C116.753 30.6372 116.274 30.1582 115.686 30.1582H107.637Z" fill="white"/>
<path d="M111.701 35.5252C111.002 35.5252 110.438 34.9602 110.438 34.2602C110.438 33.5601 111.002 32.9951 111.701 32.9951C112.4 32.9951 112.964 33.5601 112.964 34.2602C112.964 34.9602 112.4 35.5252 111.701 35.5252ZM111.701 33.2592C111.156 33.2592 110.708 33.7075 110.708 34.254C110.708 34.8006 111.156 35.2489 111.701 35.2489C112.247 35.2489 112.694 34.8006 112.694 34.254C112.694 33.7075 112.247 33.2592 111.701 33.2592Z" fill="white"/>
<path d="M111.793 35.3286H111.523V37.6131H111.793V35.3286Z" fill="white"/>
<path d="M166.646 10.4641C167.241 7.75455 165.531 5.07471 162.826 4.4785C160.121 3.88228 157.446 5.59545 156.851 8.30495C156.255 11.0145 157.966 13.6943 160.67 14.2905C163.375 14.8867 166.05 13.1736 166.646 10.4641Z" fill="#E0E0E0"/>
<path d="M160.131 11.1647C160.094 11.1647 160.051 11.1524 160.021 11.1217C159.959 11.0603 159.959 10.962 160.021 10.9068L163.27 7.65201C163.331 7.5906 163.429 7.5906 163.484 7.65201C163.545 7.71343 163.545 7.81168 163.484 7.86695L160.235 11.1217C160.235 11.1217 160.168 11.1647 160.125 11.1647H160.131Z" fill="white"/>
<path d="M163.374 11.1649C163.337 11.1649 163.294 11.1526 163.264 11.1219L160.015 7.86712C159.953 7.80571 159.953 7.70745 160.015 7.65218C160.076 7.59691 160.174 7.59077 160.229 7.65218L163.478 10.9069C163.539 10.9683 163.539 11.0666 163.478 11.1219C163.448 11.1526 163.411 11.1649 163.368 11.1649H163.374Z" fill="white"/>
<path d="M32.7729 198.908C32.7729 198.908 16.5765 180.233 10.4645 161.558C4.35256 142.884 7.25834 145.027 7.25834 145.027C7.25834 145.027 15.5098 163.167 21.775 171.931C28.0403 180.694 39.1975 193.553 39.1975 193.553L32.779 198.908H32.7729Z" fill="#3B6738"/>
<path d="M35.9974 147.937C35.4764 147.028 34.0848 147.501 34.238 148.539C35.225 155.098 37.3584 170.493 37.2787 180.479C37.1683 193.449 37.2787 198.46 37.2787 198.46H44.0221C44.0221 198.46 42.8267 171.648 41.3002 163.474C40.2335 157.745 37.9653 151.382 35.9913 147.937H35.9974Z" fill="#3B6738"/>
<path d="M39.6757 196.28C39.6757 196.28 43.9179 187.344 45.2236 176.119C45.7815 171.347 44.7884 164.893 43.3171 156.283C42.606 152.113 42.4404 148.938 42.465 146.74C42.4834 145.076 44.6719 144.535 45.4872 145.985C46.3026 147.44 48.6566 152.408 49.2513 155.522C50.8819 164.021 52.7333 168.27 51.3172 176.34C49.9011 184.403 44.678 196.832 44.678 196.832L39.6757 196.286V196.28Z" fill="#3B6738"/>
<path d="M45.7447 196.826C45.7447 196.826 63.5289 158.543 64.7611 152.862C65.9933 147.182 70.1864 134.095 70.6769 134.838C71.1673 135.582 71.9091 142.496 68.7029 150.394C65.4967 158.297 51.8138 197.993 51.8138 197.993H45.7386" fill="#3B6738"/>
<path d="M37.7262 195.113C37.7262 195.113 37.5484 195.002 37.2297 194.769C36.917 194.529 36.4327 194.191 35.8503 193.712C34.6672 192.779 33.0058 191.367 31.0686 189.487C27.1881 185.754 22.3574 179.993 18.1642 172.901C13.965 165.808 11.145 158.868 9.35493 153.79C8.45989 151.247 7.81008 149.165 7.38708 147.722C7.17252 147.004 7.01926 146.433 6.91504 146.052C6.81083 145.671 6.76178 145.469 6.78018 145.462C6.79244 145.462 6.866 145.653 6.98861 146.027C7.12348 146.439 7.30126 146.985 7.52808 147.673C7.99399 149.104 8.68672 151.167 9.6124 153.698C11.4576 158.745 14.3144 165.642 18.4953 172.704C22.6639 179.772 27.4395 185.526 31.2587 189.297C33.1591 191.195 34.7898 192.638 35.9423 193.602C36.5124 194.093 36.9722 194.449 37.2726 194.707C37.5791 194.959 37.7323 195.1 37.7262 195.113Z" fill="#263238"/>
<path d="M39.6757 176.745C39.6757 176.745 39.596 176.346 39.5163 175.621C39.4305 174.829 39.3201 173.798 39.1914 172.551C38.9094 169.959 38.468 166.391 37.8427 162.467C37.2113 158.543 36.5124 155.012 35.9668 152.464C35.7032 151.241 35.4825 150.228 35.317 149.448C35.1637 148.736 35.0902 148.337 35.1147 148.331C35.1392 148.324 35.2618 148.711 35.458 149.411C35.6542 150.112 35.9178 151.137 36.2243 152.402C36.8373 154.938 37.5791 158.469 38.2105 162.406C38.8419 166.336 39.2404 169.923 39.455 172.526C39.5653 173.828 39.6328 174.878 39.6634 175.609C39.6941 176.34 39.7002 176.739 39.6757 176.745Z" fill="#263238"/>
<path d="M43.8382 145.684C43.8382 145.684 43.924 145.85 44.0466 146.169C44.1815 146.531 44.3593 147.004 44.58 147.594C44.8129 148.208 45.0888 148.969 45.3401 149.872C45.6037 150.769 45.947 151.782 46.2045 152.936C46.3455 153.514 46.4926 154.109 46.6459 154.736C46.793 155.362 46.9034 156.025 47.0382 156.707C47.3264 158.064 47.5103 159.538 47.7248 161.086C48.0743 164.187 48.2643 167.626 48.1478 171.231C48.0007 174.835 47.5654 178.25 47.0014 181.32C46.6765 182.849 46.3884 184.305 46.0022 185.644C45.8183 186.313 45.665 186.964 45.4689 187.578C45.2727 188.192 45.0826 188.782 44.8987 189.34C44.5616 190.47 44.1447 191.459 43.8198 192.337C43.501 193.215 43.1761 193.959 42.8941 194.554C42.6305 195.125 42.4221 195.586 42.2627 195.936C42.1156 196.249 42.0297 196.409 42.0175 196.409C42.0052 196.409 42.0665 196.231 42.1891 195.905C42.3301 195.549 42.5202 195.082 42.7531 194.499C43.0106 193.891 43.311 193.148 43.6175 192.264C43.924 191.379 44.3225 190.391 44.6413 189.261C44.8129 188.696 44.9968 188.112 45.1807 187.498C45.3646 186.884 45.5118 186.233 45.6896 185.564C46.0635 184.231 46.3332 182.782 46.6459 181.259C47.1915 178.201 47.6145 174.805 47.7616 171.218C47.872 167.632 47.6942 164.218 47.3693 161.129C47.167 159.587 46.9953 158.119 46.7195 156.762C46.5907 156.081 46.4926 155.424 46.3516 154.797C46.2106 154.171 46.0696 153.575 45.9348 152.998C45.6957 151.843 45.3708 150.83 45.1256 149.927C44.8865 149.025 44.6413 148.257 44.4267 147.637C44.2367 147.041 44.0773 146.556 43.9608 146.194C43.8566 145.862 43.8075 145.684 43.8198 145.678L43.8382 145.684Z" fill="#263238"/>
<path d="M70.4746 135.607C70.4746 135.607 70.4746 135.668 70.4623 135.778C70.4439 135.914 70.4133 136.079 70.3826 136.276C70.3029 136.712 70.2048 137.357 70.0332 138.18C69.6899 139.825 69.1198 142.196 68.2309 145.07C67.3481 147.944 66.1282 151.315 64.6875 155.024C63.253 158.734 61.5856 162.768 60.0039 167.067C58.3978 171.36 57.1656 175.548 56.0069 179.349C54.8544 183.15 53.7632 186.565 52.7088 189.384C51.6666 192.208 50.6613 194.431 49.9011 195.93C49.5394 196.691 49.2084 197.256 48.9999 197.643C48.9019 197.821 48.816 197.963 48.7486 198.079C48.6934 198.177 48.6566 198.227 48.6505 198.22C48.6505 198.22 48.6689 198.165 48.7118 198.061C48.767 197.938 48.8406 197.791 48.9264 197.606C49.1164 197.207 49.4229 196.63 49.7662 195.862C50.4835 194.345 51.446 192.116 52.4575 189.285C53.4751 186.46 54.5418 183.046 55.6698 179.239C56.81 175.437 58.0422 171.231 59.6484 166.926C61.23 162.615 62.9097 158.58 64.3626 154.883C65.8216 151.192 67.06 147.833 67.9734 144.978C68.8929 142.122 69.506 139.77 69.8922 138.137C70.0884 137.32 70.211 136.681 70.3091 136.251C70.3581 136.055 70.3949 135.895 70.4255 135.76C70.4562 135.65 70.4684 135.594 70.4807 135.594L70.4746 135.607Z" fill="#263238"/>
<path d="M15.6385 127.15C14.5167 126.032 12.6531 127.199 13.119 128.716C13.591 130.251 14.3021 132.235 15.3565 134.47C17.8026 139.672 24.9812 158.347 28.3468 168.602C31.7062 178.858 36.445 197.993 36.445 197.993L43.6236 196.826C43.6236 196.826 37.058 165.39 30.6395 154.06C25.4839 144.959 20.3283 131.805 15.6447 127.144L15.6385 127.15Z" fill="#3B6738"/>
<path d="M30.3024 175.02C30.3024 175.02 30.4556 175.32 30.6702 175.879C30.8847 176.444 31.1729 177.267 31.4978 178.293C32.1599 180.344 32.9691 183.212 33.7844 186.393C34.5997 189.58 35.2741 192.472 35.7461 194.573C35.9607 195.567 36.1446 196.403 36.2856 197.066C36.4082 197.655 36.4572 197.987 36.4327 197.993C36.4082 197.993 36.304 197.68 36.1385 197.103C35.9607 196.446 35.7461 195.623 35.4825 194.64C34.9308 192.478 34.2135 189.635 33.4104 186.491C32.5951 183.31 31.8288 180.442 31.2342 178.373C30.9522 177.396 30.7131 176.579 30.523 175.928C30.3514 175.351 30.2656 175.026 30.2962 175.02H30.3024Z" fill="#263238"/>
<path d="M40.0435 197.41C40.0435 197.41 40.0251 197.348 40.0006 197.219C39.9822 197.072 39.9515 196.882 39.9209 196.654C39.8473 196.157 39.7799 195.42 39.6266 194.474C39.363 192.583 38.891 189.862 38.1247 186.54C37.3584 183.218 36.2427 179.312 34.7652 175.05C33.294 170.788 31.4426 166.189 29.3521 161.423C25.1283 151.905 20.9106 143.467 18.1397 137.221C16.7359 134.108 15.6508 131.566 14.9397 129.797C14.578 128.913 14.3144 128.219 14.1305 127.752C14.0508 127.531 13.9833 127.359 13.9343 127.218C13.8914 127.095 13.873 127.033 13.8791 127.027C13.8853 127.027 13.9159 127.083 13.9711 127.199C14.0324 127.334 14.1121 127.506 14.204 127.721C14.4125 128.206 14.7067 128.882 15.0745 129.736C15.8286 131.486 16.9504 134.01 18.3849 137.111C21.2172 143.319 25.4716 151.739 29.7016 161.27C31.7982 166.041 33.6373 170.659 35.0963 174.94C36.5553 179.214 37.6526 183.144 38.3883 186.485C39.1301 189.826 39.5592 192.558 39.7799 194.456C39.9086 195.402 39.9515 196.145 40.0006 196.642C40.019 196.875 40.0312 197.06 40.0435 197.213C40.0496 197.342 40.0496 197.41 40.0435 197.41Z" fill="#263238"/>
<path d="M43.6175 196.826C43.6175 196.826 43.5071 196.397 43.3784 195.617C43.2374 194.769 43.0474 193.658 42.8205 192.313C42.324 189.525 41.5699 185.687 40.4849 181.511C39.4121 177.329 38.1983 173.613 37.2664 170.942C36.8067 169.652 36.4327 168.59 36.1446 167.786C35.8748 167.042 35.74 166.625 35.7645 166.613C35.789 166.6 35.9729 166.999 36.2856 167.73C36.5921 168.461 37.0274 169.523 37.5239 170.85C38.5232 173.503 39.7799 177.224 40.8588 181.419C41.95 185.607 42.6611 189.469 43.0903 192.27C43.2926 193.676 43.452 194.812 43.5317 195.598C43.6175 196.384 43.6543 196.826 43.6297 196.826H43.6175Z" fill="#263238"/>
<path d="M58.3549 195.794H30.333V229.994H58.3549V195.794Z" fill="#FF725E"/>
<g opacity="0.3">
<path d="M58.3549 195.794H30.333V229.994H58.3549V195.794Z" fill="black"/>
</g>
<path d="M49.4107 195.794H24.5521V229.994H49.4107V195.794Z" fill="#FF725E"/>
<path d="M222.109 119.707L207.378 117.564L177.909 121.936L169.639 124.866L171.104 142.982L199.439 148.208L218.553 142.533L225.781 131.879L222.109 119.707Z" fill="#FFBF9D"/>
<path d="M231.396 121.439L219.068 118.528C219.068 118.528 210.351 145.518 188.839 144.358C171.307 143.412 171.104 123.803 171.104 123.803L158.47 127.857C158.47 127.857 153.639 160.324 158.985 183.322C160.235 188.696 161.909 195.942 161.909 195.942L160.198 229.552L253.65 229.699L231.396 121.433V121.439Z" fill="#066937"/>
<g opacity="0.3">
<path d="M194.761 223.03C199.31 222.92 203.503 223.301 208.052 223.19C213.508 223.055 219.007 222.92 224.396 223.81C228.435 224.48 232.359 225.708 236.405 226.347C241.91 227.219 247.795 226.905 252.699 224.246L251.909 219.659L233.291 215.17L194.768 223.024L194.761 223.03Z" fill="black"/>
</g>
<path d="M147.919 135.428C152.192 129.895 159.297 127.599 159.297 127.599L164.079 169.296L155.024 230L125.366 229.859C125.366 229.859 141.722 143.442 147.913 135.428H147.919Z" fill="#066937"/>
<path d="M229.956 121.132C229.956 121.132 249.916 122.735 257.076 155.491C260.313 170.309 264.408 187.676 265.591 199.344C266.45 207.807 261.852 221.065 253.429 222.146L242.836 223.571C240.757 223.853 238.642 223.81 236.595 223.337C229.907 221.796 229.226 217.202 228.043 212.314L224.953 202.538C223.261 193.24 231.911 191.508 236.687 191.607L233.125 149.172L229.956 121.126V121.132Z" fill="#066937"/>
<path d="M156.827 150.775C156.827 150.775 156.784 150.928 156.735 151.229C156.686 151.561 156.618 152.003 156.532 152.55C156.49 152.838 156.447 153.158 156.398 153.508C156.361 153.864 156.324 154.245 156.281 154.65C156.201 155.473 156.097 156.406 156.054 157.438C155.901 159.508 155.907 161.982 156.005 164.727C156.122 167.472 156.428 170.475 156.888 173.607C157.348 176.739 157.924 179.705 158.506 182.383C159.083 185.066 159.671 187.461 160.168 189.47C160.677 191.478 161.1 193.099 161.4 194.217C161.547 194.751 161.67 195.181 161.756 195.5C161.841 195.795 161.89 195.948 161.903 195.942C161.915 195.942 161.884 195.783 161.817 195.482C161.743 195.156 161.645 194.72 161.516 194.18C161.241 193.019 160.854 191.398 160.382 189.408C159.916 187.394 159.346 184.993 158.788 182.309C158.218 179.632 157.654 176.678 157.195 173.552C156.741 170.432 156.422 167.436 156.287 164.703C156.171 161.97 156.146 159.508 156.269 157.444C156.3 156.412 156.379 155.479 156.447 154.656C156.477 154.251 156.508 153.87 156.539 153.514C156.575 153.17 156.612 152.851 156.649 152.556C156.71 152.003 156.753 151.561 156.79 151.229C156.821 150.928 156.827 150.763 156.821 150.763L156.827 150.775Z" fill="#263238"/>
<path d="M252.344 203.103C252.344 203.103 252.319 202.802 252.184 202.28C252.056 201.758 251.81 201.009 251.412 200.124C250.633 198.362 249.089 196.059 246.679 194.303C244.27 192.546 241.61 191.785 239.697 191.582C238.734 191.472 237.95 191.472 237.41 191.508C236.871 191.545 236.577 191.594 236.577 191.613C236.577 191.68 237.772 191.539 239.66 191.809C241.536 192.067 244.129 192.847 246.483 194.567C248.837 196.286 250.376 198.515 251.197 200.222C252.037 201.942 252.27 203.121 252.332 203.103H252.344Z" fill="#263238"/>
<path d="M247.734 186.78C247.734 186.78 247.562 186.743 247.25 186.737C246.937 186.724 246.489 186.737 245.931 186.798C244.822 186.903 243.295 187.21 241.72 187.861C240.144 188.511 238.839 189.365 237.98 190.071C237.551 190.421 237.214 190.728 237.006 190.956C236.791 191.183 236.681 191.312 236.693 191.33C236.73 191.367 237.233 190.9 238.115 190.249C238.998 189.598 240.292 188.794 241.836 188.149C243.387 187.517 244.871 187.173 245.956 187.013C247.041 186.853 247.728 186.829 247.728 186.774L247.734 186.78Z" fill="#263238"/>
<path d="M227.068 144.358C227.068 144.358 227.105 144.045 227.117 143.48C227.117 142.915 227.154 142.104 227.222 141.103C227.356 139.101 227.724 136.338 228.552 133.384C229.386 130.436 230.501 127.881 231.427 126.1C231.887 125.21 232.285 124.498 232.573 124.012C232.855 123.527 233.003 123.251 232.984 123.239C232.966 123.226 232.782 123.478 232.463 123.945C232.138 124.412 231.715 125.106 231.225 125.99C230.244 127.752 229.079 130.313 228.239 133.292C227.412 136.27 227.068 139.064 226.995 141.078C226.952 142.086 226.958 142.908 226.995 143.473C227.025 144.038 227.05 144.352 227.068 144.345V144.358Z" fill="#263238"/>
<path d="M188.839 174.104C188.839 174.104 188.858 174.227 188.931 174.448C189.005 174.669 189.097 175.007 189.262 175.413C189.569 176.248 190.102 177.421 190.924 178.784C191.745 180.147 192.898 181.664 194.412 183.132C195.92 184.593 197.814 185.975 200.003 187.044C202.198 188.088 204.46 188.702 206.544 188.972C208.634 189.242 210.541 189.193 212.11 188.984C213.686 188.775 214.936 188.456 215.776 188.18C216.199 188.057 216.518 187.916 216.739 187.836C216.953 187.75 217.07 187.701 217.064 187.688C217.051 187.664 216.592 187.817 215.746 188.063C214.9 188.303 213.649 188.591 212.092 188.763C208.99 189.132 204.49 188.849 200.144 186.767C195.804 184.673 192.769 181.332 191.12 178.68C190.28 177.347 189.722 176.199 189.379 175.382C189.036 174.571 188.87 174.111 188.846 174.117L188.839 174.104Z" fill="#263238"/>
<path d="M230.906 220.193C230.937 220.162 231.255 220.611 231.997 221.225C232.745 221.826 233.983 222.527 235.651 222.969C237.312 223.423 239.384 223.614 241.665 223.497C243.945 223.331 246.459 223.067 249.076 222.674C251.682 222.269 254.183 221.796 256.31 221.004C257.352 220.568 258.223 219.904 258.965 219.229C259.706 218.541 260.319 217.816 260.822 217.116C261.834 215.716 262.465 214.451 262.863 213.567C263.054 213.118 263.201 212.775 263.293 212.535C263.385 212.296 263.44 212.173 263.452 212.179C263.464 212.179 263.427 212.314 263.354 212.56C263.286 212.805 263.152 213.161 262.98 213.616C262.618 214.519 262.011 215.808 261.012 217.245C260.516 217.964 259.903 218.707 259.148 219.419C258.394 220.125 257.506 220.813 256.427 221.274C254.244 222.109 251.749 222.576 249.125 222.987C246.495 223.38 243.988 223.638 241.683 223.785C239.378 223.89 237.282 223.675 235.596 223.178C233.91 222.699 232.659 221.955 231.924 221.311C231.568 220.973 231.292 220.709 231.145 220.5C230.986 220.297 230.906 220.193 230.912 220.187L230.906 220.193Z" fill="#263238"/>
<path d="M227.614 154.803C227.7 154.785 229.802 162.971 232.316 173.085C234.829 183.206 236.791 191.422 236.705 191.447C236.619 191.465 234.517 183.285 232.003 173.165C229.496 163.051 227.528 154.828 227.614 154.803Z" fill="#263238"/>
<path d="M225.07 200.996C225.07 200.996 225.009 200.757 224.966 200.321C224.929 199.884 224.868 199.252 224.923 198.46C224.966 197.674 225.235 196.716 225.818 195.838C226.106 195.402 226.431 194.953 226.842 194.548C227.252 194.143 227.737 193.793 228.258 193.492C230.385 192.331 232.524 191.852 234.069 191.613C234.842 191.502 235.479 191.459 235.914 191.447C236.35 191.434 236.595 191.447 236.595 191.471C236.595 191.527 235.632 191.563 234.106 191.834C232.598 192.122 230.477 192.644 228.417 193.768C227.914 194.063 227.448 194.394 227.056 194.775C226.664 195.15 226.345 195.586 226.063 196.003C225.493 196.839 225.217 197.723 225.143 198.484C225.064 199.246 225.088 199.878 225.088 200.314C225.088 200.75 225.088 200.99 225.064 200.996H225.07Z" fill="#263238"/>
<g opacity="0.3">
<path d="M157.746 178.287C152.652 169.646 152.548 158.421 156.986 149.43C155.662 159.004 155.766 168.824 157.893 178.25" fill="black"/>
</g>
<path d="M184.701 199.854C184.701 199.854 184.725 199.866 184.737 199.872C184.725 199.872 184.713 199.86 184.701 199.854Z" fill="#FFBF9D"/>
<path d="M184.922 199.958C184.922 199.958 184.977 199.983 185.002 199.995C184.977 199.983 184.953 199.97 184.922 199.958Z" fill="#FFBF9D"/>
<path d="M184.738 199.866C184.812 199.903 184.873 199.928 184.922 199.952C184.861 199.921 184.793 199.891 184.738 199.866Z" fill="#FFBF9D"/>
<path d="M184.622 199.811C184.622 199.811 184.677 199.836 184.701 199.848C184.652 199.823 184.622 199.811 184.622 199.811Z" fill="#FFBF9D"/>
<path d="M165.869 217.067C167.469 214.033 179.993 206.026 179.993 206.026L176.603 205.239L172.864 206.824C172.864 206.824 172.631 208.371 171.251 210.337C169.872 212.302 167.536 210.269 167.536 210.269L169.118 202.673L176.524 198.208C176.524 198.208 183.494 199.277 184.616 199.811L187.589 202.531C188.895 203.557 192.653 207.591 193.682 207.714C194.712 207.837 227.038 200.554 227.038 200.554C231.47 204.067 233.806 211.055 234.511 216.091C234.511 216.091 235.301 218.566 234.443 219.91L194.761 223.03L186.351 225.357C186.351 225.357 181.698 227.261 179.442 227.734C176.646 228.324 174.758 227.421 174.684 225.867C174.611 224.314 176.781 224.148 176.781 224.148C176.781 224.148 180.312 222.87 182.188 221.765C184.064 220.66 185.241 218.412 185.241 218.412L182.243 218.768C182.243 218.768 175.868 223.202 173.477 224.498C171.08 225.8 170.608 223.411 170.418 222.686C170.222 221.962 177.578 214.758 177.578 214.758C177.578 214.758 170.589 219.075 169.333 220.162C168.076 221.249 166.212 221.575 165.814 220.844C165.415 220.113 164.281 220.095 165.881 217.055L165.869 217.067Z" fill="#FFBF9D"/>
<path d="M185.002 199.995C185.002 199.995 185.057 200.02 185.069 200.026C185.051 200.014 185.026 200.007 185.002 199.995Z" fill="#FFBF9D"/>
<path d="M185.069 200.026C185.069 200.026 185.099 200.038 185.105 200.044C185.099 200.044 185.087 200.032 185.069 200.026Z" fill="#FFBF9D"/>
<path d="M200.358 217.767C200.358 217.767 200.389 217.595 200.395 217.276C200.407 217.116 200.389 216.92 200.358 216.699C200.34 216.471 200.297 216.22 200.223 215.943C199.972 214.826 199.255 213.389 198.194 212.019C197.134 210.65 195.987 209.575 195.135 208.838C194.283 208.101 193.719 207.69 193.695 207.72C193.664 207.757 194.185 208.218 194.994 208.992C195.804 209.765 196.913 210.852 197.961 212.203C199.01 213.548 199.733 214.924 200.027 215.998C200.34 217.067 200.303 217.773 200.365 217.773L200.358 217.767Z" fill="#FF9A6C"/>
<path d="M180.288 205.786C180.275 205.86 181.275 205.989 182.427 205.596C183.58 205.215 184.303 204.509 184.248 204.46C184.193 204.386 183.426 204.957 182.335 205.319C181.244 205.694 180.294 205.7 180.294 205.792L180.288 205.786Z" fill="#FF9A6C"/>
<path d="M178.203 214.101C178.234 214.175 179.662 213.659 181.391 212.946C183.12 212.234 184.499 211.595 184.469 211.522C184.438 211.448 183.009 211.964 181.281 212.676C179.552 213.389 178.173 214.027 178.203 214.101Z" fill="#FF9A6C"/>
<path d="M184.922 218.35C184.959 218.424 185.67 218.117 186.559 217.773C187.442 217.423 188.171 217.171 188.153 217.085C188.134 217.012 187.356 217.141 186.455 217.497C185.554 217.847 184.892 218.283 184.928 218.35H184.922Z" fill="#FF9A6C"/>
<path d="M179.239 214.654C179.209 214.733 179.932 215.004 180.478 215.734C181.036 216.453 181.103 217.227 181.189 217.214C181.226 217.214 181.262 217.018 181.213 216.699C181.164 216.379 181.011 215.949 180.711 215.556C180.41 215.163 180.036 214.899 179.742 214.77C179.448 214.635 179.245 214.623 179.239 214.654Z" fill="#FF9A6C"/>
<path d="M176.297 210.011C176.26 210.091 176.806 210.385 177.167 211.024C177.541 211.65 177.535 212.277 177.621 212.283C177.694 212.308 177.854 211.601 177.425 210.877C177.008 210.146 176.315 209.937 176.303 210.017L176.297 210.011Z" fill="#FF9A6C"/>
<path d="M177.296 201.727C177.327 201.745 177.443 201.604 177.529 201.334C177.615 201.064 177.658 200.658 177.553 200.229C177.449 199.799 177.229 199.455 177.026 199.258C176.824 199.056 176.658 198.988 176.64 199.013C176.585 199.074 177.094 199.528 177.271 200.296C177.468 201.064 177.216 201.696 177.296 201.727Z" fill="#FF9A6C"/>
<path d="M234.793 221.053C234.793 221.053 234.756 220.727 234.737 220.138C234.737 219.843 234.725 219.487 234.695 219.069C234.67 218.651 234.658 218.179 234.596 217.657C234.419 215.575 233.953 212.695 232.862 209.692C232.31 208.193 231.654 206.818 230.98 205.614C230.618 205.031 230.293 204.453 229.931 203.956C229.753 203.704 229.588 203.465 229.422 203.225C229.245 203.004 229.079 202.789 228.914 202.58C227.596 200.953 226.584 200.124 226.633 200.075C226.645 200.056 226.897 200.265 227.344 200.646C227.571 200.836 227.841 201.076 228.123 201.383C228.411 201.684 228.76 202.015 229.085 202.433C229.257 202.636 229.435 202.851 229.619 203.072C229.796 203.299 229.968 203.545 230.152 203.796C230.532 204.288 230.863 204.865 231.237 205.454C231.936 206.664 232.604 208.052 233.162 209.569C234.265 212.609 234.695 215.526 234.817 217.626C234.866 218.154 234.86 218.627 234.866 219.051C234.878 219.468 234.866 219.831 234.854 220.125C234.829 220.715 234.805 221.04 234.78 221.04L234.793 221.053Z" fill="#263238"/>
<g opacity="0.3">
<path d="M248.414 192.644C244.754 191.115 240.482 190.722 236.656 191.576C243.522 191.152 250.149 195.555 252.522 201.856C252.81 202.617 253.374 203.52 254.177 203.403C254.925 203.293 255.207 202.353 255.207 201.592C255.207 197.618 252.068 194.18 248.408 192.65L248.414 192.644Z" fill="black"/>
</g>
<path d="M156.588 147.968C156.588 147.968 156.391 147.925 156.06 147.79C155.723 147.661 155.251 147.446 154.675 147.157C153.522 146.586 151.984 145.696 150.402 144.523C148.827 143.35 147.521 142.14 146.638 141.201C146.197 140.734 145.853 140.341 145.627 140.064C145.4 139.782 145.283 139.622 145.302 139.61C145.338 139.579 145.878 140.157 146.797 141.041C147.717 141.925 149.029 143.104 150.592 144.265C152.155 145.419 153.663 146.334 154.779 146.955C155.895 147.575 156.606 147.919 156.588 147.968Z" fill="white"/>
<path d="M227.356 150.283C227.356 150.283 227.307 150.326 227.203 150.388C227.081 150.461 226.927 150.553 226.731 150.67C226.32 150.922 225.695 151.266 224.886 151.689C223.261 152.537 220.846 153.642 217.744 154.699C214.642 155.755 210.847 156.719 206.568 157.388C202.289 158.064 197.532 158.432 192.542 158.555C187.546 158.672 182.789 158.58 178.467 158.481C174.145 158.377 170.246 158.107 167.003 157.616C163.76 157.13 161.192 156.449 159.457 155.859C158.586 155.564 157.924 155.319 157.483 155.128C157.274 155.043 157.109 154.969 156.98 154.92C156.87 154.871 156.808 154.84 156.814 154.84C156.821 154.84 156.876 154.852 156.992 154.889C157.127 154.938 157.293 154.993 157.507 155.073C157.955 155.245 158.629 155.472 159.5 155.749C161.241 156.295 163.809 156.946 167.04 157.401C170.271 157.861 174.157 158.107 178.479 158.199C182.801 158.279 187.552 158.365 192.536 158.248C197.52 158.125 202.259 157.769 206.526 157.112C210.792 156.461 214.575 155.522 217.677 154.496C220.779 153.47 223.2 152.402 224.837 151.591C225.652 151.18 226.284 150.86 226.707 150.627C226.909 150.523 227.068 150.437 227.191 150.375C227.301 150.32 227.356 150.295 227.363 150.295L227.356 150.283Z" fill="white"/>
<path d="M156.802 172.145C156.802 172.145 156.526 172.108 156.042 171.979C155.496 171.832 154.816 171.642 154.001 171.421C152.284 170.935 149.912 170.248 147.306 169.462C144.695 168.682 142.341 167.957 140.636 167.417C139.833 167.153 139.165 166.938 138.626 166.76C138.154 166.6 137.896 166.496 137.902 166.477C137.908 166.459 138.178 166.514 138.662 166.643C139.208 166.79 139.889 166.981 140.704 167.202C142.42 167.687 144.793 168.375 147.398 169.161C150.01 169.941 152.364 170.665 154.068 171.206C154.871 171.47 155.539 171.685 156.079 171.863C156.551 172.022 156.808 172.127 156.802 172.145Z" fill="white"/>
<path d="M158.586 206.105C158.562 206.191 152.437 204.429 144.915 202.175C137.387 199.921 131.312 198.024 131.337 197.938C131.361 197.852 137.479 199.614 145.007 201.868C152.529 204.122 158.611 206.019 158.586 206.105Z" fill="white"/>
<path d="M247.188 132.677C247.188 132.677 246.961 132.886 246.514 133.212C246.066 133.543 245.41 133.991 244.583 134.532C242.928 135.613 240.567 137.007 237.858 138.345C235.148 139.678 232.604 140.691 230.734 141.342C229.802 141.668 229.042 141.913 228.509 142.067C227.976 142.22 227.681 142.294 227.675 142.276C227.669 142.257 227.951 142.141 228.472 141.95C229.048 141.735 229.778 141.459 230.661 141.133C232.5 140.427 235.019 139.389 237.723 138.063C240.42 136.736 242.787 135.373 244.466 134.348C245.263 133.85 245.931 133.439 246.453 133.113C246.918 132.818 247.182 132.665 247.194 132.683L247.188 132.677Z" fill="white"/>
<path d="M259.4 167.564C259.4 167.564 259.057 167.755 258.407 168.037C257.757 168.326 256.807 168.707 255.617 169.149C253.239 170.027 249.879 171.059 246.085 171.82C242.284 172.575 238.79 172.907 236.258 173.005C234.989 173.054 233.965 173.067 233.26 173.048C232.549 173.036 232.163 173.018 232.163 172.993C232.163 172.968 232.555 172.95 233.26 172.925C233.965 172.907 234.989 172.858 236.252 172.778C238.771 172.618 242.247 172.256 246.03 171.507C249.806 170.752 253.159 169.757 255.55 168.934C256.745 168.522 257.708 168.178 258.37 167.92C259.032 167.669 259.4 167.546 259.412 167.564H259.4Z" fill="white"/>
<path d="M241.751 223.38C241.751 223.38 241.751 223.257 241.781 223.036C241.824 222.778 241.873 222.459 241.934 222.066C242.008 221.648 242.094 221.133 242.149 220.537C242.21 219.935 242.315 219.26 242.345 218.498C242.37 218.117 242.394 217.724 242.419 217.313C242.443 216.901 242.431 216.465 242.437 216.023C242.468 215.133 242.4 214.181 242.351 213.18C242.198 211.184 241.892 208.998 241.364 206.744C240.813 204.497 240.083 202.415 239.311 200.566C238.894 199.657 238.52 198.779 238.091 197.999C237.882 197.606 237.698 197.219 237.49 196.857C237.282 196.501 237.079 196.157 236.883 195.832C236.515 195.168 236.111 194.609 235.78 194.106C235.455 193.596 235.148 193.179 234.891 192.841C234.658 192.522 234.468 192.257 234.314 192.049C234.186 191.864 234.124 191.766 234.131 191.76C234.137 191.754 234.216 191.84 234.363 192.012C234.529 192.215 234.737 192.46 234.989 192.767C235.265 193.093 235.583 193.504 235.927 194.008C236.27 194.505 236.687 195.058 237.073 195.715C237.275 196.04 237.484 196.384 237.698 196.734C237.913 197.09 238.103 197.477 238.324 197.87C238.765 198.65 239.157 199.528 239.58 200.443C240.377 202.298 241.119 204.398 241.677 206.664C242.21 208.937 242.511 211.141 242.646 213.155C242.682 214.163 242.738 215.121 242.701 216.023C242.689 216.472 242.695 216.908 242.664 217.319C242.633 217.73 242.603 218.13 242.572 218.517C242.529 219.278 242.407 219.96 242.327 220.562C242.253 221.163 242.149 221.673 242.057 222.091C241.971 222.477 241.904 222.797 241.849 223.049C241.8 223.27 241.763 223.38 241.757 223.38H241.751Z" fill="white"/>
<path d="M265.432 204.558C265.395 204.558 265.383 204.06 265.242 203.17C265.113 202.286 264.764 201.021 264.041 199.59C263.323 198.159 262.152 196.618 260.577 195.217C258.995 193.823 256.984 192.583 254.686 191.766C252.381 190.968 250.051 190.648 247.936 190.575C245.815 190.501 243.902 190.636 242.308 190.784C240.708 190.937 239.415 191.097 238.52 191.195C238.103 191.238 237.76 191.275 237.49 191.306C237.251 191.33 237.128 191.336 237.128 191.324C237.128 191.312 237.251 191.287 237.484 191.244C237.754 191.201 238.091 191.14 238.508 191.072C239.396 190.931 240.684 190.741 242.29 190.556C243.89 190.378 245.815 190.219 247.954 190.274C250.088 190.329 252.454 190.648 254.802 191.459C257.144 192.288 259.185 193.559 260.779 194.99C262.373 196.433 263.55 198.012 264.249 199.479C264.96 200.941 265.279 202.237 265.371 203.139C265.451 203.588 265.426 203.944 265.444 204.177C265.451 204.417 265.444 204.539 265.438 204.539L265.432 204.558Z" fill="white"/>
<path d="M199.482 186.78C199.482 186.78 199.365 186.81 199.132 186.841C198.869 186.866 198.538 186.902 198.133 186.945C197.22 187.019 195.975 187.13 194.455 187.253C191.347 187.492 187.056 187.787 182.305 188.032C177.553 188.284 173.25 188.432 170.136 188.462C168.579 188.475 167.316 188.481 166.445 188.45C166.041 188.438 165.71 188.425 165.44 188.419C165.213 188.407 165.09 188.395 165.09 188.389C165.09 188.382 165.213 188.364 165.44 188.358C165.703 188.352 166.035 188.339 166.445 188.327C167.359 188.303 168.609 188.272 170.13 188.235C173.244 188.143 177.541 187.959 182.286 187.707C187.013 187.437 191.285 187.197 194.436 187.019C195.957 186.933 197.207 186.866 198.121 186.81C198.525 186.792 198.856 186.78 199.126 186.767C199.353 186.761 199.476 186.767 199.476 186.767L199.482 186.78Z" fill="white"/>
<g opacity="0.3">
<path d="M203.043 188.057C206.906 189.193 212.257 189.475 216.021 188.038C213.073 192.227 207.39 193.749 202.461 192.38C197.532 191.017 192.984 186.073 192.603 180.964C194.994 184.212 199.175 186.921 203.043 188.057Z" fill="black"/>
</g>
<path d="M234.363 184.004C234.363 184.004 234.259 184.047 234.057 184.09C233.818 184.139 233.524 184.2 233.162 184.28C232.383 184.44 231.262 184.648 229.864 184.894C227.074 185.385 223.206 185.987 218.921 186.515C214.63 187.037 210.731 187.387 207.905 187.584C206.495 187.682 205.349 187.75 204.558 187.78C204.19 187.793 203.889 187.805 203.644 187.811C203.436 187.811 203.326 187.811 203.326 187.799C203.326 187.787 203.436 187.768 203.638 187.744C203.883 187.719 204.184 187.688 204.545 187.651C205.379 187.578 206.507 187.473 207.88 187.35C210.7 187.099 214.587 186.712 218.872 186.19C223.157 185.662 227.025 185.097 229.821 184.667C231.182 184.458 232.304 184.28 233.131 184.151C233.493 184.096 233.793 184.053 234.032 184.022C234.241 183.997 234.351 183.985 234.351 183.997L234.363 184.004Z" fill="white"/>
<g opacity="0.3">
<path d="M227.939 156.664C226.97 167.779 229.993 178.815 232.99 189.555C233.174 190.213 233.37 190.894 233.812 191.41C234.259 191.926 235.032 192.227 235.639 191.92C236.577 191.447 236.448 190.09 236.184 189.076C233.407 178.422 230.63 167.773 227.853 157.119" fill="black"/>
</g>
<path d="M72.7183 167.742L85.3162 229.705H194.682C195.889 229.705 196.864 228.722 196.864 227.519C196.864 226.309 195.883 225.333 194.682 225.333H172.668L160.989 167.705C160.762 166.6 159.8 165.801 158.672 165.789L75.0846 164.874C73.5643 164.856 72.4118 166.25 72.7183 167.742Z" fill="#E0E0E0"/>
<path d="M72.7183 167.742C72.7183 167.742 72.706 167.681 72.6815 167.558C72.6631 167.435 72.6447 167.245 72.6692 166.993C72.7121 166.514 72.9696 165.71 73.8279 165.181C74.0363 165.053 74.2815 164.96 74.5512 164.893C74.821 164.831 75.1152 164.838 75.4095 164.838C76.0103 164.838 76.6662 164.85 77.3773 164.85C78.7996 164.862 80.4425 164.874 82.3 164.893C89.7177 164.96 100.489 165.065 113.902 165.194C120.615 165.261 127.983 165.335 135.935 165.415C139.907 165.458 144.027 165.501 148.275 165.544C150.402 165.568 152.56 165.587 154.749 165.611C155.846 165.624 156.949 165.636 158.059 165.648C158.341 165.654 158.605 165.648 158.905 165.667C159.199 165.697 159.487 165.783 159.751 165.912C160.278 166.17 160.713 166.625 160.952 167.171C161.075 167.448 161.124 167.742 161.179 168.012L161.351 168.848C161.461 169.406 161.578 169.965 161.694 170.524C161.921 171.642 162.154 172.772 162.381 173.908C162.841 176.18 163.307 178.477 163.779 180.798C164.723 185.447 165.691 190.206 166.678 195.064C168.652 204.779 170.7 214.887 172.815 225.296L172.668 225.173C176.799 225.173 181.042 225.173 185.345 225.173C187.497 225.173 189.667 225.173 191.856 225.173H193.499H194.32C194.584 225.173 194.878 225.161 195.172 225.222C195.748 225.339 196.269 225.695 196.607 226.18C196.944 226.665 197.085 227.28 196.993 227.863C196.895 228.581 196.429 229.226 195.797 229.57C195.479 229.742 195.129 229.834 194.768 229.847H193.756C192.42 229.847 191.083 229.847 189.753 229.847C187.092 229.847 184.45 229.847 181.82 229.847C176.566 229.847 171.38 229.847 166.268 229.847C156.054 229.847 146.154 229.846 136.658 229.84C117.672 229.828 100.317 229.822 85.31 229.816H85.2181L85.1997 229.724C81.3498 210.68 78.2172 195.187 76.0471 184.446C74.9681 179.079 74.1344 174.909 73.5643 172.066C73.2823 170.653 73.0677 169.572 72.9267 168.835C72.7857 168.105 72.7183 167.73 72.7183 167.73C72.7183 167.73 72.8041 168.098 72.9574 168.829C73.1106 169.56 73.3374 170.641 73.6317 172.053C74.2141 174.89 75.0723 179.06 76.1758 184.421C78.3705 195.156 81.5399 210.637 85.4326 229.675L85.3223 229.582C100.329 229.576 117.684 229.564 136.67 229.558C146.16 229.558 156.06 229.558 166.28 229.552C171.386 229.552 176.573 229.552 181.832 229.552C184.462 229.552 187.105 229.552 189.765 229.552C191.095 229.552 192.432 229.552 193.768 229.552H194.768C195.08 229.539 195.387 229.453 195.663 229.306C196.208 229.005 196.613 228.446 196.699 227.82C196.778 227.31 196.656 226.776 196.361 226.352C196.073 225.929 195.614 225.621 195.117 225.517C194.872 225.462 194.608 225.474 194.326 225.474H193.505H191.862C189.679 225.474 187.509 225.474 185.351 225.474C181.042 225.474 176.806 225.474 172.674 225.474H172.551L172.527 225.351C170.418 214.942 168.37 204.834 166.402 195.119C165.422 190.261 164.459 185.502 163.515 180.847C163.043 178.52 162.577 176.223 162.123 173.951C161.897 172.815 161.664 171.691 161.437 170.567C161.326 170.008 161.21 169.449 161.1 168.891L160.934 168.055C160.879 167.773 160.83 167.509 160.72 167.263C160.511 166.772 160.119 166.367 159.647 166.133C159.408 166.017 159.15 165.943 158.893 165.912C158.635 165.888 158.347 165.9 158.071 165.894C156.962 165.882 155.858 165.869 154.761 165.857C152.572 165.832 150.414 165.808 148.287 165.783C144.039 165.734 139.919 165.685 135.947 165.642C128.002 165.55 120.627 165.464 113.914 165.384C100.495 165.218 89.73 165.083 82.3123 164.991C80.4609 164.967 78.818 164.942 77.3896 164.924C76.6785 164.911 76.0225 164.905 75.4218 164.893C75.1214 164.893 74.8394 164.881 74.5758 164.936C74.3183 164.997 74.0731 165.083 73.8708 165.212C73.0309 165.722 72.7673 166.508 72.7121 166.981C72.6631 167.472 72.7428 167.724 72.7305 167.73L72.7183 167.742Z" fill="#263238"/>
<path d="M123.11 196.101C123.11 198.097 121.491 199.719 119.499 199.719C117.507 199.719 115.888 198.097 115.888 196.101C115.888 194.106 117.507 192.484 119.499 192.484C121.491 192.484 123.11 194.106 123.11 196.101Z" fill="white"/>
<path d="M72.8163 168.246C72.8163 168.246 72.9451 168.234 73.1903 168.234C73.4478 168.234 73.8156 168.234 74.2938 168.228C75.2746 168.228 76.7091 168.228 78.5482 168.228C82.251 168.246 87.5905 168.271 94.1868 168.301C107.398 168.393 125.635 168.522 145.774 168.664C148.293 168.682 150.782 168.707 153.234 168.725C153.847 168.725 154.46 168.737 155.067 168.737C155.362 168.743 155.68 168.725 156.005 168.793C156.318 168.854 156.624 168.983 156.894 169.155C157.434 169.499 157.838 170.045 158.004 170.666C158.139 171.273 158.243 171.845 158.365 172.434C159.291 177.101 160.18 181.603 161.032 185.895C162.724 194.474 164.251 202.2 165.532 208.691C166.801 215.176 167.825 220.42 168.536 224.062C168.885 225.867 169.155 227.28 169.339 228.244C169.425 228.717 169.492 229.079 169.541 229.331C169.584 229.576 169.602 229.705 169.602 229.705C169.602 229.705 169.566 229.583 169.517 229.337C169.461 229.085 169.388 228.723 169.284 228.256C169.087 227.292 168.799 225.892 168.425 224.086C167.69 220.451 166.635 215.206 165.323 208.734C164.024 202.249 162.479 194.523 160.762 185.951C159.91 181.664 159.009 177.163 158.077 172.496C157.961 171.918 157.851 171.316 157.722 170.751C157.575 170.205 157.219 169.72 156.741 169.419C156.502 169.265 156.232 169.155 155.956 169.1C155.68 169.038 155.386 169.057 155.08 169.05C154.473 169.05 153.86 169.038 153.247 169.038C150.794 169.02 148.306 169.001 145.786 168.977C125.648 168.799 107.41 168.639 94.199 168.522C87.6028 168.449 82.2632 168.393 78.5605 168.35C76.7214 168.326 75.293 168.301 74.3122 168.289C73.834 168.277 73.4662 168.271 73.2087 168.264C72.9573 168.258 72.8347 168.246 72.8347 168.246H72.8163Z" fill="#263238"/>
<path d="M218.872 74.1348C219.197 85.5571 214.36 97.0347 205.949 104.76C204.024 99.1717 202.099 93.5834 200.174 87.9951" fill="#263238"/>
<path d="M175.322 40.795C180.281 38.0806 186.271 37.6876 191.813 38.7991C197.355 39.9107 202.516 42.4223 207.408 45.2595C210.155 46.85 212.889 48.6002 214.863 51.0873C218.461 55.6256 222.023 63.0808 222.366 68.8656C222.648 73.5451 220.858 85.256 218.884 89.5056C217.076 93.4052 208.591 96.3713 204.411 97.3354L166.01 52.598C167.365 47.6299 170.81 43.2637 175.322 40.795Z" fill="#263238"/>
<path d="M168.701 46.8253L177.909 45.1733C172.876 57.1791 171.515 84.6295 168.634 97.3291C165.244 92.3979 157.36 77.3769 157.783 71.4017C158.206 65.4265 157.765 45.8059 168.707 46.8253H168.701Z" fill="#263238"/>
<path d="M212.349 66.8084C211.853 59.7953 207.322 54.0412 200.518 52.3033L179.319 46.8869C170.16 45.8982 164.042 57.1854 163.441 66.3969C162.773 76.6279 162.362 87.4299 163.558 95.0694C165.961 110.428 177.701 112.412 177.701 112.412C177.701 112.387 177.701 119.719 177.713 124.202L184.806 153.618L207.666 121.986L212.398 66.9926C212.398 66.7285 212.368 67.1584 212.343 66.8084H212.349Z" fill="#FFBF9D"/>
<path d="M168.045 77.9975C168.009 79.0354 168.854 79.9258 169.94 79.9872C171.019 80.0487 171.932 79.2565 171.969 78.2186C172.005 77.1808 171.16 76.2842 170.081 76.2289C168.995 76.1675 168.088 76.9597 168.045 78.0037V77.9975Z" fill="#263238"/>
<path d="M165.74 72.4149C165.985 72.6729 167.475 71.5736 169.59 71.5798C171.705 71.5613 173.256 72.6544 173.483 72.3965C173.593 72.2798 173.348 71.8193 172.674 71.3218C172.012 70.8306 170.878 70.3516 169.559 70.3516C168.241 70.3516 167.132 70.8367 166.494 71.3341C165.844 71.8316 165.624 72.2983 165.74 72.4088V72.4149Z" fill="#263238"/>
<path d="M186.485 77.9975C186.449 79.0354 187.295 79.9258 188.38 79.9872C189.459 80.0487 190.372 79.2565 190.409 78.2186C190.446 77.1808 189.6 76.2842 188.521 76.2289C187.436 76.1675 186.528 76.9597 186.492 78.0037L186.485 77.9975Z" fill="#263238"/>
<path d="M185.829 72.4149C186.075 72.6729 187.564 71.5736 189.679 71.5798C191.794 71.5613 193.345 72.6544 193.572 72.3965C193.682 72.2798 193.437 71.8193 192.763 71.3218C192.101 70.8306 190.967 70.3516 189.649 70.3516C188.331 70.3516 187.221 70.8367 186.583 71.3341C185.934 71.8316 185.713 72.2983 185.829 72.4149Z" fill="#263238"/>
<path d="M179.221 89.0572C179.233 88.9344 177.915 88.7072 175.788 88.4308C175.248 88.3756 174.74 88.265 174.648 87.8966C174.519 87.5035 174.746 86.9201 175.009 86.2938C175.518 84.9857 176.058 83.6163 176.616 82.1793C178.847 76.3146 180.465 71.4939 180.226 71.4079C179.987 71.3219 177.989 76.0014 175.757 81.8599C175.218 83.3031 174.709 84.6848 174.219 85.999C174.01 86.6131 173.661 87.3132 173.937 88.1238C174.084 88.5291 174.476 88.8239 174.825 88.916C175.169 89.0204 175.475 89.0265 175.745 89.0449C177.891 89.1678 179.221 89.18 179.227 89.0572H179.221Z" fill="#263238"/>
<path d="M198.035 106.946C198.035 106.946 193.045 117.497 177.707 116.023V112.412C177.707 112.412 187.803 113.075 198.035 106.946Z" fill="#FF9A6C"/>
<path d="M186.498 64.7575C186.706 65.3347 188.815 65.0645 191.298 65.3716C193.787 65.6295 195.785 66.3603 196.116 65.8444C196.263 65.5988 195.914 65.0522 195.111 64.4934C194.308 63.9346 193.033 63.4003 191.543 63.2345C190.053 63.0687 188.686 63.302 187.785 63.6705C186.872 64.039 186.412 64.4872 186.504 64.7636L186.498 64.7575Z" fill="#263238"/>
<path d="M166.433 65.9304C166.807 66.4094 168.26 65.9182 170.013 65.8936C171.766 65.8138 173.25 66.2252 173.593 65.7216C173.747 65.476 173.514 64.997 172.864 64.5364C172.226 64.082 171.16 63.7074 169.952 63.7381C168.75 63.7749 167.702 64.2048 167.095 64.7022C166.476 65.1935 166.267 65.6909 166.433 65.9243V65.9304Z" fill="#263238"/>
<path d="M167.604 52.3708C168.542 50.0618 171.074 48.6739 173.556 48.545C176.045 48.416 178.473 49.3617 180.625 50.6083C189.753 55.8958 194.449 68.663 203.466 74.1346C205.686 75.4795 208.573 74.2452 210.461 76.0322C212.349 77.8131 213.569 80.6625 212.527 83.0391C213.741 81.3749 214.967 79.68 215.66 77.7333C216.346 75.7927 216.438 73.5328 215.408 71.7458C214.63 70.3886 213.251 69.3569 212.87 67.8401C212.539 66.5075 213.06 65.1073 213.005 63.7317C212.944 62.3316 212.288 61.0358 211.601 59.8138C208.07 53.556 203.209 47.894 196.95 44.3691C192.861 42.0662 188.184 40.7213 183.494 40.881C178.804 41.0406 174.127 42.7663 170.694 45.9719C168.677 47.8572 166.556 49.8039 167.604 52.3647" fill="#263238"/>
<path d="M210.247 77.936C210.406 77.4939 218.406 74.6076 218.51 83.119C218.615 91.391 210.283 89.7636 210.265 89.5241C210.247 89.2846 210.247 77.936 210.247 77.936Z" fill="#FFBF9D"/>
<path d="M212.785 86.3675C212.821 86.3429 212.932 86.4657 213.171 86.5763C213.41 86.6806 213.815 86.7543 214.244 86.5885C215.114 86.2569 215.831 84.8629 215.862 83.3768C215.874 82.6214 215.715 81.9091 215.439 81.3195C215.182 80.7177 214.789 80.3001 214.348 80.2264C213.913 80.1282 213.6 80.3984 213.502 80.6317C213.392 80.8651 213.447 81.0309 213.404 81.0432C213.379 81.0616 213.226 80.9081 213.287 80.5642C213.318 80.3984 213.416 80.2019 213.606 80.0422C213.802 79.8764 214.09 79.7966 214.397 79.8273C215.034 79.8641 215.611 80.4475 215.911 81.0985C216.242 81.7494 216.444 82.5539 216.432 83.4013C216.395 85.0656 215.556 86.6377 214.366 86.9938C213.784 87.1535 213.3 86.9816 213.048 86.7851C212.791 86.5824 212.748 86.3982 212.772 86.3859L212.785 86.3675Z" fill="#FF9A6C"/>
<path d="M213.533 73.6864C213.533 73.6864 213.355 73.6004 213.036 73.41C212.717 73.2074 212.233 72.9433 211.651 72.5257C210.498 71.6905 208.898 70.3641 207.194 68.4603C205.477 66.5689 203.687 64.1063 201.744 61.3674C199.794 58.6347 197.655 55.601 194.927 52.8683C193.535 51.5357 192.076 50.332 190.531 49.3863C188.987 48.4344 187.368 47.7344 185.78 47.2247C182.599 46.1991 179.546 45.978 177.032 46.15C174.507 46.3096 172.508 46.8439 171.172 47.2983C170.491 47.5071 169.989 47.7344 169.645 47.8633C169.296 47.9984 169.112 48.066 169.106 48.0537C169.106 48.0414 169.278 47.9554 169.615 47.7958C169.958 47.6422 170.448 47.3905 171.129 47.1571C172.459 46.6535 174.464 46.0763 177.02 45.8798C179.558 45.671 182.66 45.8675 185.891 46.893C187.503 47.3966 189.152 48.1028 190.728 49.067C192.309 50.025 193.793 51.2409 195.197 52.5919C197.955 55.3615 200.095 58.4136 202.032 61.1586C203.963 63.9098 205.722 66.3724 207.402 68.2761C209.07 70.1921 210.627 71.5308 211.749 72.3967C212.313 72.8266 212.785 73.1091 213.085 73.3302C213.392 73.5451 213.551 73.6618 213.545 73.6741L213.533 73.6864Z" fill="#455A64"/>
<path d="M213.723 87.8293C214.526 87.6819 215.396 88.2407 215.598 89.0329C215.801 89.8251 215.292 90.734 214.513 90.9796C213.735 91.2314 212.797 90.7831 212.503 90.0155C212.208 89.254 212.595 88.2899 213.336 87.946" fill="white"/>
<path d="M213.336 87.952C213.385 88.0012 212.797 88.2407 212.595 89.0636C212.497 89.4566 212.552 89.9786 212.92 90.3593C213.269 90.7401 213.894 90.9796 214.458 90.8015C215.022 90.6172 215.396 90.0584 215.457 89.5487C215.537 89.0267 215.274 88.5661 214.973 88.3021C214.329 87.7494 213.716 87.8906 213.723 87.8231C213.723 87.8046 213.851 87.7371 214.109 87.731C214.366 87.731 214.759 87.8046 215.139 88.0933C215.513 88.3635 215.874 88.9223 215.801 89.5856C215.739 90.2242 215.31 90.912 214.569 91.1577C213.827 91.3849 213.073 91.0717 212.656 90.5865C212.215 90.0891 212.184 89.4259 212.337 88.9837C212.478 88.5293 212.754 88.2345 212.969 88.0933C213.183 87.9459 213.33 87.9213 213.336 87.9459V87.952Z" fill="#263238"/>
<path d="M211.454 76.0259C211.583 78.2858 211.687 80.6685 210.645 82.6766C209.603 84.6848 206.973 86.0481 205.011 84.9243C203.411 84.0092 202.933 81.9581 202.663 80.1281C201.879 74.8591 201.523 69.5348 200.696 64.272L211.454 76.0198V76.0259Z" fill="#263238"/>
<path d="M169.639 48.4343C169.645 48.4835 170.369 48.2992 171.693 48.2563C173.011 48.2194 174.954 48.3975 177.155 49.2572C178.252 49.6871 179.423 50.2521 180.576 51.0259C181.734 51.7935 182.911 52.7085 184.107 53.7279C186.473 55.779 188.931 58.2416 191.022 61.1954C192.07 62.6693 193.002 64.1861 194.007 65.5924C195.007 66.9987 196.116 68.276 197.318 69.32C199.721 71.4079 202.191 72.8756 204.294 73.9933C206.409 75.111 208.175 75.897 209.388 76.4374C209.965 76.6831 210.431 76.8796 210.798 77.0393C211.123 77.1744 211.295 77.2358 211.301 77.2174C211.307 77.2051 211.148 77.113 210.835 76.9533C210.474 76.7752 210.02 76.548 209.462 76.2716C208.267 75.6821 206.526 74.8531 204.447 73.7047C202.375 72.5502 199.942 71.0702 197.594 68.9945C196.423 67.9628 195.35 66.7162 194.369 65.3222C193.382 63.9343 192.456 62.4113 191.396 60.9191C189.275 57.9284 186.786 55.4474 184.383 53.3963C183.169 52.3769 181.973 51.4619 180.784 50.7004C179.595 49.9328 178.393 49.3678 177.265 48.9502C175.003 48.1089 173.011 47.9861 171.681 48.0782C171.012 48.1212 170.497 48.2133 170.154 48.2931C169.811 48.3729 169.633 48.4282 169.639 48.4405V48.4343Z" fill="#455A64"/>
<path d="M211.681 70.9165C211.681 70.9165 211.926 71.1131 212.411 71.4078C212.975 71.7394 213.674 72.1509 214.501 72.636C214.728 72.765 214.961 72.9001 215.206 73.0413C215.47 73.1826 215.758 73.3115 216.107 73.3422C216.279 73.3545 216.487 73.3422 216.665 73.2133C216.843 73.0905 216.959 72.8878 216.972 72.6667C216.99 72.2307 216.757 71.9114 216.579 71.6228C215.838 70.4314 215.016 69.1172 214.152 67.7293L213.827 68.0364C214.599 68.6137 215.5 69.0681 216.481 69.3629C217.462 69.6576 218.474 69.7682 219.436 69.7129C219.675 69.7068 219.939 69.6699 220.184 69.5839C220.423 69.498 220.705 69.3322 220.828 69.0251C220.95 68.7242 220.834 68.3864 220.687 68.1899C220.54 67.975 220.362 67.8215 220.215 67.6741C218.989 66.4827 218.069 65.2299 217.401 64.1184C216.077 61.8831 215.697 60.2803 215.611 60.311C215.586 60.3171 215.654 60.7224 215.868 61.4225C216.089 62.1226 216.469 63.1297 217.113 64.2842C217.756 65.4387 218.664 66.7406 219.908 67.9811C220.215 68.2759 220.521 68.6075 220.405 68.8716C220.307 69.1295 219.835 69.2585 219.405 69.2646C218.492 69.3137 217.536 69.2032 216.61 68.9268C215.684 68.6505 214.826 68.2206 214.097 67.6802L213.11 66.9556L213.766 67.9811C214.648 69.3629 215.482 70.6586 216.242 71.8438C216.432 72.1325 216.604 72.415 216.592 72.6483C216.579 72.8817 216.383 73.0229 216.113 72.9984C215.58 72.9676 215.096 72.6053 214.63 72.3842C213.778 71.9421 213.054 71.5736 212.472 71.2727C211.963 71.0209 211.681 70.892 211.663 70.9165H211.681Z" fill="#455A64"/>
<path d="M187.264 92.9692C186.982 91.7103 185.695 90.74 184.413 90.8689C183.469 90.9611 182.623 91.6059 182.194 92.4472C181.765 93.2885 181.747 94.3202 182.072 95.2106L182.114 95.4072C182.979 96.3652 184.481 96.7029 185.652 96.1625C186.823 95.6221 187.546 94.2219 187.264 92.963V92.9692Z" fill="#FF9A6C"/>
<path d="M180.576 95.4561C180.576 95.1368 182.715 95.235 184.321 93.4787C185.934 91.7223 185.811 89.4256 186.111 89.4256C186.246 89.401 186.504 89.9537 186.479 90.9179C186.467 91.8636 186.093 93.233 185.106 94.3077C184.119 95.3824 182.85 95.8 181.973 95.8307C181.072 95.8675 180.557 95.6035 180.576 95.4561Z" fill="#263238"/>
<path d="M252.644 225.616C252.644 225.616 252.595 225.628 252.497 225.64C252.381 225.652 252.24 225.665 252.074 225.683C251.676 225.714 251.124 225.763 250.437 225.818C249.015 225.929 246.955 226.07 244.405 226.223C239.311 226.524 232.267 226.831 224.475 226.967C216.684 227.095 209.634 227.022 204.527 226.893C201.977 226.825 199.911 226.758 198.489 226.69C197.796 226.653 197.25 226.629 196.846 226.61C196.674 226.598 196.533 226.592 196.417 226.58C196.319 226.574 196.269 226.561 196.269 226.561C196.269 226.561 196.319 226.549 196.417 226.549C196.533 226.549 196.674 226.549 196.846 226.549C197.25 226.549 197.796 226.561 198.489 226.567C199.942 226.592 202.001 226.623 204.527 226.666C209.628 226.739 216.677 226.776 224.463 226.647C232.249 226.518 239.286 226.242 244.387 225.996C246.912 225.867 248.966 225.769 250.419 225.695C251.112 225.665 251.657 225.64 252.062 225.622C252.233 225.622 252.374 225.616 252.491 225.609C252.589 225.609 252.638 225.609 252.638 225.616H252.644Z" fill="white"/>
</g>
<defs>
<clipPath id="clip0_1085_12572">
<rect width="269" height="230" fill="white"/>
</clipPath>
</defs>
</svg>
