<svg width="360" height="335" viewBox="0 0 360 335" fill="none" xmlns="http://www.w3.org/2000/svg">
<path d="M261.238 5.67773H53.0584V278.997H261.238V5.67773Z" fill="#E0E0E0"/>
<path d="M251.443 10.085H65.5279V276.508H251.443V10.085Z" fill="#EBEBEB"/>
<path d="M164.284 97.9014H90.3982V276.274H164.284V97.9014Z" fill="#E0E0E0"/>
<path d="M113.936 119.617H102.27V131.283H113.936V119.617Z" fill="#FAFAFA"/>
<path d="M133.174 119.617H121.508V131.283H133.174V119.617Z" fill="#FAFAFA"/>
<path d="M152.403 119.617H140.736V131.283H152.403V119.617Z" fill="#FAFAFA"/>
<path d="M113.936 137.2H102.27V148.866H113.936V137.2Z" fill="#FAFAFA"/>
<path d="M133.174 137.2H121.508V148.866H133.174V137.2Z" fill="#FAFAFA"/>
<path d="M152.403 137.2H140.736V148.866H152.403V137.2Z" fill="#FAFAFA"/>
<path d="M113.936 154.773H102.27V166.44H113.936V154.773Z" fill="#FAFAFA"/>
<path d="M133.174 154.773H121.508V166.44H133.174V154.773Z" fill="#FAFAFA"/>
<path d="M152.403 154.773H140.736V166.44H152.403V154.773Z" fill="#FAFAFA"/>
<path d="M113.936 172.346H102.27V184.012H113.936V172.346Z" fill="#FAFAFA"/>
<path d="M133.174 172.346H121.508V184.012H133.174V172.346Z" fill="#FAFAFA"/>
<path d="M152.403 172.346H140.736V184.012H152.403V172.346Z" fill="#FAFAFA"/>
<path d="M113.936 189.928H102.27V201.594H113.936V189.928Z" fill="#FAFAFA"/>
<path d="M133.174 189.928H121.508V201.594H133.174V189.928Z" fill="#FAFAFA"/>
<path d="M152.403 189.928H140.736V201.594H152.403V189.928Z" fill="#FAFAFA"/>
<path d="M113.936 207.501H102.27V219.167H113.936V207.501Z" fill="#FAFAFA"/>
<path d="M133.174 207.501H121.508V219.167H133.174V207.501Z" fill="#FAFAFA"/>
<path d="M152.403 207.501H140.736V219.167H152.403V207.501Z" fill="#FAFAFA"/>
<path d="M113.936 225.074H102.27V236.74H113.936V225.074Z" fill="#FAFAFA"/>
<path d="M133.174 225.074H121.508V236.74H133.174V225.074Z" fill="#FAFAFA"/>
<path d="M152.403 225.074H140.736V236.74H152.403V225.074Z" fill="#FAFAFA"/>
<path d="M113.936 242.657H102.27V254.323H113.936V242.657Z" fill="#FAFAFA"/>
<path d="M133.174 242.657H121.508V254.323H133.174V242.657Z" fill="#FAFAFA"/>
<path d="M152.403 242.657H140.736V254.323H152.403V242.657Z" fill="#FAFAFA"/>
<path d="M113.936 260.229H102.27V271.896H113.936V260.229Z" fill="#FAFAFA"/>
<path d="M133.174 260.229H121.508V271.896H133.174V260.229Z" fill="#FAFAFA"/>
<path d="M152.403 260.229H140.736V271.896H152.403V260.229Z" fill="#FAFAFA"/>
<path d="M208.167 155.516H157.829V277.056H208.167V155.516Z" fill="#E0E0E0"/>
<path d="M173.874 170.316H165.92V178.27H173.874V170.316Z" fill="#FAFAFA"/>
<path d="M186.98 170.316H179.026V178.27H186.98V170.316Z" fill="#FAFAFA"/>
<path d="M200.086 170.316H192.132V178.27H200.086V170.316Z" fill="#FAFAFA"/>
<path d="M173.874 182.286H165.92V190.24H173.874V182.286Z" fill="#FAFAFA"/>
<path d="M186.98 182.286H179.026V190.24H186.98V182.286Z" fill="#FAFAFA"/>
<path d="M200.086 182.286H192.132V190.24H200.086V182.286Z" fill="#FAFAFA"/>
<path d="M173.874 194.265H165.92V202.218H173.874V194.265Z" fill="#FAFAFA"/>
<path d="M186.98 194.265H179.026V202.218H186.98V194.265Z" fill="#FAFAFA"/>
<path d="M200.086 194.265H192.132V202.218H200.086V194.265Z" fill="#FAFAFA"/>
<path d="M173.874 206.245H165.92V214.199H173.874V206.245Z" fill="#FAFAFA"/>
<path d="M186.98 206.245H179.026V214.199H186.98V206.245Z" fill="#FAFAFA"/>
<path d="M200.086 206.245H192.132V214.199H200.086V206.245Z" fill="#FAFAFA"/>
<path d="M173.874 218.215H165.92V226.169H173.874V218.215Z" fill="#FAFAFA"/>
<path d="M186.98 218.215H179.026V226.169H186.98V218.215Z" fill="#FAFAFA"/>
<path d="M200.086 218.215H192.132V226.169H200.086V218.215Z" fill="#FAFAFA"/>
<path d="M173.874 230.195H165.92V238.149H173.874V230.195Z" fill="#FAFAFA"/>
<path d="M186.98 230.195H179.026V238.149H186.98V230.195Z" fill="#FAFAFA"/>
<path d="M200.086 230.195H192.132V238.149H200.086V230.195Z" fill="#FAFAFA"/>
<path d="M173.874 242.175H165.92V250.129H173.874V242.175Z" fill="#FAFAFA"/>
<path d="M186.98 242.175H179.026V250.129H186.98V242.175Z" fill="#FAFAFA"/>
<path d="M200.086 242.175H192.132V250.129H200.086V242.175Z" fill="#FAFAFA"/>
<path d="M173.874 254.146H165.92V262.099H173.874V254.146Z" fill="#FAFAFA"/>
<path d="M186.98 254.146H179.026V262.099H186.98V254.146Z" fill="#FAFAFA"/>
<path d="M200.086 254.146H192.132V262.099H200.086V254.146Z" fill="#FAFAFA"/>
<path d="M173.874 266.125H165.92V274.079H173.874V266.125Z" fill="#FAFAFA"/>
<path d="M186.98 266.125H179.026V274.079H186.98V266.125Z" fill="#FAFAFA"/>
<path d="M200.086 266.125H192.132V274.079H200.086V266.125Z" fill="#FAFAFA"/>
<path d="M249.651 205.364H220.51V275.734H249.651V205.364Z" fill="#E0E0E0"/>
<path d="M229.796 213.926H225.192V218.53H229.796V213.926Z" fill="#FAFAFA"/>
<path d="M237.387 213.926H232.783V218.53H237.387V213.926Z" fill="#FAFAFA"/>
<path d="M244.968 213.926H240.365V218.53H244.968V213.926Z" fill="#FAFAFA"/>
<path d="M229.796 220.861H225.192V225.465H229.796V220.861Z" fill="#FAFAFA"/>
<path d="M237.387 220.861H232.783V225.465H237.387V220.861Z" fill="#FAFAFA"/>
<path d="M244.968 220.861H240.365V225.465H244.968V220.861Z" fill="#FAFAFA"/>
<path d="M229.796 227.796H225.192V232.4H229.796V227.796Z" fill="#FAFAFA"/>
<path d="M237.387 227.796H232.783V232.4H237.387V227.796Z" fill="#FAFAFA"/>
<path d="M244.968 227.796H240.365V232.4H244.968V227.796Z" fill="#FAFAFA"/>
<path d="M229.796 234.73H225.192V239.334H229.796V234.73Z" fill="#FAFAFA"/>
<path d="M237.387 234.73H232.783V239.334H237.387V234.73Z" fill="#FAFAFA"/>
<path d="M244.968 234.73H240.365V239.334H244.968V234.73Z" fill="#FAFAFA"/>
<path d="M229.796 241.665H225.192V246.269H229.796V241.665Z" fill="#FAFAFA"/>
<path d="M237.387 241.665H232.783V246.269H237.387V241.665Z" fill="#FAFAFA"/>
<path d="M244.968 241.665H240.365V246.269H244.968V241.665Z" fill="#FAFAFA"/>
<path d="M229.796 248.601H225.192V253.204H229.796V248.601Z" fill="#FAFAFA"/>
<path d="M237.387 248.601H232.783V253.204H237.387V248.601Z" fill="#FAFAFA"/>
<path d="M244.968 248.601H240.365V253.204H244.968V248.601Z" fill="#FAFAFA"/>
<path d="M229.796 255.526H225.192V260.13H229.796V255.526Z" fill="#FAFAFA"/>
<path d="M237.387 255.526H232.783V260.13H237.387V255.526Z" fill="#FAFAFA"/>
<path d="M244.968 255.526H240.365V260.13H244.968V255.526Z" fill="#FAFAFA"/>
<path d="M229.796 262.461H225.192V267.065H229.796V262.461Z" fill="#FAFAFA"/>
<path d="M237.387 262.461H232.783V267.065H237.387V262.461Z" fill="#FAFAFA"/>
<path d="M244.968 262.461H240.365V267.065H244.968V262.461Z" fill="#FAFAFA"/>
<path d="M229.796 269.396H225.192V274H229.796V269.396Z" fill="#FAFAFA"/>
<path d="M237.387 269.396H232.783V274H237.387V269.396Z" fill="#FAFAFA"/>
<path d="M244.968 269.396H240.365V274H244.968V269.396Z" fill="#FAFAFA"/>
<path d="M223.076 113.289C205.141 113.289 190.604 98.7531 190.604 80.8179C190.604 73.7946 192.848 67.2905 196.638 61.9814C188.391 67.8684 183.003 77.5168 183.003 88.419C183.003 106.354 197.539 120.891 215.475 120.891C226.377 120.891 236.025 115.503 241.912 107.255C236.603 111.046 230.099 113.289 223.076 113.289Z" fill="#FAFAFA"/>
<path d="M273.189 5.67809H43.7724L47.24 0.408203H268.213L273.189 5.67809Z" fill="#E0E0E0"/>
<path d="M273.189 16.5111H43.7724L47.24 11.2412H268.213L273.189 16.5111Z" fill="#E0E0E0"/>
<path d="M273.189 27.3548H43.7724L47.24 22.085H268.213L273.189 27.3548Z" fill="#E0E0E0"/>
<path d="M273.189 38.1888H43.7724L47.24 32.9189H268.213L273.189 38.1888Z" fill="#E0E0E0"/>
<path d="M273.189 49.0228H43.7724L47.24 43.7627H268.213L273.189 49.0228Z" fill="#E0E0E0"/>
<path d="M273.189 59.8656H43.7724L47.24 54.5957H268.213L273.189 59.8656Z" fill="#E0E0E0"/>
<path d="M273.189 70.6995H43.7724L47.24 65.4395H268.213L273.189 70.6995Z" fill="#E0E0E0"/>
<path d="M273.189 81.5433H43.7724L47.24 76.2734H268.213L273.189 81.5433Z" fill="#E0E0E0"/>
<path d="M273.189 92.3763H43.7724L47.24 87.1162H268.213L273.189 92.3763Z" fill="#E0E0E0"/>
<path d="M274.883 275.726H63.5688V288.019H274.883V275.726Z" fill="#E0E0E0"/>
<path d="M249.651 275.726H38.336V288.019H249.651V275.726Z" fill="#F5F5F5"/>
<path d="M400.048 316.003H262.531V335.006H400.048V316.003Z" fill="#E0E0E0"/>
<path d="M397.815 318.383H262.531V332.566H397.815V318.383Z" fill="#F5F5F5"/>
<path d="M397.815 321.478C397.815 321.478 397.697 321.478 397.462 321.488C397.227 321.488 396.884 321.488 396.434 321.497C395.532 321.497 394.2 321.507 392.486 321.517C389.058 321.517 384.101 321.537 377.979 321.546C365.725 321.546 348.799 321.566 330.1 321.576C311.4 321.566 294.474 321.556 282.22 321.546C276.098 321.537 271.142 321.527 267.713 321.517C265.999 321.517 264.677 321.507 263.766 321.497C263.315 321.497 262.972 321.497 262.737 321.488C262.502 321.488 262.385 321.478 262.385 321.478C262.385 321.478 262.502 321.478 262.737 321.468C262.972 321.468 263.315 321.468 263.766 321.458C264.667 321.458 265.999 321.448 267.713 321.439C271.142 321.439 276.098 321.419 282.22 321.409C294.474 321.409 311.4 321.39 330.1 321.38C348.789 321.39 365.715 321.399 377.979 321.409C384.101 321.419 389.058 321.429 392.486 321.439C394.2 321.439 395.523 321.448 396.434 321.458C396.884 321.458 397.227 321.458 397.462 321.468C397.697 321.468 397.815 321.478 397.815 321.478Z" fill="#E0E0E0"/>
<path d="M397.815 325.269C397.815 325.269 397.697 325.269 397.462 325.279C397.227 325.279 396.884 325.279 396.434 325.288C395.532 325.288 394.2 325.298 392.486 325.308C389.058 325.308 384.101 325.328 377.979 325.337C365.725 325.337 348.799 325.357 330.1 325.367C311.4 325.357 294.474 325.347 282.22 325.337C276.098 325.328 271.142 325.318 267.713 325.308C265.999 325.308 264.677 325.298 263.766 325.288C263.315 325.288 262.972 325.288 262.737 325.279C262.502 325.279 262.385 325.269 262.385 325.269C262.385 325.269 262.502 325.269 262.737 325.259C262.972 325.259 263.315 325.259 263.766 325.249C264.667 325.249 265.999 325.239 267.713 325.23C271.142 325.23 276.098 325.21 282.22 325.2C294.474 325.2 311.4 325.181 330.1 325.171C348.789 325.181 365.715 325.19 377.979 325.2C384.101 325.21 389.058 325.22 392.486 325.23C394.2 325.23 395.523 325.239 396.434 325.249C396.884 325.249 397.227 325.249 397.462 325.259C397.697 325.259 397.815 325.269 397.815 325.269Z" fill="#E0E0E0"/>
<path d="M397.815 329.059C397.815 329.059 397.697 329.059 397.462 329.069C397.227 329.069 396.884 329.069 396.434 329.078C395.532 329.078 394.2 329.088 392.486 329.098C389.058 329.098 384.101 329.118 377.979 329.127C365.725 329.127 348.799 329.147 330.1 329.157C311.4 329.147 294.474 329.137 282.22 329.127C276.098 329.118 271.142 329.108 267.713 329.098C265.999 329.098 264.677 329.088 263.766 329.078C263.315 329.078 262.972 329.078 262.737 329.069C262.502 329.069 262.385 329.059 262.385 329.059C262.385 329.059 262.502 329.059 262.737 329.049C262.972 329.049 263.315 329.049 263.766 329.039C264.667 329.039 265.999 329.03 267.713 329.02C271.142 329.02 276.098 329 282.22 328.99C294.474 328.99 311.4 328.971 330.1 328.961C348.789 328.971 365.715 328.981 377.979 328.99C384.101 329 389.058 329.01 392.486 329.02C394.2 329.02 395.523 329.029 396.434 329.039C396.884 329.039 397.227 329.039 397.462 329.049C397.697 329.049 397.815 329.059 397.815 329.059Z" fill="#E0E0E0"/>
<path d="M379.106 298.421H272.474V316.004H379.106V298.421Z" fill="#F5F5F5"/>
<path d="M388.382 298.527H359.368V315.904H388.382V298.527Z" fill="#EBEBEB"/>
<path d="M351.571 312.154C351.571 312.154 351.571 311.987 351.571 311.674C351.571 311.35 351.571 310.88 351.571 310.263C351.571 309.019 351.561 307.187 351.551 304.807L351.591 304.846C339.239 304.856 311.391 304.876 279.046 304.905L279.144 304.807C279.144 307.324 279.144 309.822 279.144 312.163L279.046 312.065C299.391 312.085 317.522 312.095 330.56 312.105C337.084 312.114 342.334 312.124 345.968 312.134C347.78 312.134 349.181 312.144 350.141 312.144C350.611 312.144 350.974 312.144 351.228 312.144C351.473 312.144 351.6 312.144 351.6 312.144C351.6 312.144 351.483 312.144 351.238 312.144C350.993 312.144 350.631 312.144 350.16 312.144C349.21 312.144 347.81 312.144 346.007 312.154C342.383 312.154 337.143 312.173 330.629 312.183C317.571 312.193 299.421 312.212 279.046 312.222H278.948V312.124C278.948 309.783 278.948 307.295 278.948 304.768V304.67H279.046C311.391 304.699 339.239 304.719 351.591 304.729H351.63V304.768C351.62 307.158 351.61 308.999 351.61 310.243C351.61 310.861 351.61 311.331 351.61 311.644C351.61 311.958 351.61 312.114 351.61 312.114L351.571 312.154Z" fill="#E0E0E0"/>
<path d="M359.407 315.895C359.358 315.895 359.309 311.957 359.309 307.099C359.309 302.24 359.348 298.303 359.407 298.303C359.466 298.303 359.505 302.24 359.505 307.099C359.505 311.957 359.466 315.895 359.407 315.895Z" fill="#E0E0E0"/>
<path d="M372.543 277.907H265.911V291.67H372.543V277.907Z" fill="#F5F5F5"/>
<path d="M348.995 288.946C348.995 288.946 348.995 288.887 348.985 288.789C348.985 288.672 348.985 288.525 348.975 288.348C348.975 287.947 348.965 287.398 348.956 286.722C348.946 285.322 348.926 283.372 348.916 281.08L349.005 281.168C347.457 281.168 345.753 281.168 343.96 281.168C343.94 281.188 344.146 280.982 344.058 281.07V281.619C344.058 281.805 344.058 281.981 344.058 282.168C344.058 282.53 344.058 282.892 344.058 283.245C344.058 283.95 344.058 284.636 344.058 285.302C344.058 286.624 344.048 287.849 344.048 288.936L343.97 288.858C345.478 288.877 346.732 288.887 347.623 288.897C348.045 288.897 348.388 288.917 348.642 288.917C348.877 288.917 349.005 288.926 349.014 288.936C349.014 288.936 348.907 288.946 348.672 288.956C348.417 288.956 348.084 288.966 347.663 288.975C346.761 288.985 345.488 289.005 343.96 289.014H343.882V288.936C343.882 287.849 343.882 286.624 343.872 285.302C343.872 284.636 343.872 283.95 343.872 283.245C343.872 282.892 343.872 282.53 343.872 282.168C343.872 281.981 343.872 281.805 343.872 281.619V281.345V281.208V281.09V281.07C343.784 281.159 343.989 280.943 343.97 280.973C345.762 280.973 347.477 280.973 349.014 280.973H349.103V281.061C349.083 283.372 349.073 285.341 349.063 286.762C349.054 287.437 349.044 287.976 349.044 288.368C349.044 288.535 349.044 288.672 349.034 288.789C349.034 288.887 349.034 288.926 349.024 288.926L348.995 288.946Z" fill="#E0E0E0"/>
<path d="M372.543 280.054H356.096V289.359H372.543V280.054Z" fill="white"/>
<path d="M353.844 291.581C353.795 291.581 353.746 288.545 353.746 284.803C353.746 281.061 353.785 278.024 353.844 278.024C353.902 278.024 353.941 281.061 353.941 284.803C353.941 288.545 353.902 291.581 353.844 291.581Z" fill="#E0E0E0"/>
<path d="M372.66 282.256C372.66 282.315 368.919 282.354 364.315 282.354C359.711 282.354 355.969 282.305 355.969 282.256C355.969 282.207 359.701 282.158 364.315 282.158C368.928 282.158 372.66 282.207 372.66 282.256Z" fill="#E0E0E0"/>
<path d="M372.66 284.704C372.66 284.763 368.919 284.802 364.315 284.802C359.711 284.802 355.969 284.753 355.969 284.704C355.969 284.655 359.701 284.606 364.315 284.606C368.928 284.606 372.66 284.655 372.66 284.704Z" fill="#E0E0E0"/>
<path d="M372.66 287.194C372.66 287.252 368.919 287.292 364.315 287.292C359.711 287.292 355.969 287.243 355.969 287.194C355.969 287.145 359.701 287.096 364.315 287.096C368.928 287.096 372.66 287.145 372.66 287.194Z" fill="#E0E0E0"/>
<path d="M390.84 291.662H284.209V298.45H390.84V291.662Z" fill="#E0E0E0"/>
<path d="M356.087 294.277H291.868V295.903H356.087V294.277Z" fill="#F5F5F5"/>
<path d="M365.911 298.431C365.911 298.49 348.241 298.529 326.446 298.529C304.651 298.529 286.981 298.48 286.981 298.431C286.981 298.382 304.651 298.333 326.446 298.333C348.241 298.333 365.911 298.382 365.911 298.431Z" fill="#E0E0E0"/>
<path d="M390.831 291.613C390.831 291.671 367.577 291.711 338.906 291.711C310.235 291.711 286.981 291.662 286.981 291.613C286.981 291.564 310.225 291.515 338.906 291.515C367.586 291.515 390.831 291.564 390.831 291.613Z" fill="#E0E0E0"/>
<path d="M359.182 277.909C359.182 278.007 343.921 278.085 325.104 278.085C306.287 278.085 291.026 278.007 291.026 277.909C291.026 277.811 306.277 277.732 325.104 277.732C343.931 277.732 359.182 277.811 359.182 277.909Z" fill="#E0E0E0"/>
<path d="M339.611 258.015H300.146L303.3 218.481L339.611 220.421V258.015Z" fill="#EBEBEB"/>
<path d="M342.775 217.267H303.3V254.861H342.775V217.267Z" fill="#F5F5F5"/>
<path d="M338.161 229.843H309.539V231.244H338.161V229.843Z" fill="#E0E0E0"/>
<path d="M338.161 235.358H309.539V236.759H338.161V235.358Z" fill="#E0E0E0"/>
<path d="M327.837 240.884H309.539V242.285H327.837V240.884Z" fill="#E0E0E0"/>
<path d="M393.407 162.637H353.932L357.086 123.104L393.407 125.043V162.637Z" fill="#EBEBEB"/>
<path d="M396.561 121.898H357.086V159.493H396.561V121.898Z" fill="#F5F5F5"/>
<path d="M416.161 332.206C416.161 332.313 304.22 332.402 166.165 332.402C28.1097 332.402 -83.8508 332.313 -83.8508 332.206C-83.8508 332.098 28.0608 332.01 166.165 332.01C304.269 332.01 416.161 332.098 416.161 332.206Z" fill="#263238"/>
<path d="M306.955 101.963C325.726 83.1923 325.726 52.7588 306.955 33.988C288.184 15.2172 257.751 15.2172 238.98 33.988C220.209 52.7589 220.209 83.1923 238.98 101.963C257.751 120.734 288.184 120.734 306.955 101.963Z" fill="#83B142"/>
<path d="M272.963 112.573C297.594 112.573 317.562 92.6059 317.562 67.9751C317.562 43.3442 297.594 23.377 272.963 23.377C248.333 23.377 228.365 43.3442 228.365 67.9751C228.365 92.6059 248.333 112.573 272.963 112.573Z" fill="white"/>
<g opacity="0.3">
<path d="M232.646 66.8887C232.646 48.3951 243.666 32.4679 259.495 25.3271C241.452 31.0378 228.365 47.9152 228.365 67.8487C228.365 92.4839 248.328 112.447 272.963 112.447C273.835 112.447 274.707 112.417 275.569 112.368C251.629 110.997 232.636 91.1615 232.636 66.8789L232.646 66.8887Z" fill="black"/>
</g>
<path d="M317.562 67.975C317.562 67.975 317.542 67.7302 317.522 67.2502C317.493 66.7702 317.513 66.0552 317.424 65.1344C317.307 63.2733 317.003 60.5306 316.151 57.0924C315.691 55.388 315.142 53.4877 314.319 51.4993C313.516 49.5011 312.517 47.3755 311.214 45.2303C308.638 40.9301 304.935 36.4243 299.901 32.5845C297.393 30.6646 294.543 28.9309 291.398 27.5105C288.254 26.0902 284.826 24.9442 281.172 24.2879C277.518 23.612 273.649 23.3475 269.702 23.661C267.723 23.7785 265.735 24.1018 263.746 24.4936C261.758 24.9148 259.769 25.4927 257.8 26.1882C249.954 29.0288 242.5 34.3379 237.132 41.6942C235.771 43.5161 234.585 45.485 233.508 47.5322C232.959 48.5509 232.489 49.6088 232.019 50.6765C231.588 51.7638 231.147 52.8413 230.795 53.9579C229.296 58.405 228.551 63.1655 228.522 67.9848C228.551 72.8041 229.296 77.5647 230.795 82.0215C231.147 83.1382 231.588 84.2255 232.019 85.303C232.499 86.3609 232.959 87.4286 233.508 88.4473C234.585 90.4945 235.771 92.4633 237.132 94.2853C242.5 101.642 249.954 106.951 257.8 109.791C259.769 110.487 261.758 111.065 263.746 111.486C265.744 111.878 267.733 112.201 269.702 112.318C273.649 112.622 277.518 112.358 281.172 111.692C284.835 111.035 288.264 109.889 291.398 108.469C294.543 107.039 297.393 105.315 299.901 103.395C304.935 99.5552 308.638 95.0591 311.214 90.7492C312.517 88.604 313.516 86.4686 314.319 84.4802C315.142 82.4917 315.691 80.5914 316.151 78.887C317.003 75.4489 317.317 72.7062 317.424 70.8451C317.513 69.9145 317.493 69.1995 317.522 68.7293C317.542 68.2493 317.562 68.0044 317.562 68.0044C317.562 68.0044 317.591 68.984 317.493 70.8549C317.395 72.716 317.111 75.4685 316.278 78.9262C315.828 80.6404 315.289 82.5407 314.466 84.5487C313.663 86.5568 312.674 88.6921 311.371 90.8569C308.795 95.1864 305.092 99.7217 300.038 103.591C297.52 105.53 294.66 107.274 291.506 108.714C288.352 110.154 284.904 111.31 281.221 111.976C277.548 112.661 273.659 112.936 269.682 112.622C267.694 112.505 265.695 112.181 263.687 111.79C261.679 111.359 259.681 110.79 257.702 110.085C249.807 107.235 242.294 101.896 236.887 94.491C235.516 92.6593 234.321 90.6708 233.234 88.6138C232.685 87.5853 232.215 86.5176 231.725 85.4499C231.294 84.3626 230.844 83.2655 230.491 82.1391C228.982 77.6528 228.228 72.8629 228.199 68.0044C228.228 63.1557 228.982 58.356 230.491 53.8796C230.844 52.7531 231.294 51.6658 231.725 50.5687C232.205 49.5011 232.675 48.4334 233.224 47.4049C234.311 45.3478 235.506 43.3692 236.878 41.5277C242.285 34.1224 249.798 28.7839 257.693 25.9335C259.671 25.2282 261.67 24.6601 263.678 24.2291C265.686 23.8373 267.684 23.514 269.672 23.3965C273.649 23.0928 277.538 23.3671 281.211 24.043C284.894 24.7091 288.342 25.8649 291.496 27.3048C294.65 28.7448 297.511 30.4883 300.028 32.4278C305.082 36.2969 308.785 40.8322 311.361 45.1617C312.664 47.3265 313.653 49.4619 314.457 51.4699C315.27 53.4682 315.818 55.3782 316.269 57.0924C317.101 60.5404 317.395 63.3027 317.493 65.1638C317.581 67.0249 317.562 68.0142 317.562 68.0142V67.975Z" fill="#263238"/>
<path d="M273.12 30.5469V37.8542H272.366V31.213H270.642V30.5469H273.12Z" fill="#263238"/>
<path d="M279.859 37.1883V37.8544H274.736V37.3254L277.773 34.3477C278.596 33.5347 278.753 33.0449 278.753 32.5453C278.753 31.7029 278.155 31.174 277.038 31.174C276.186 31.174 275.52 31.4385 275.04 31.987L274.511 31.5266C275.079 30.8605 275.98 30.4785 277.097 30.4785C278.576 30.4785 279.517 31.2328 279.517 32.4474C279.517 33.1428 279.301 33.7697 278.312 34.7297L275.824 37.1687H279.84L279.859 37.1883Z" fill="#263238"/>
<path d="M292.76 35.9844V43.2917H292.006V36.6505H290.282V35.9844H292.76Z" fill="#263238"/>
<path d="M255.734 35.9844V43.2917H254.979V36.6505H253.255V35.9844H255.734Z" fill="#263238"/>
<path d="M259.505 35.9844V43.2917H258.75V36.6505H257.027V35.9844H259.505Z" fill="#263238"/>
<path d="M306.659 53.0086V53.6747H301.536V53.1458L304.573 50.168C305.396 49.355 305.553 48.8652 305.553 48.3656C305.553 47.5232 304.955 46.9943 303.838 46.9943C302.986 46.9943 302.32 47.2588 301.84 47.8073L301.311 47.3469C301.879 46.6808 302.78 46.2988 303.897 46.2988C305.376 46.2988 306.317 47.0531 306.317 48.2677C306.317 48.9632 306.101 49.5901 305.112 50.55L302.624 52.989H306.64L306.659 53.0086Z" fill="#263238"/>
<path d="M242.03 47.2197V54.527H241.276V47.8858H239.552V47.2197H242.03Z" fill="#263238"/>
<path d="M243.773 50.8736C243.773 48.5423 244.998 47.1611 246.683 47.1611C248.367 47.1611 249.602 48.5521 249.602 50.8736C249.602 53.1951 248.367 54.586 246.683 54.586C244.998 54.586 243.773 53.1951 243.773 50.8736ZM248.838 50.8736C248.838 48.9243 247.956 47.8468 246.683 47.8468C245.409 47.8468 244.528 48.9243 244.528 50.8736C244.528 52.8228 245.409 53.9003 246.683 53.9003C247.956 53.9003 248.838 52.8228 248.838 50.8736Z" fill="#263238"/>
<path d="M309.735 69.6496C309.735 70.874 308.844 71.8144 307.081 71.8144C306.023 71.8144 305.014 71.4519 304.446 70.874L304.808 70.2765C305.278 70.7663 306.121 71.1189 307.071 71.1189C308.285 71.1189 308.952 70.5508 308.952 69.6496C308.952 68.7484 308.334 68.1999 306.983 68.1999H306.464V67.6415L308.491 65.1046H304.749V64.4385H309.451V64.9674L307.384 67.5632C308.952 67.6513 309.735 68.4741 309.735 69.6398V69.6496Z" fill="#263238"/>
<path d="M241.491 68.0248C241.491 70.5128 240.13 71.8058 238.151 71.8058C237.495 71.8058 236.878 71.6882 236.417 71.4042L236.721 70.7969C237.093 71.0515 237.602 71.1397 238.141 71.1397C239.718 71.1397 240.727 70.1308 240.727 68.1423C240.727 67.9758 240.717 67.7701 240.698 67.5448C240.335 68.348 239.473 68.7986 238.464 68.7986C237.015 68.7986 235.996 67.9464 235.996 66.6045C235.996 65.2625 237.073 64.3613 238.494 64.3613C240.433 64.3613 241.491 65.7131 241.491 68.015V68.0248ZM240.463 66.5751C240.463 65.7719 239.797 65.0078 238.533 65.0078C237.475 65.0078 236.75 65.6249 236.75 66.5947C236.75 67.5644 237.455 68.1717 238.592 68.1717C239.728 68.1717 240.472 67.486 240.472 66.5751H240.463Z" fill="#263238"/>
<path d="M247.466 84.3921C247.466 85.6851 246.369 86.4883 244.626 86.4883C242.882 86.4883 241.805 85.6851 241.805 84.3921C241.805 83.5105 242.304 82.9032 243.215 82.5996C242.471 82.3057 242.069 81.7572 242.069 80.9931C242.069 79.8079 243.078 79.0635 244.626 79.0635C246.173 79.0635 247.202 79.8079 247.202 80.9931C247.202 81.7572 246.781 82.3057 246.036 82.5996C246.957 82.9032 247.466 83.5301 247.466 84.3921ZM246.692 84.3823C246.692 83.4812 245.919 82.9228 244.626 82.9228C243.333 82.9228 242.569 83.491 242.569 84.3823C242.569 85.2737 243.333 85.8516 244.626 85.8516C245.919 85.8516 246.692 85.2835 246.692 84.3823ZM244.626 82.3253C245.762 82.3253 246.438 81.816 246.438 81.0225C246.438 80.2291 245.713 79.7002 244.626 79.7002C243.538 79.7002 242.823 80.1997 242.823 81.0127C242.823 81.8258 243.489 82.3253 244.626 82.3253Z" fill="#263238"/>
<path d="M259.152 92.1602V92.6891L256.096 99.4675H255.283L258.29 92.8262H254.529V94.1976H253.784V92.1602H259.152Z" fill="#263238"/>
<path d="M292.838 97.3223C292.838 98.5663 291.976 99.536 290.184 99.536C289.126 99.536 288.127 99.1736 287.559 98.5957L287.921 97.9982C288.391 98.4879 289.224 98.8406 290.164 98.8406C291.408 98.8406 292.064 98.2333 292.064 97.3517C292.064 96.4113 291.477 95.8236 289.625 95.8236H288.068L288.44 92.1602H292.437V92.8262H289.096L288.842 95.1575H289.782C291.986 95.1575 292.819 96.0195 292.819 97.3223H292.838Z" fill="#263238"/>
<path d="M276.088 102.044C276.088 103.415 275.011 104.287 273.59 104.287C271.651 104.287 270.593 102.935 270.593 100.634C270.593 98.1455 271.955 96.8525 273.933 96.8525C274.59 96.8525 275.207 96.9701 275.667 97.2542L275.363 97.8615C274.991 97.6068 274.482 97.5186 273.943 97.5186C272.366 97.5186 271.357 98.5275 271.357 100.516C271.357 100.683 271.367 100.888 271.386 101.114C271.749 100.31 272.611 99.8597 273.62 99.8597C275.07 99.8597 276.088 100.712 276.088 102.054V102.044ZM275.344 102.064C275.344 101.104 274.639 100.487 273.502 100.487C272.366 100.487 271.622 101.172 271.622 102.083C271.622 102.886 272.288 103.65 273.551 103.65C274.609 103.65 275.334 103.033 275.334 102.064H275.344Z" fill="#263238"/>
<path d="M306.659 84.5105H305.2V86.4304H304.446V84.5105H300.322V83.9717L304.191 79.123H305.024L301.282 83.8444H304.455V82.1498H305.19V83.8444H306.65V84.5105H306.659Z" fill="#263238"/>
<path d="M268.458 44.6037C268.35 44.8388 271.71 71.8151 271.71 71.8151L274.658 71.4527C274.658 71.4527 269.545 44.6527 269.427 44.5352L268.458 44.6037Z" fill="#263238"/>
<path d="M274.345 70.3067L273.728 67.3975L239.385 74.9497L239.512 75.9684L274.345 70.3067Z" fill="#263238"/>
<path d="M262.159 62.9505C262.042 63.166 262.11 63.4305 262.326 63.5578L268.007 66.8686L268.105 66.6923L289.909 79.1226C289.909 79.1226 290.076 78.9365 290.076 78.8875C290.076 78.8385 268.35 66.2711 268.35 66.2711L268.458 66.085L262.776 62.784C262.561 62.6566 262.287 62.735 262.169 62.9505H262.159Z" fill="#FF725E"/>
<path d="M272.954 69.4839C272.562 69.768 272.013 69.6896 271.729 69.2978C271.445 68.906 271.524 68.3574 271.915 68.0734C272.307 67.7893 272.856 67.8677 273.14 68.2595C273.424 68.6513 273.346 69.1998 272.954 69.4839Z" fill="#455A64"/>
<path d="M7.51016 201.457H53.656L50.208 225.485C50.208 225.485 47.2008 237.318 40.1776 237.318H20.1755C20.1755 237.318 12.0944 232.998 10.4586 224.368L7.51016 201.457Z" fill="#3B6738"/>
<path d="M50.1786 213.848C50.4039 213.789 50.6292 213.74 50.8545 213.691C50.9035 213.682 51.2953 213.613 50.9426 213.672C50.5704 213.731 51.0504 213.672 51.1484 213.662C51.6577 213.623 52.1475 213.662 52.647 213.682C52.1573 213.672 52.5785 213.672 52.8233 213.721C53.0878 213.77 53.3523 213.838 53.607 213.907C53.8323 213.966 54.0478 214.054 54.2633 214.113C54.5669 214.201 54.1751 214.073 54.1359 214.054C54.2731 214.113 54.42 214.181 54.5571 214.24C55.0077 214.455 55.4191 214.72 55.8403 214.984C56.1048 215.151 55.7619 214.935 55.7326 214.906C55.8207 214.984 55.9089 215.053 55.997 215.122C56.1929 215.288 56.3888 215.474 56.575 215.66C56.7121 215.797 57.006 216.17 56.7317 215.797C56.8884 216.013 57.0451 216.219 57.1823 216.444C57.2998 216.64 57.3978 216.846 57.5153 217.041C57.672 217.296 57.4859 216.963 57.4663 216.924C57.5251 217.061 57.5741 217.198 57.623 217.345C57.7112 217.59 57.7798 217.845 57.8484 218.099C57.8777 218.197 57.9953 218.824 57.9463 218.521C57.8973 218.217 57.9659 218.844 57.9757 218.952C57.9855 219.216 57.9855 219.471 57.9757 219.735C57.9757 219.882 57.9561 220.029 57.9463 220.186C57.9463 220.235 57.8777 220.607 57.9463 220.284C58.0051 219.98 57.8679 220.607 57.8484 220.705C57.7994 220.92 57.7308 221.136 57.6622 221.351C57.6035 221.518 57.3488 222.115 57.5643 221.665C57.3488 222.106 57.1039 222.527 56.8198 222.928C56.7513 223.017 56.6827 223.115 56.6141 223.203C56.6435 223.164 56.8982 222.909 56.6827 223.105C56.4574 223.31 56.2615 223.536 56.0362 223.741C55.9578 223.81 55.4583 224.182 55.6934 224.025C55.9383 223.869 55.3995 224.202 55.3114 224.251C55.1155 224.368 54.9097 224.476 54.704 224.574C54.5963 224.623 54.4984 224.672 54.3906 224.721C54.7334 224.554 54.5571 224.662 54.3024 224.75C53.7833 224.927 53.2641 225.015 52.7352 225.142C52.4217 225.221 52.8625 225.132 52.9017 225.132C52.745 225.142 52.5981 225.162 52.4413 225.172C52.1377 225.191 51.8242 225.191 51.5108 225.191C51.3932 225.191 51.2757 225.181 51.1679 225.172C51.0994 225.172 50.5998 225.113 50.9622 225.162C51.3149 225.211 50.9328 225.162 50.8741 225.142C50.7271 225.113 50.5704 225.083 50.4235 225.054C50.1198 224.985 49.8358 224.897 49.5419 224.799C49.4929 224.79 49.1403 224.643 49.444 224.77C49.7868 224.917 49.1501 224.623 49.1501 224.623C47.8571 223.996 46.0744 224.261 45.3397 225.563C44.6638 226.768 44.9577 228.492 46.3388 229.168C51.7361 231.793 58.8181 230.197 61.9428 225.123C63.4807 222.635 63.8921 219.627 63.2554 216.826C62.6285 214.044 60.6988 211.664 58.1912 210.155C55.4191 208.48 51.883 207.981 48.7191 208.804C47.3184 209.166 46.3095 210.694 46.7796 212.046C47.24 213.407 48.6995 214.279 50.1982 213.887L50.1786 213.848Z" fill="#3B6738"/>
<path d="M89.7812 124.937C107.682 124.937 122.194 110.425 122.194 92.5241C122.194 74.623 107.682 60.1113 89.7812 60.1113C71.8801 60.1113 57.3684 74.623 57.3684 92.5241C57.3684 110.425 71.8801 124.937 89.7812 124.937Z" fill="white"/>
<path d="M122.184 92.5244C122.184 92.5244 122.164 92.348 122.135 91.9954C122.116 91.633 122.076 91.1236 122.037 90.4575C122.018 90.1147 121.998 89.7425 121.969 89.3213C121.929 88.9099 121.841 88.4593 121.763 87.9695C121.685 87.4798 121.606 86.9508 121.508 86.3925C121.44 85.8244 121.234 85.2464 121.087 84.6293C120.519 82.1217 119.343 79.1635 117.502 76.029C115.641 72.9043 112.957 69.6425 109.293 66.8704C108.833 66.5276 108.373 66.1847 107.903 65.8321C107.413 65.5089 106.894 65.215 106.384 64.9015C105.865 64.6077 105.366 64.2453 104.807 63.9906C104.259 63.7261 103.7 63.4616 103.132 63.1874C102.848 63.0502 102.564 62.9229 102.28 62.7858C101.986 62.678 101.682 62.5703 101.389 62.4625C100.791 62.247 100.184 62.0217 99.5765 61.7964C98.9594 61.5907 98.3129 61.4634 97.6762 61.2871C97.0297 61.1401 96.393 60.9148 95.7269 60.8463C94.3948 60.6602 93.043 60.3859 91.6521 60.3761C90.9566 60.3565 90.2611 60.2879 89.5461 60.2977C88.8408 60.3369 88.1257 60.3663 87.4107 60.4055C87.0483 60.4349 86.6956 60.4251 86.3332 60.4741C85.9806 60.5328 85.6181 60.5818 85.2557 60.6406C84.5407 60.7581 83.806 60.8463 83.0909 60.9932C81.6706 61.385 80.1915 61.6691 78.7908 62.2568C77.3411 62.7172 75.9893 63.4322 74.5886 64.1081C73.9127 64.4803 73.2564 64.9113 72.5806 65.3031C72.2475 65.5186 71.8949 65.695 71.5814 65.93L70.6313 66.6451C69.3187 67.5463 68.1727 68.6727 66.9776 69.7502C66.4389 70.3477 65.8904 70.9453 65.3418 71.5526L64.9304 72.0031L64.5582 72.4929L63.8235 73.4822L63.0791 74.4716L62.4326 75.5295L61.7861 76.5972L61.4629 77.1359L61.1886 77.704C60.8262 78.4583 60.4637 79.2125 60.0915 79.9766C59.7977 80.77 59.5136 81.5634 59.2197 82.3666C58.1716 85.5991 57.6035 89.0372 57.5545 92.5342C57.6035 96.0311 58.1618 99.4692 59.2197 102.702C59.5136 103.505 59.8075 104.298 60.0915 105.092C60.4539 105.856 60.8262 106.61 61.1886 107.364L61.4629 107.932L61.7861 108.471L62.4326 109.539L63.0791 110.597L63.8235 111.586L64.5582 112.575L64.9304 113.065L65.3418 113.516C65.8904 114.123 66.4389 114.721 66.9776 115.318C68.1727 116.405 69.3187 117.522 70.6313 118.423L71.5814 119.138C71.8949 119.373 72.2475 119.559 72.5806 119.765C73.2564 120.167 73.9029 120.598 74.5886 120.96C75.9893 121.626 77.3509 122.341 78.7908 122.812C80.1915 123.399 81.6706 123.683 83.0909 124.075C83.8158 124.222 84.5407 124.31 85.2557 124.428C85.6181 124.487 85.9708 124.535 86.3332 124.594C86.6956 124.643 87.0483 124.643 87.4107 124.663C88.1257 124.702 88.8408 124.741 89.5461 124.771C90.2513 124.78 90.9566 124.712 91.6521 124.692C93.0528 124.692 94.3948 124.408 95.7269 124.222C96.4028 124.153 97.0297 123.928 97.6762 123.781C98.3129 123.605 98.9594 123.478 99.5765 123.272C100.184 123.047 100.791 122.831 101.389 122.606C101.692 122.498 101.986 122.39 102.28 122.283C102.564 122.145 102.848 122.008 103.132 121.881C103.7 121.607 104.259 121.342 104.807 121.078C105.366 120.823 105.855 120.461 106.384 120.167C106.894 119.853 107.413 119.559 107.903 119.236C108.373 118.884 108.843 118.541 109.293 118.198C112.957 115.426 115.641 112.164 117.502 109.039C119.353 105.905 120.519 102.947 121.087 100.439C121.234 99.8121 121.44 99.2342 121.508 98.6758C121.596 98.1175 121.685 97.5885 121.753 97.0988C121.822 96.609 121.91 96.1584 121.959 95.747C121.978 95.3356 122.008 94.9536 122.027 94.6108C122.067 93.9447 122.106 93.4353 122.125 93.0729C122.145 92.7301 122.174 92.5439 122.174 92.5439C122.174 92.5439 122.174 92.7203 122.174 93.0729C122.165 93.4353 122.145 93.9447 122.116 94.6108C122.106 94.9536 122.086 95.3258 122.067 95.747C122.027 96.1682 121.949 96.6188 121.88 97.1086C121.812 97.5983 121.734 98.1273 121.645 98.6954C121.587 99.2635 121.381 99.8415 121.234 100.478C120.685 102.996 119.53 105.983 117.688 109.147C115.827 112.301 113.143 115.602 109.46 118.413C109 118.756 108.529 119.109 108.059 119.471C107.569 119.795 107.05 120.098 106.531 120.412C106.002 120.715 105.512 121.078 104.944 121.332C104.386 121.597 103.828 121.871 103.26 122.145C102.975 122.283 102.691 122.42 102.398 122.557C102.094 122.665 101.8 122.782 101.496 122.89C100.889 123.115 100.282 123.34 99.6646 123.566C99.0475 123.771 98.3912 123.909 97.7448 124.085C97.0983 124.232 96.4518 124.467 95.7759 124.535C94.4339 124.731 93.0724 125.015 91.6618 125.025C90.9566 125.055 90.2513 125.123 89.5363 125.113C88.8212 125.074 88.1062 125.045 87.3813 125.006C87.0189 124.986 86.6564 124.986 86.294 124.937C85.9316 124.878 85.5692 124.829 85.2067 124.771C84.4819 124.653 83.7472 124.565 83.0126 124.418C81.5727 124.026 80.0838 123.742 78.6635 123.154C77.204 122.684 75.8228 121.969 74.4123 121.293C73.7266 120.921 73.0605 120.49 72.3847 120.088C72.0516 119.873 71.699 119.697 71.3757 119.452L70.4158 118.737C69.0934 117.826 67.9278 116.689 66.7132 115.592C66.1646 114.985 65.6063 114.378 65.0578 113.77L64.6365 113.31L64.2643 112.81L63.5199 111.811L62.7656 110.812L62.1094 109.745L61.4531 108.667L61.12 108.128L60.8458 107.56C60.4735 106.796 60.1111 106.032 59.7389 105.258C59.445 104.455 59.1512 103.652 58.8573 102.839C57.7896 99.5672 57.2215 96.0899 57.1725 92.5537C57.2215 89.0176 57.7896 85.5403 58.8573 82.2687C59.1512 81.4654 59.445 80.6524 59.7389 79.859C60.1111 79.0852 60.4833 78.3211 60.8458 77.5571L61.1298 76.989L61.4629 76.4502L62.1192 75.3727L62.7754 74.3051L63.5297 73.3059L64.2741 72.3068L64.6464 71.8072L65.0675 71.3469C65.6259 70.7396 66.1744 70.1322 66.723 69.5249C67.9376 68.4279 69.0934 67.2916 70.4256 66.3904L71.3855 65.6754C71.699 65.4305 72.0614 65.2542 72.3944 65.0387C73.0801 64.6371 73.7364 64.2061 74.4221 63.8339C75.8326 63.158 77.2137 62.4429 78.6733 61.9727C80.0936 61.385 81.5825 61.0912 83.0224 60.7091C83.7472 60.5622 84.4917 60.4741 85.2165 60.3565C85.579 60.2977 85.9414 60.2488 86.3038 60.19C86.6662 60.141 87.0287 60.141 87.3911 60.1214C88.116 60.0822 88.831 60.0529 89.5461 60.0137C90.2611 60.0137 90.9664 60.0724 91.6717 60.1018C93.0822 60.1116 94.4437 60.3957 95.7857 60.5916C96.4616 60.6602 97.1081 60.8953 97.7545 61.0422C98.401 61.2185 99.0475 61.3556 99.6744 61.5613C100.292 61.7866 100.899 62.0119 101.506 62.2372C101.81 62.345 102.113 62.4625 102.407 62.5703C102.691 62.7074 102.985 62.8445 103.269 62.9817C103.837 63.2559 104.396 63.5302 104.954 63.7947C105.512 64.0493 106.012 64.4216 106.541 64.7154C107.05 65.0387 107.579 65.3325 108.069 65.6558C108.539 66.0084 109.009 66.361 109.47 66.7137C113.153 69.5249 115.847 72.826 117.698 75.9801C119.539 79.1439 120.695 82.1315 121.244 84.6587C121.381 85.2856 121.587 85.8635 121.655 86.4415C121.734 87.0096 121.812 87.5385 121.89 88.0283C121.959 88.5181 122.037 88.9687 122.076 89.3899C122.096 89.8111 122.106 90.1833 122.125 90.5261C122.155 91.1922 122.174 91.7113 122.184 92.0738C122.194 92.4166 122.184 92.6027 122.184 92.6027V92.5244Z" fill="#263238"/>
<path d="M96.1383 82.2198L82.4249 95.61H93.8266L92.8373 100.566H73.0115L73.7952 96.6875L87.5086 83.2973H76.8121L77.8015 78.3408H96.8926L96.1481 82.2198H96.1383Z" fill="#263238"/>
<path d="M108.696 93.6402L100.056 102.074H107.236L106.61 105.199H94.1205L94.6102 102.75L103.25 94.3161H96.5105L97.1374 91.1914H109.156L108.686 93.6402H108.696Z" fill="#263238"/>
<path d="M122.233 116.591C122.233 118.433 120.734 119.931 118.893 119.931C117.051 119.931 115.553 118.433 115.553 116.591C115.553 114.75 117.051 113.251 118.893 113.251C120.734 113.251 122.233 114.75 122.233 116.591Z" fill="white"/>
<path d="M122.233 116.591C122.233 116.591 122.204 116.297 122.057 115.797C121.92 115.308 121.577 114.593 120.832 114.054C120.117 113.505 118.942 113.211 117.815 113.633C116.699 114.024 115.739 115.21 115.749 116.601C115.739 117.992 116.699 119.177 117.815 119.569C118.942 119.99 120.117 119.696 120.832 119.147C121.577 118.599 121.91 117.894 122.057 117.404C122.204 116.904 122.194 116.61 122.233 116.61C122.243 116.61 122.253 116.679 122.262 116.826C122.262 116.963 122.262 117.179 122.204 117.443C122.106 117.962 121.782 118.746 120.999 119.373C120.245 119.99 118.961 120.362 117.698 119.911C116.444 119.5 115.347 118.168 115.367 116.61C115.357 115.053 116.444 113.721 117.698 113.309C118.961 112.859 120.245 113.231 120.999 113.848C121.782 114.465 122.096 115.249 122.204 115.778C122.262 116.042 122.272 116.258 122.262 116.395C122.262 116.532 122.243 116.61 122.233 116.61V116.591Z" fill="#263238"/>
<path d="M107.55 331.44C107.55 331.44 120.96 330.196 127.062 324.103C133.165 318.01 148.289 279.564 148.289 279.564L129.589 261.197L107.55 331.44Z" fill="#FFBF9D"/>
<path d="M245.125 257.201C245.125 257.201 268.438 259.934 276.137 254.214C284.395 248.072 282.024 240.579 282.024 240.579C274.815 239.599 259.221 250.599 245.125 257.201Z" fill="#263238"/>
<path d="M230.383 191.642L215.357 199.586L172.963 225.2L159.426 231.146C159.426 231.146 143.744 236.014 139.492 243.273C135.231 250.531 127.072 262.383 127.072 262.383L147.241 280.191L149.258 329.05L256.517 328.61L243.421 222.82L230.403 191.642H230.383Z" fill="#066937"/>
<path d="M230.383 191.642C230.383 191.642 249.582 183.658 261.689 195.609C273.796 207.559 282.024 240.569 282.024 240.569L241.697 258.524L230.383 191.642Z" fill="#066937"/>
<path d="M141.216 261.197C141.216 261.197 141.373 261.481 141.598 262.02C141.824 262.559 142.118 263.342 142.46 264.322C143.146 266.281 143.988 269.024 144.704 272.109C145.419 275.195 145.859 278.035 146.104 280.092C146.222 281.121 146.3 281.954 146.339 282.541C146.379 283.119 146.388 283.442 146.359 283.442C146.33 283.442 146.271 283.129 146.192 282.561C146.094 281.905 145.977 281.101 145.84 280.141C145.536 278.094 145.046 275.283 144.341 272.207C143.626 269.132 142.833 266.389 142.216 264.42C141.922 263.489 141.667 262.716 141.471 262.089C141.295 261.54 141.207 261.227 141.236 261.217L141.216 261.197Z" fill="#263238"/>
<path d="M271.435 245.32C271.435 245.32 271.386 245.349 271.298 245.398C271.181 245.457 271.044 245.525 270.867 245.604C270.466 245.79 269.907 246.054 269.192 246.378C267.703 247.054 265.588 248.013 262.953 249.209C257.614 251.599 250.199 254.919 241.765 258.69L241.56 258.779L241.501 258.563C240.962 256.418 240.433 254.175 239.992 251.863C238.944 246.515 238.249 241.372 237.612 236.7C236.985 232.027 236.417 227.825 235.839 224.309C235.271 220.792 234.703 217.961 234.292 216.012C234.076 215.062 233.91 214.318 233.792 213.769C233.743 213.534 233.704 213.338 233.665 213.181C233.635 213.044 233.626 212.976 233.635 212.976C233.635 212.976 233.665 213.034 233.704 213.172C233.743 213.318 233.802 213.514 233.861 213.749C233.998 214.259 234.203 215.003 234.439 215.973C234.889 217.912 235.506 220.733 236.114 224.25C236.721 227.767 237.318 231.969 237.965 236.641C238.621 241.304 239.326 246.446 240.374 251.775C240.815 254.077 241.334 256.32 241.873 258.455L241.609 258.328C250.062 254.606 257.497 251.324 262.845 248.964C265.499 247.818 267.625 246.887 269.124 246.241C269.839 245.937 270.407 245.702 270.818 245.525C270.995 245.457 271.142 245.398 271.259 245.349C271.357 245.31 271.416 245.29 271.416 245.3L271.435 245.32Z" fill="#263238"/>
<path d="M134.742 279.662C135.349 280.583 157.957 307.461 161.013 308.686C164.069 309.91 247.457 296.775 247.457 296.775L245.125 257.211L276.088 243.233C276.088 243.233 281.975 283.639 281.672 291.887C281.368 300.134 277.391 325.181 274.648 327.63C271.896 330.069 150.933 327.63 150.933 327.63C150.933 327.63 137.494 319.686 132.91 308.999C128.326 298.313 127.317 293.826 127.317 293.826L114.152 281.2C114.152 281.2 113.349 272.708 119.921 273.285C126.494 273.863 134.742 279.672 134.742 279.672V279.662Z" fill="#FFBF9D"/>
<path d="M258.897 309.187C258.829 309.206 258.584 308.227 257.947 306.757C257.634 306.023 257.183 305.18 256.625 304.279C256.047 303.388 255.361 302.457 254.539 301.546C253.706 300.655 252.834 299.881 251.992 299.235C251.14 298.608 250.336 298.088 249.631 297.716C248.221 296.952 247.27 296.629 247.29 296.56C247.29 296.531 247.545 296.6 247.976 296.737C248.407 296.864 249.024 297.119 249.758 297.471C250.493 297.824 251.326 298.324 252.207 298.95C253.069 299.597 253.98 300.371 254.823 301.282C255.665 302.203 256.36 303.162 256.929 304.083C257.477 305.014 257.908 305.886 258.202 306.65C258.496 307.404 258.692 308.041 258.79 308.481C258.888 308.922 258.937 309.167 258.907 309.177L258.897 309.187Z" fill="#FF9A6C"/>
<path d="M161.013 308.676C161.013 308.676 160.885 308.588 160.68 308.402C160.445 308.177 160.141 307.903 159.779 307.55C158.995 306.805 157.888 305.718 156.526 304.357C153.803 301.634 150.111 297.813 146.183 293.454C141.109 287.842 136.936 282.68 134.663 279.721L134.703 279.751C133.772 279.32 133.028 278.967 132.469 278.712C131.96 278.468 131.686 278.33 131.695 278.311C131.695 278.291 131.989 278.399 132.508 278.615C133.076 278.85 133.841 279.173 134.781 279.565H134.8L134.82 279.594C137.171 282.484 141.403 287.597 146.467 293.2C150.395 297.559 154.048 301.408 156.722 304.171C158.035 305.522 159.103 306.639 159.886 307.452C160.229 307.814 160.513 308.118 160.738 308.353C160.934 308.559 161.023 308.676 161.013 308.686V308.676Z" fill="#FF9A6C"/>
<path d="M135.369 314.063C135.369 314.063 135.153 313.838 134.83 313.387C134.516 312.927 134.085 312.241 133.625 311.37C132.675 309.626 131.588 307.099 130.52 304.268C129.472 301.427 128.639 298.822 128.091 296.922C127.816 295.971 127.611 295.198 127.483 294.659C127.356 294.12 127.297 293.816 127.327 293.807C127.356 293.807 127.464 294.091 127.63 294.61C127.826 295.217 128.071 295.962 128.355 296.833C128.962 298.714 129.834 301.3 130.882 304.131C131.94 306.952 132.988 309.479 133.86 311.242C134.722 313.015 135.418 314.024 135.369 314.063Z" fill="#FF9A6C"/>
<g opacity="0.2">
<path d="M128.757 179.495C128.845 179.916 142.529 185.578 143.068 182.532C143.606 179.476 143.518 175.195 141.197 174.656C138.875 174.118 127.689 174.607 128.767 179.495H128.757Z" fill="white"/>
</g>
<path d="M223.007 103.63C223.007 103.63 223.007 103.816 222.988 104.179C222.949 104.531 222.851 105.06 222.596 105.697C222.106 106.97 220.774 108.626 218.521 109.664C216.288 110.751 213.173 110.771 210.087 109.879C206.963 109.047 203.828 107.352 200.341 106.206C198.597 105.648 196.824 105.285 195.11 105.295C193.396 105.295 191.75 105.697 190.301 106.314C187.372 107.558 185.325 109.762 184.228 111.878C183.101 114.003 182.807 115.982 182.739 117.324C182.68 118.676 182.817 119.41 182.778 119.42C182.768 119.42 182.729 119.234 182.68 118.881C182.631 118.529 182.592 118 182.592 117.314C182.611 115.962 182.866 113.944 183.993 111.75C185.08 109.576 187.166 107.274 190.164 105.981C191.653 105.325 193.337 104.923 195.11 104.903C196.883 104.884 198.695 105.256 200.468 105.824C204.004 106.99 207.119 108.684 210.195 109.517C213.232 110.418 216.239 110.418 218.423 109.399C220.627 108.43 221.949 106.853 222.469 105.628C223.017 104.394 222.949 103.61 223.017 103.62L223.007 103.63Z" fill="#263238"/>
<path d="M231.098 140.588C239.728 133.232 240.717 118.578 233.155 110.125C229.678 115.62 221.783 116.179 215.475 114.572C209.167 112.975 203.074 109.841 196.58 110.145C187.852 110.556 180.025 118.079 179.271 126.777L208.579 147.612C212.722 151.001 218.482 152.313 223.683 151.06C228.885 149.806 233.41 146.015 235.555 141.108C234.086 141.558 232.43 141.362 231.098 140.588Z" fill="#263238"/>
<path d="M174.227 122.545C175.931 122.143 177.626 123.201 178.027 124.906C178.429 126.61 177.371 128.305 175.667 128.706C173.962 129.108 172.268 128.05 171.866 126.346C171.464 124.641 172.522 122.947 174.227 122.545Z" fill="#FF725E"/>
<path d="M198.891 88.7984L193.396 91.8937L173.061 122.759L178.448 126.138L198.607 95.4396L199.303 89.0726C199.322 88.8669 199.068 88.7004 198.891 88.7984Z" fill="#FF725E"/>
<g opacity="0.7">
<path d="M198.607 95.4295C198.304 95.4099 198.039 95.1846 198.068 94.9202C197.696 95.2434 197.04 95.263 196.531 94.9789C196.021 94.6949 195.678 94.1169 195.727 93.6174C195.228 93.7643 194.601 93.6272 194.141 93.2745C193.68 92.9219 193.406 92.3538 193.445 91.8542L198.862 88.8079C199.048 88.7001 199.332 88.8862 199.303 89.1017L198.607 95.4295Z" fill="white"/>
</g>
<path d="M196.991 90.023C197.069 90.3561 197.402 91.1691 198.842 91.3356C198.96 91.3454 199.068 91.2768 199.077 91.1691L199.312 89.0337C199.332 88.8378 199.087 88.6811 198.921 88.779L197.079 89.8173C197.011 89.8565 196.971 89.9349 196.991 90.023Z" fill="#FF725E"/>
<g opacity="0.3">
<path d="M195.718 93.6186L175.813 124.209L173.159 122.623L193.396 91.8946L193.445 91.8652C193.445 91.8652 193.406 92.1591 193.543 92.5117C193.641 92.7468 193.817 93.0309 194.101 93.2562C194.464 93.55 194.846 93.6676 195.159 93.6872C195.492 93.7068 195.727 93.6284 195.727 93.6284L195.718 93.6186Z" fill="black"/>
</g>
<g opacity="0.3">
<path d="M198.068 94.9209L177.792 125.708L178.429 126.178L198.607 95.44C198.607 95.44 198.176 95.4303 198.068 95.0286C198.068 94.9993 198.068 94.9601 198.068 94.9209Z" fill="black"/>
</g>
<path d="M172.959 122.603L171.846 124.215C171.794 124.291 171.813 124.395 171.889 124.447L177.129 128.063C177.205 128.116 177.308 128.097 177.361 128.021L178.473 126.409C178.526 126.333 178.507 126.229 178.431 126.177L173.191 122.561C173.115 122.508 173.011 122.527 172.959 122.603Z" fill="#E0E0E0"/>
<path d="M173.178 122.554C173.178 122.554 173.168 122.554 173.139 122.534C173.11 122.534 173.061 122.524 173.012 122.554C172.963 122.583 172.933 122.652 172.884 122.72C172.835 122.789 172.777 122.877 172.718 122.965C172.591 123.151 172.434 123.377 172.258 123.641C172.169 123.768 172.071 123.915 171.973 124.062C171.944 124.101 171.924 124.141 171.895 124.18C171.866 124.219 171.836 124.248 171.836 124.288C171.836 124.327 171.836 124.366 171.876 124.395C171.905 124.425 171.954 124.454 171.993 124.474C173.315 125.385 175.137 126.638 177.155 128.02C177.204 128.049 177.273 128.049 177.312 128.01C177.351 127.961 177.4 127.892 177.439 127.833C177.527 127.706 177.606 127.589 177.694 127.461C177.86 127.216 178.027 126.971 178.193 126.736C178.272 126.619 178.36 126.501 178.438 126.384C178.478 126.335 178.468 126.276 178.438 126.237C178.438 126.227 178.419 126.217 178.409 126.207L178.37 126.178L178.282 126.119C178.056 125.962 177.831 125.806 177.616 125.659C176.744 125.052 175.96 124.513 175.304 124.052C174.648 123.592 174.119 123.22 173.746 122.965C173.57 122.838 173.433 122.74 173.325 122.661C173.286 122.632 173.247 122.603 173.217 122.583C173.198 122.564 173.178 122.554 173.178 122.554C173.178 122.554 173.188 122.554 173.217 122.573C173.247 122.593 173.286 122.613 173.335 122.642C173.443 122.71 173.58 122.808 173.766 122.926C174.138 123.181 174.677 123.543 175.333 123.994C175.999 124.444 176.783 124.983 177.655 125.58C177.87 125.727 178.096 125.884 178.321 126.041L178.409 126.1L178.448 126.129C178.448 126.129 178.478 126.158 178.497 126.178C178.556 126.247 178.546 126.354 178.497 126.423C178.419 126.54 178.34 126.658 178.252 126.776C178.086 127.011 177.919 127.255 177.753 127.5C177.665 127.618 177.586 127.745 177.498 127.873C177.449 127.941 177.42 127.99 177.361 128.069C177.292 128.137 177.175 128.147 177.096 128.098C175.088 126.707 173.276 125.453 171.954 124.532C171.915 124.503 171.876 124.483 171.827 124.444C171.787 124.405 171.768 124.346 171.778 124.288C171.778 124.229 171.827 124.19 171.846 124.15C171.876 124.111 171.895 124.072 171.924 124.043C172.032 123.896 172.12 123.759 172.218 123.621C172.404 123.367 172.561 123.141 172.689 122.955C172.757 122.867 172.806 122.779 172.865 122.71C172.914 122.642 172.953 122.573 173.012 122.544C173.071 122.515 173.12 122.524 173.149 122.544C173.178 122.554 173.188 122.573 173.188 122.573L173.178 122.554Z" fill="#263238"/>
<path d="M176.558 127.608C176.558 127.608 176.793 127.168 177.136 126.648C177.479 126.129 177.773 125.728 177.792 125.737C177.812 125.747 177.557 126.178 177.214 126.697C176.871 127.217 176.587 127.618 176.558 127.608Z" fill="#263238"/>
<path d="M174.521 126.295C174.521 126.295 174.765 125.835 175.089 125.286C175.412 124.738 175.676 124.297 175.696 124.307C175.716 124.317 175.49 124.787 175.167 125.335C174.844 125.884 174.54 126.305 174.521 126.295Z" fill="#263238"/>
<path d="M173.463 122.76C173.463 122.76 173.228 123.211 172.885 123.739C172.552 124.268 172.258 124.68 172.238 124.67C172.219 124.66 172.473 124.219 172.816 123.69C173.159 123.162 173.443 122.75 173.463 122.76Z" fill="#263238"/>
<path d="M200.37 132.732C187.343 117.363 163.432 103.64 133.664 123.857C105.081 143.262 107.481 168.054 130.393 198.723C153.294 229.392 174.834 218.951 174.834 218.951L199.489 191.72C211.459 176.419 211.929 146.377 200.37 132.742V132.732Z" fill="#263238"/>
<path d="M163.403 229.402C163.403 229.402 173.374 260.326 197.902 253.126C215.475 247.964 219.138 235.103 218.237 219.567C217.493 206.687 212.262 201.515 212.262 201.515L173.717 224.132L163.413 229.412L163.403 229.402Z" fill="#FFBF9D"/>
<path d="M168.682 126.178L138.288 128.284L131.989 132.261C117.012 139.52 114.602 161.03 120.343 173.235C126.719 186.792 132.792 200.858 139.718 209.781C153.637 227.717 172.424 220.654 172.424 220.654C172.424 220.654 181.691 239.824 184.796 246.612L215.788 222.241L178.732 129.793C176.832 126.169 172.473 124.591 168.692 126.178H168.682Z" fill="#FFBF9D"/>
<path d="M173.708 223.407C173.708 223.407 187.401 216.991 196.168 201.926C196.168 201.926 196.638 219.401 175.96 228.373L173.708 223.417V223.407Z" fill="#FF9A6C"/>
<path d="M143.224 182.276C142.793 182.022 141.344 184.196 138.581 185.107C135.839 186.057 133.321 185.215 133.135 185.666C133.037 185.871 133.576 186.41 134.673 186.802C135.76 187.194 137.455 187.37 139.179 186.802C140.893 186.224 142.118 185.068 142.725 184.098C143.352 183.119 143.43 182.384 143.215 182.276H143.224Z" fill="#263238"/>
<path d="M156.556 191.043C156.487 190.886 154.636 191.513 151.717 192.669C150.982 192.972 150.257 193.198 149.875 192.796C149.435 192.385 149.317 191.483 149.209 190.484C148.935 188.447 148.661 186.321 148.357 184.088C147.074 175.017 145.742 167.71 145.379 167.769C145.017 167.828 145.752 175.223 147.035 184.294C147.368 186.517 147.681 188.643 147.985 190.68C148.151 191.611 148.191 192.757 149.121 193.599C149.591 194.011 150.306 194.109 150.816 193.981C151.335 193.873 151.727 193.668 152.079 193.501C154.91 192.14 156.624 191.209 156.546 191.052L156.556 191.043Z" fill="#263238"/>
<path d="M167.889 195.059C167.438 194.373 166.714 193.913 165.979 193.717C164.51 193.325 162.942 193.972 162.188 195.275C161.444 196.577 161.561 198.468 162.472 199.839C163.511 200.398 164.755 200.525 165.861 200.104C166.038 200.035 166.204 199.967 166.371 199.878C167.164 199.467 167.85 198.801 168.183 197.919C168.516 197.028 168.438 195.911 167.889 195.059Z" fill="#FF9A6C"/>
<path d="M124.427 167.583C125.25 167.994 127.082 166.407 129.619 165.281C132.117 164.066 134.516 163.684 134.722 162.793C134.8 162.371 134.183 161.872 132.969 161.666C131.774 161.46 130.011 161.627 128.277 162.44C126.543 163.243 125.279 164.487 124.672 165.526C124.055 166.574 124.045 167.367 124.417 167.583H124.427Z" fill="#263238"/>
<path d="M161.62 174.118C161.747 173.618 164.431 173.941 167.125 172.403C169.829 170.905 171.014 168.397 171.494 168.564C171.719 168.632 171.739 169.396 171.239 170.513C170.749 171.62 169.652 173.04 167.967 173.99C166.283 174.931 164.529 175.117 163.354 174.95C162.169 174.784 161.552 174.353 161.62 174.127V174.118Z" fill="#263238"/>
<path d="M159.387 150.49C159.161 151.392 156.693 151.813 154.117 153.067C151.492 154.242 149.591 155.868 148.759 155.457C148.377 155.251 148.406 154.448 149.053 153.38C149.689 152.322 151.012 151.049 152.804 150.216C154.597 149.384 156.409 149.188 157.624 149.384C158.858 149.57 159.475 150.069 159.387 150.5V150.49Z" fill="#263238"/>
<path d="M145.086 174.773C145.086 174.773 145.007 174.214 142.441 173.068C139.874 171.922 134.252 170.659 128.267 173.92C122.282 177.182 120.96 181.522 120.382 183.236C119.804 184.95 117.796 185.322 117.796 185.322L118.129 187.624C118.129 187.624 119.108 187.634 120.254 187.732C121.4 187.82 121.342 188.682 124.907 192.806C128.473 196.92 135.026 197.723 137.073 197.077C139.13 196.42 145.076 194.834 146.555 186.174C147.838 178.642 145.086 174.782 145.086 174.782V174.773ZM133.811 196.234C132.567 196.068 128.296 195.294 125.612 192.199C124.222 190.592 123.379 189.475 122.821 188.731C122.821 188.731 121.685 186.762 121.449 185.704C121.449 185.694 121.449 185.685 121.449 185.675C121.175 184.392 121.381 183.05 121.9 181.845C122.752 179.866 124.525 177.035 128.718 174.743C132.508 172.676 136.035 172.608 138.327 172.902C138.327 172.902 142.862 173.872 144.047 176.036C144.067 176.066 146.849 179.024 145.654 186.018C144.322 193.825 139.208 195.431 137.034 196.117C135.261 196.479 133.831 196.234 133.831 196.234H133.811Z" fill="#263238"/>
<path d="M158.28 179.338C165.822 183.834 170.896 180.337 172.728 179.201C174.56 178.065 178.194 172.56 177.381 167.172C176.568 161.785 175.872 161.275 176.548 160.335C177.224 159.404 177.851 158.65 177.851 158.65L176.313 156.907C176.313 156.907 174.726 158.2 173.041 157.524C171.366 156.848 167.203 155.036 160.836 157.475C154.469 159.914 151.786 165.007 150.992 167.711C150.199 170.414 150.571 170.836 150.571 170.836C150.571 170.836 151.727 175.439 158.29 179.348L158.28 179.338ZM172.033 178.525C170.093 179.74 165.558 182.59 158.75 178.525C152.648 174.891 152.207 170.865 152.197 170.826C151.325 168.524 153.529 164.439 153.529 164.439C154.783 162.5 157.124 159.865 161.16 158.327C165.626 156.623 168.927 157.112 170.984 157.749C172.248 158.131 173.394 158.846 174.197 159.894C174.197 159.894 174.207 159.914 174.217 159.924C174.873 160.786 175.627 162.931 175.627 162.931C175.833 163.832 176.137 165.203 176.45 167.3C177.067 171.355 174.814 175.067 174.197 176.154C173.335 177.673 172.023 178.515 172.023 178.515L172.033 178.525Z" fill="#263238"/>
<path d="M151.247 170.532C151.217 170.591 150.757 170.287 149.924 170.209C149.111 170.131 147.907 170.366 146.937 171.179C145.967 171.992 145.438 173.079 145.135 173.863C144.831 174.656 144.723 175.175 144.664 175.165C144.615 175.165 144.635 174.617 144.88 173.774C145.125 172.942 145.634 171.776 146.692 170.885C147.76 169.993 149.092 169.788 149.964 169.944C150.855 170.101 151.276 170.513 151.247 170.532Z" fill="#263238"/>
<path d="M166.146 199.909C166.146 199.909 166.371 199.86 166.743 199.713C167.105 199.566 167.615 199.233 167.958 198.626C168.3 198.028 168.467 197.146 168.222 196.265C167.977 195.383 167.311 194.502 166.351 194.071C165.381 193.64 164.284 193.767 163.481 194.198C162.658 194.629 162.159 195.354 161.924 196.02C161.454 197.382 161.885 198.302 161.796 198.302C161.777 198.302 161.659 198.106 161.571 197.695C161.483 197.293 161.444 196.657 161.659 195.932C161.865 195.217 162.404 194.384 163.305 193.885C164.186 193.395 165.411 193.238 166.508 193.718C167.595 194.208 168.32 195.197 168.565 196.177C168.82 197.166 168.604 198.136 168.193 198.772C167.772 199.429 167.194 199.742 166.792 199.86C166.381 199.977 166.146 199.938 166.146 199.918V199.909Z" fill="#263238"/>
<path d="M192.995 154.203L193.533 160.002C174.481 167.662 123.252 134.26 125.926 135.465C125.926 135.465 133.556 126.13 145.193 122.183C156.83 118.245 179.908 112.652 186.392 125.386C192.867 138.12 193.004 154.203 193.004 154.203H192.995Z" fill="#263238"/>
<path d="M178.997 236.983C178.997 236.983 178.928 236.885 178.821 236.68C178.703 236.444 178.566 236.141 178.39 235.778C178.027 234.985 177.518 233.839 176.94 232.37C175.774 229.441 174.432 225.248 172.258 220.733L172.512 220.821C171.278 221.34 169.975 221.83 168.575 222.065C165.607 222.672 162.688 222.525 160.112 222.173C157.526 221.8 155.263 221.105 153.421 220.4C151.59 219.675 150.179 218.911 149.239 218.352C148.769 218.068 148.416 217.814 148.181 217.657C147.946 217.49 147.818 217.402 147.828 217.393C147.828 217.383 147.975 217.451 148.22 217.598C148.475 217.735 148.827 217.97 149.307 218.235C150.267 218.754 151.688 219.479 153.519 220.165C155.351 220.831 157.604 221.497 160.161 221.84C162.707 222.173 165.587 222.3 168.496 221.712C169.868 221.477 171.151 220.997 172.346 220.507L172.522 220.439L172.601 220.605C173.668 222.878 174.569 225.062 175.294 227.061C176 229.049 176.636 230.822 177.175 232.311C177.724 233.78 178.204 234.946 178.517 235.749C178.664 236.121 178.791 236.425 178.889 236.67C178.968 236.885 179.007 236.993 178.997 237.003V236.983Z" fill="#FF9A6C"/>
<path d="M203.691 138.463C203.691 138.463 203.534 138.316 203.27 138.002C202.996 137.699 202.614 137.238 202.124 136.631C201.144 135.426 199.832 133.604 198.186 131.381C196.54 129.167 194.513 126.532 191.741 124.171C188.959 121.82 185.53 119.675 181.681 117.961C177.831 116.266 173.943 115.101 170.348 114.572C166.733 114.141 163.422 114.298 160.67 114.523C157.917 114.768 155.713 115.169 154.205 115.512C153.451 115.698 152.873 115.845 152.481 115.973C152.089 116.09 151.884 116.149 151.884 116.129C151.884 116.119 152.079 116.041 152.461 115.894C152.843 115.747 153.421 115.571 154.166 115.365C155.665 114.973 157.878 114.523 160.641 114.249C163.403 113.984 166.723 113.798 170.387 114.209C174.041 114.729 177.949 115.884 181.828 117.599C185.707 119.323 189.165 121.497 191.956 123.897C194.758 126.307 196.766 128.981 198.392 131.214C200.008 133.467 201.291 135.299 202.231 136.533C202.682 137.13 203.045 137.601 203.319 137.953C203.564 138.276 203.691 138.453 203.681 138.463H203.691Z" fill="#455A64"/>
<path d="M190.467 164.842C189.664 163.372 189.458 158.994 190.781 157.975C194.307 155.252 202.76 151.109 206.884 161.511C212.252 175.009 198.49 178.908 198.255 178.535C198.068 178.242 193.22 169.906 190.457 164.842H190.467Z" fill="#FFBF9D"/>
<path d="M200.125 172.286C200.165 172.207 200.449 172.315 200.938 172.286C201.418 172.247 202.143 172.002 202.702 171.355C203.828 170.052 203.76 167.153 202.486 164.704C201.84 163.47 200.938 162.451 199.979 161.736C199.028 160.992 198.01 160.659 197.236 160.923C196.442 161.158 196.178 161.864 196.217 162.324C196.247 162.794 196.482 163.019 196.423 163.078C196.403 163.137 196.011 163.019 195.816 162.402C195.727 162.108 195.698 161.707 195.874 161.276C196.051 160.835 196.442 160.443 196.971 160.218C198.039 159.718 199.499 160.149 200.556 160.933C201.673 161.697 202.711 162.814 203.436 164.205C204.857 166.947 204.876 170.229 203.26 171.865C202.457 172.629 201.516 172.785 200.938 172.697C200.341 172.599 200.106 172.335 200.135 172.286H200.125Z" fill="#FF9A6C"/>
<g opacity="0.2">
<path d="M159.377 163.714C159.465 164.135 173.149 169.797 173.688 166.75C174.227 163.694 174.138 159.414 171.817 158.875C169.495 158.336 158.309 158.826 159.387 163.714H159.377Z" fill="white"/>
</g>
<path d="M176.303 156.907L198.029 155.065C196.139 154.997 194.023 155.869 191.76 157.279C190.869 156.868 177.841 158.65 177.841 158.65L176.303 156.907Z" fill="#455A64"/>
<path d="M201.027 175.321C201.027 175.781 200.654 176.153 200.194 176.153C199.734 176.153 199.361 175.781 199.361 175.321C199.361 174.861 199.734 174.488 200.194 174.488C200.654 174.488 201.027 174.861 201.027 175.321Z" fill="white"/>
<path d="M105.934 331.843C105.934 331.843 96.7652 331.803 92.6218 315.416C88.4784 299.028 93.9833 288.488 97.8819 275.235C101.78 261.982 123.271 214.671 123.271 214.671L139.992 221.185C139.992 221.185 128.433 306.443 125.975 316.601C123.516 326.759 115.082 330.971 105.943 331.843H105.934Z" fill="#FFBF9D"/>
<path d="M103.955 198.039L117.786 212.125L122.762 217.875L120.313 223.908L118.168 230.07L137.974 235.947C137.974 235.947 141.589 214.299 141.305 211.165C141.02 208.03 125.848 194.474 125.848 194.474L124.995 190.203C124.995 190.203 130.402 173.688 129.834 170.269C129.266 166.851 127.395 166.185 127.395 166.185C127.395 166.185 129.09 159.524 126.523 159.24C126.523 159.24 125.328 153.764 122.625 155.184C119.921 156.605 117.845 159.818 117.845 159.818L104.229 175.167L103.945 187.607C103.945 187.607 101.585 182.249 99.0181 185.099L103.945 198.039H103.955Z" fill="#FFBF9D"/>
<path d="M122.782 217.443C122.782 217.443 122.664 217.335 122.449 217.11C122.223 216.875 121.91 216.532 121.498 216.091C121.077 215.641 120.568 215.082 119.961 214.426C119.334 213.789 118.599 213.055 117.786 212.222C114.505 208.902 109.754 204.092 103.857 198.127L103.837 198.107V198.078C102.349 194.179 100.674 189.791 98.881 185.06L98.8418 184.962L98.9104 184.893C99.312 184.511 99.7528 184.08 100.389 184.012C101.016 183.933 101.614 184.227 102.064 184.609C102.975 185.393 103.602 186.441 104.102 187.538L103.779 187.607C103.779 183.728 103.779 179.663 103.769 175.441V175.372L103.818 175.323C108.167 170.426 112.849 165.156 117.708 159.68L117.688 159.7C118.717 158.172 119.98 156.741 121.547 155.605C121.959 155.341 122.331 155.057 122.831 154.88C123.066 154.763 123.34 154.753 123.604 154.733L124.006 154.802C124.143 154.831 124.251 154.91 124.378 154.959C125.309 155.497 125.769 156.457 126.151 157.349C126.386 157.946 126.582 158.544 126.719 159.171L126.553 159.014C126.915 159.043 127.278 159.239 127.513 159.514C127.748 159.788 127.885 160.121 127.973 160.444C128.149 161.1 128.169 161.757 128.149 162.403C128.1 163.696 127.885 164.96 127.581 166.194L127.425 165.959C128.688 166.282 129.413 167.379 129.815 168.437C130.011 168.986 130.157 169.534 130.206 170.112C130.265 170.7 130.187 171.258 130.148 171.816C129.844 174.03 129.325 176.156 128.796 178.252C127.709 182.425 126.484 186.421 125.26 190.241V190.153C125.554 191.623 125.848 193.072 126.132 194.493L126.073 194.395C129.002 196.961 131.764 199.498 134.32 201.986C135.594 203.24 136.828 204.474 137.964 205.728C139.101 206.991 140.207 208.226 141.03 209.626C141.226 209.979 141.412 210.371 141.442 210.792C141.442 211.194 141.451 211.595 141.412 211.977C141.363 212.751 141.285 213.515 141.207 214.26C141.04 215.748 140.864 217.179 140.678 218.55C140.305 221.302 139.933 223.83 139.59 226.112C138.895 230.686 138.307 234.281 137.906 236.74C137.7 237.954 137.543 238.895 137.426 239.551C137.367 239.865 137.328 240.1 137.298 240.276C137.269 240.433 137.239 240.521 137.239 240.521C137.239 240.521 137.239 240.433 137.269 240.276C137.298 240.1 137.328 239.865 137.377 239.551C137.475 238.895 137.612 237.954 137.798 236.73C138.17 234.252 138.709 230.647 139.385 226.092C139.718 223.81 140.07 221.273 140.433 218.53C140.609 217.159 140.785 215.729 140.942 214.24C141.02 213.496 141.089 212.741 141.138 211.977C141.177 211.595 141.158 211.213 141.158 210.831C141.128 210.469 140.962 210.126 140.776 209.783C139.982 208.431 138.866 207.197 137.739 205.953C136.593 204.709 135.369 203.485 134.095 202.241C131.539 199.763 128.776 197.235 125.848 194.679L125.799 194.64V194.581C125.505 193.16 125.211 191.711 124.917 190.241V190.192V190.143C126.141 186.333 127.356 182.337 128.433 178.174C128.962 176.097 129.482 173.962 129.775 171.787C129.815 171.248 129.893 170.69 129.834 170.171C129.795 169.642 129.648 169.093 129.462 168.594C129.276 168.084 129.011 167.604 128.659 167.193C128.316 166.791 127.846 166.458 127.376 166.351L127.17 166.302L127.219 166.106C127.513 164.901 127.728 163.647 127.777 162.393C127.797 161.766 127.777 161.13 127.611 160.552C127.464 159.964 127.092 159.445 126.514 159.396H126.376L126.347 159.239C126.21 158.652 126.024 158.054 125.799 157.476C125.436 156.614 124.966 155.713 124.202 155.282C123.418 154.792 122.527 155.399 121.782 155.899C120.264 156.986 119.02 158.407 118.021 159.876V159.896H118.001C113.133 165.361 108.441 170.631 104.092 175.529L104.141 175.411C104.141 179.633 104.141 183.698 104.131 187.577V188.351L103.808 187.636C103.328 186.578 102.711 185.54 101.869 184.825C101.447 184.472 100.948 184.237 100.438 184.296C99.9291 184.345 99.5177 184.717 99.1553 185.07L99.1846 184.903C100.967 189.644 102.623 194.042 104.082 197.941L104.053 197.892C109.911 203.896 114.632 208.725 117.894 212.075C118.707 212.908 119.422 213.652 120.039 214.299C120.636 214.965 121.136 215.523 121.547 215.984C121.949 216.434 122.253 216.777 122.468 217.022C122.674 217.257 122.772 217.384 122.772 217.384L122.782 217.443Z" fill="#FF9A6C"/>
<path d="M294.04 138.405L300.924 130.949L298.708 128.902L291.823 136.358L294.04 138.405Z" fill="#263238"/>
<path d="M349.226 312.269L352.283 313.488L392.025 213.874L388.968 212.655L349.226 312.269Z" fill="#263238"/>
<path d="M343.892 307.701L346.962 308.887L383.648 213.913L380.578 212.727L343.892 307.701Z" fill="#263238"/>
<g opacity="0.3">
<path d="M349.524 302.261L347.339 298.754L346.84 300.037L349.093 303.338L349.524 302.261Z" fill="black"/>
</g>
<path d="M387.076 203.959L389.335 201.565L311.334 127.958L309.075 130.351L387.076 203.959Z" fill="#263238"/>
<path d="M379.423 206.637L381.656 204.219L306.857 135.147L304.624 137.565L379.423 206.637Z" fill="#263238"/>
<g opacity="0.3">
<path d="M311.038 139.022L308.903 141.539L307.61 140.354L309.814 137.896L311.038 139.022Z" fill="black"/>
</g>
<path d="M348.26 301.261L355.489 313.466C356.86 315.777 355.225 318.736 352.58 318.716L337.005 318.618C334.282 318.598 332.695 315.444 334.272 313.162L342.618 301.055C344.019 299.018 346.997 299.125 348.26 301.261Z" fill="#E0E0E0"/>
<path d="M343.206 303.61C343.206 304.688 344.078 305.56 345.155 305.56C346.233 305.56 347.104 304.688 347.104 303.61C347.104 302.533 346.233 301.661 345.155 301.661C344.078 301.661 343.206 302.533 343.206 303.61Z" fill="#263238"/>
<path d="M349.867 314.739C349.867 315.817 350.738 316.689 351.816 316.689C352.893 316.689 353.765 315.817 353.765 314.739C353.765 313.662 352.893 312.79 351.816 312.79C350.738 312.79 349.867 313.662 349.867 314.739Z" fill="#263238"/>
<path d="M336.222 314.66C336.222 315.738 337.094 316.609 338.171 316.609C339.248 316.609 340.12 315.738 340.12 314.66C340.12 313.583 339.248 312.711 338.171 312.711C337.094 312.711 336.222 313.583 336.222 314.66Z" fill="#263238"/>
<path d="M316.474 130.392L307.002 140.952C305.21 142.95 301.899 142.274 301.125 139.757L296.541 124.868C295.738 122.262 298.275 119.813 300.919 120.626L314.976 124.956C317.336 125.681 318.13 128.551 316.474 130.392Z" fill="#E0E0E0"/>
<path d="M316.474 130.392C316.474 130.392 316.66 130.245 316.896 129.872C317.131 129.51 317.424 128.873 317.415 128.021C317.395 127.179 317.013 126.091 316.004 125.367C315.514 124.994 314.868 124.818 314.241 124.612C313.595 124.407 312.919 124.201 312.213 123.976C309.353 123.084 305.974 122.026 302.212 120.851C301.732 120.714 301.282 120.547 300.772 120.42C300.263 120.283 299.715 120.263 299.186 120.371C298.118 120.567 297.138 121.282 296.619 122.291C296.355 122.79 296.218 123.358 296.218 123.936C296.218 124.524 296.423 125.073 296.58 125.592C296.903 126.65 297.236 127.727 297.569 128.814C298.235 130.989 298.892 133.115 299.528 135.162C299.842 136.19 300.155 137.189 300.459 138.179C300.616 138.669 300.763 139.158 300.91 139.638C301.066 140.118 301.272 140.628 301.625 141.019C302.291 141.813 303.3 142.254 304.269 142.273C305.249 142.312 306.199 141.93 306.855 141.304C308.08 140.011 309.118 138.776 310.127 137.66C312.086 135.446 313.683 133.634 314.799 132.36C315.328 131.743 315.75 131.263 316.053 130.911C316.18 130.754 316.288 130.627 316.376 130.529C316.445 130.44 316.484 130.392 316.474 130.392C316.474 130.392 316.425 130.431 316.347 130.509C316.259 130.607 316.141 130.725 316.004 130.871C315.681 131.214 315.25 131.685 314.692 132.282C313.546 133.536 311.929 135.319 309.931 137.503C308.922 138.6 307.835 139.844 306.65 141.088C306.042 141.656 305.171 141.999 304.269 141.96C303.378 141.94 302.467 141.529 301.87 140.804C301.556 140.451 301.38 140.011 301.223 139.54C301.076 139.06 300.929 138.571 300.772 138.071C300.469 137.082 300.165 136.073 299.852 135.054C299.225 133.007 298.569 130.881 297.902 128.707C297.569 127.619 297.236 126.542 296.913 125.484C296.756 124.945 296.57 124.446 296.57 123.927C296.57 123.407 296.698 122.898 296.933 122.448C297.393 121.537 298.284 120.89 299.254 120.704C300.234 120.459 301.174 120.9 302.124 121.164C305.895 122.31 309.285 123.339 312.145 124.211C312.86 124.426 313.536 124.632 314.182 124.828C314.829 125.024 315.436 125.18 315.896 125.523C316.856 126.189 317.238 127.218 317.278 128.021C317.307 128.844 317.052 129.461 316.837 129.833C316.621 130.215 316.455 130.382 316.474 130.392Z" fill="#263238"/>
<path d="M312.713 126.267C311.684 126.591 311.116 127.688 311.44 128.716C311.763 129.745 312.86 130.313 313.888 129.99C314.917 129.666 315.485 128.569 315.162 127.541C314.839 126.512 313.741 125.944 312.713 126.267Z" fill="#263238"/>
<path d="M304.093 135.967C303.065 136.29 302.496 137.387 302.82 138.415C303.143 139.444 304.24 140.012 305.268 139.689C306.297 139.366 306.865 138.269 306.542 137.24C306.219 136.212 305.122 135.643 304.093 135.967Z" fill="#263238"/>
<path d="M300.077 122.928C299.048 123.251 298.48 124.348 298.804 125.376C299.127 126.405 300.224 126.973 301.252 126.65C302.281 126.327 302.849 125.229 302.526 124.201C302.203 123.172 301.105 122.604 300.077 122.928Z" fill="#263238"/>
<g opacity="0.3">
<path d="M316.533 132.852L314.417 135.379L313.085 134.116L315.309 131.696L316.533 132.852Z" fill="black"/>
</g>
<g opacity="0.3">
<path d="M354 309.157L351.816 305.758L351.453 306.659L353.569 310.234L354 309.157Z" fill="black"/>
</g>
<path d="M289.743 133.931C289.831 133.911 289.234 132.755 289.351 130.777C289.41 129.797 289.674 128.631 290.291 127.495C290.899 126.359 291.888 125.262 293.21 124.576C294.533 123.881 295.973 123.636 297.266 123.695C298.559 123.753 299.695 124.145 300.537 124.625C301.39 125.105 301.928 125.722 302.183 126.202C302.438 126.692 302.447 127.005 302.477 127.005C302.487 127.005 302.496 126.927 302.477 126.78C302.457 126.633 302.418 126.408 302.301 126.143C302.075 125.614 301.536 124.939 300.665 124.41C299.803 123.881 298.627 123.45 297.275 123.361C295.934 123.273 294.415 123.528 293.034 124.253C291.643 124.968 290.605 126.134 289.988 127.329C289.361 128.524 289.116 129.738 289.087 130.747C289.047 131.766 289.224 132.579 289.39 133.108C289.469 133.382 289.557 133.578 289.616 133.715C289.674 133.852 289.714 133.921 289.723 133.911L289.743 133.931Z" fill="#263238"/>
<path d="M276.725 140.935C276.725 140.935 284.522 129.171 293.485 135.587C302.829 142.277 293.044 153.287 293.044 153.287L276.725 140.935Z" fill="#83B142"/>
<g opacity="0.3">
<path d="M294.876 150.768C293.906 152.316 293.044 153.286 293.044 153.286L276.725 140.934C276.725 140.934 277.411 139.905 278.596 138.632C279.174 138.847 279.752 139.063 280.33 139.308C286.334 141.855 291.271 145.871 294.876 150.768Z" fill="black"/>
</g>
<path d="M278.713 141.004C296.57 148.566 304.916 169.176 297.354 187.032C296.247 189.638 294.876 192.038 293.259 194.212L236.221 153.239C245.507 139.897 263.158 134.412 278.713 141.004Z" fill="#83B142"/>
<path d="M236.143 153.336C233.43 157.078 243.94 169.352 259.622 180.753C275.305 192.155 290.223 198.365 292.946 194.633C295.659 190.892 285.149 178.618 269.467 167.216C253.784 155.815 238.866 149.604 236.143 153.336Z" fill="#FF725E"/>
<g opacity="0.5">
<path d="M236.143 153.335C233.43 157.077 243.94 169.351 259.622 180.752C275.305 192.154 290.223 198.364 292.946 194.632C295.659 190.891 285.149 178.617 269.467 167.215C253.784 155.814 238.866 149.603 236.143 153.335Z" fill="white"/>
</g>
<path d="M275.657 171.996L273.747 174.22C270.72 177.981 265.215 178.588 261.454 175.561C257.693 172.535 257.085 167.03 260.112 163.268L261.199 161.73C263.129 162.877 265.098 164.121 267.096 165.462C270.26 167.588 273.042 169.851 275.657 171.986V171.996Z" fill="white"/>
<g opacity="0.2">
<path d="M280.016 169.595C284.081 173.944 287.039 176.883 291.31 181.301C292.182 182.212 293.044 183.72 294.219 182.985C294.543 182.78 294.768 182.456 294.905 182.094C298.755 171.652 295.865 159.095 287.911 151.327C287.715 151.131 287.49 150.964 287.245 150.837C285.991 150.132 284.414 150.328 283.405 151.356C283.405 151.356 276.46 164.766 276.745 165.853C277.029 166.941 280.006 169.595 280.006 169.595H280.016Z" fill="white"/>
</g>
<g opacity="0.2">
<path d="M292.691 140.053C291.584 140.366 290.478 140.768 289.616 141.542C289.312 141.816 289.008 142.188 289.067 142.6C289.116 142.943 289.39 143.207 289.655 143.442C290.948 144.569 292.241 145.695 293.534 146.812C293.73 146.978 293.955 147.155 294.2 147.125C294.562 147.086 295.111 146.097 295.238 145.744C295.865 144.059 296.071 142.903 295.61 141.561C295.199 140.386 293.926 139.7 292.73 140.033C292.721 140.033 292.701 140.033 292.691 140.043V140.053Z" fill="white"/>
</g>
<path d="M282.994 134.989C283.023 135.058 283.934 134.509 285.57 134.167C287.186 133.824 289.586 133.785 291.917 134.813C293.073 135.322 294.072 136.038 294.846 136.802C295.61 137.585 296.178 138.408 296.541 139.152C297.285 140.641 297.422 141.699 297.501 141.68C297.52 141.68 297.501 141.415 297.413 140.945C297.324 140.475 297.129 139.809 296.776 139.035C296.423 138.261 295.865 137.389 295.081 136.566C294.288 135.753 293.269 134.999 292.064 134.48C289.645 133.412 287.157 133.491 285.521 133.912C284.689 134.118 284.052 134.382 283.631 134.598C283.209 134.813 282.994 134.96 283.004 134.98L282.994 134.989Z" fill="#263238"/>
<path d="M272.963 139.2C272.963 139.2 273.316 139.337 273.953 139.514C274.276 139.602 274.668 139.709 275.118 139.866C275.569 140.013 276.088 140.16 276.637 140.376C277.763 140.767 279.066 141.326 280.477 142.011C281.877 142.717 283.376 143.579 284.875 144.597C286.363 145.636 287.705 146.733 288.861 147.781C290.007 148.848 290.997 149.877 291.761 150.778C292.162 151.219 292.486 151.65 292.779 152.012C293.083 152.375 293.328 152.698 293.524 152.972C293.926 153.511 294.151 153.795 294.17 153.785C294.19 153.776 294.004 153.452 293.632 152.894C293.455 152.61 293.22 152.267 292.936 151.895C292.652 151.513 292.339 151.072 291.947 150.621C291.193 149.691 290.223 148.633 289.077 147.546C287.911 146.468 286.569 145.352 285.061 144.303C283.552 143.275 282.024 142.413 280.604 141.717C279.174 141.042 277.842 140.503 276.705 140.14C276.137 139.935 275.618 139.807 275.158 139.67C274.697 139.533 274.305 139.445 273.972 139.376C273.316 139.239 272.954 139.171 272.944 139.2H272.963Z" fill="#263238"/>
<path d="M236.143 153.336C236.143 153.336 236.427 152.826 237.397 152.523C238.337 152.2 239.845 152.219 241.687 152.621C245.39 153.404 250.483 155.589 256.37 158.909C262.257 162.25 268.996 166.736 275.931 172.407C279.389 175.248 282.896 178.392 286.217 181.948C287.862 183.731 289.478 185.621 290.879 187.698C291.575 188.736 292.221 189.823 292.691 190.989C292.907 191.577 293.112 192.174 293.171 192.791C293.23 193.399 293.152 194.035 292.799 194.515C292.446 194.995 291.868 195.27 291.271 195.407C290.664 195.544 290.037 195.544 289.41 195.514C288.156 195.426 286.922 195.152 285.717 194.809C283.307 194.114 281.015 193.164 278.811 192.145C274.403 190.078 270.329 187.708 266.557 185.298C259.025 180.449 252.677 175.434 247.682 170.86C242.706 166.275 239.062 162.112 237.171 158.831C236.221 157.205 235.741 155.775 235.751 154.776C235.731 153.767 236.192 153.355 236.133 153.336C236.172 153.336 235.682 153.737 235.673 154.776C235.634 155.794 236.104 157.244 237.044 158.9C238.915 162.23 242.539 166.432 247.505 171.046C252.491 175.65 258.829 180.704 266.371 185.572C270.142 188.001 274.227 190.382 278.655 192.458C280.868 193.487 283.18 194.447 285.619 195.142C286.834 195.485 288.087 195.769 289.39 195.867C290.037 195.896 290.703 195.906 291.349 195.759C291.996 195.612 292.662 195.309 293.083 194.731C293.494 194.143 293.583 193.418 293.524 192.762C293.465 192.096 293.25 191.469 293.024 190.862C292.535 189.657 291.878 188.55 291.173 187.502C289.753 185.406 288.127 183.505 286.471 181.713C283.131 178.147 279.605 175.003 276.137 172.162C269.183 166.491 262.414 162.014 256.498 158.704C250.571 155.403 245.458 153.257 241.716 152.503C239.855 152.121 238.327 152.121 237.377 152.474C236.398 152.797 236.162 153.385 236.153 153.355L236.143 153.336Z" fill="#263238"/>
<path d="M246.643 179.206C246.643 179.206 246.869 179.441 247.319 179.813C247.77 180.185 248.426 180.714 249.259 181.341C250.914 182.605 253.255 184.299 255.92 186.033C258.584 187.776 261.072 189.236 262.904 190.245C263.815 190.744 264.559 191.146 265.088 191.401C265.607 191.665 265.901 191.793 265.911 191.773C265.921 191.753 265.656 191.577 265.147 191.273C264.589 190.94 263.873 190.519 263.021 190.02C261.229 188.962 258.77 187.463 256.106 185.729C253.451 183.995 251.091 182.34 249.396 181.135C248.593 180.557 247.927 180.077 247.388 179.695C246.918 179.362 246.643 179.176 246.624 179.196L246.643 179.206Z" fill="#263238"/>
<path d="M242.813 176.433C242.765 176.521 242.853 176.658 243.009 176.727C243.166 176.796 243.323 176.796 243.362 176.707C243.411 176.619 243.323 176.482 243.166 176.413C243.019 176.335 242.853 176.345 242.813 176.433Z" fill="#263238"/>
<path d="M299.117 330.903H387.206C387.206 324.174 381.75 318.718 375.021 318.718H311.302C304.573 318.718 299.117 324.174 299.117 330.903Z" fill="#83B142"/>
<path d="M298.794 331.805H387.618V329.904H298.794V331.805Z" fill="#263238"/>
<g opacity="0.3">
<path d="M341.051 321.815C339.787 320.864 337.515 320.796 335.987 320.776C329.345 320.669 323.782 320.874 317.14 320.776C314.584 320.737 311.332 320.806 308.863 321.55C307.208 322.05 305.357 322.98 304.201 324.45C303.388 325.478 304.181 327.006 305.494 327.006H341.511C342.608 327.006 343.392 325.919 343.029 324.881C342.598 323.666 342.011 322.549 341.051 321.824V321.815Z" fill="white"/>
</g>
<g opacity="0.3">
<path d="M353.001 323.37L353.608 324.722C354.03 325.662 353.344 326.72 352.315 326.72H348.015C347.467 326.72 346.967 326.397 346.732 325.907L345.576 323.419C345.135 322.479 345.821 321.401 346.859 321.401H349.955C351.267 321.401 352.462 322.175 353.001 323.37Z" fill="white"/>
</g>
<g opacity="0.2">
<path d="M236.499 153.333L87.5414 332.205H261.212L293.155 194.513L236.499 153.333Z" fill="white"/>
</g>
<path d="M278.047 167.652C278.047 167.652 269.271 180.416 270.857 194.795L296.6 210.389C296.6 210.389 293.132 194.423 296.6 184.99L278.047 167.662V167.652Z" fill="#455A64"/>
<path d="M290.732 186.656C290.664 186.744 288.127 184.824 285.071 182.385C282.005 179.946 279.585 177.899 279.644 177.821C279.712 177.742 282.249 179.652 285.306 182.091C288.362 184.53 290.791 186.578 290.722 186.656H290.732Z" fill="#263238"/>
<path d="M290.83 192.64C290.83 192.64 289.958 192.268 288.626 191.513C287.304 190.759 285.511 189.642 283.611 188.291C281.711 186.939 280.075 185.607 278.929 184.608C277.783 183.609 277.117 182.933 277.146 182.893C277.185 182.854 277.91 183.442 279.105 184.392C280.29 185.342 281.956 186.625 283.836 187.967C285.727 189.309 287.48 190.455 288.763 191.268C290.047 192.081 290.85 192.581 290.82 192.63L290.83 192.64Z" fill="#263238"/>
<path d="M290.566 200.204C290.507 200.292 287.441 198.362 283.709 195.904C279.977 193.435 277.009 191.368 277.068 191.28C277.126 191.192 280.192 193.122 283.924 195.58C287.656 198.049 290.624 200.116 290.566 200.204Z" fill="#263238"/>
<path d="M114.318 329.659V326.133C114.318 326.133 126.592 326.436 138.474 324.262C156.076 321.049 183.111 303.633 199.205 322.234C199.205 322.234 212.027 306.141 233.145 315.191C254.264 324.242 273.346 328.582 280.134 326.319L281.143 330.345L114.328 329.659H114.318Z" fill="#E0E0E0"/>
<g opacity="0.3">
<path d="M192.965 329.659C193.102 329.12 197.275 323.214 199.43 323.214C202.516 323.214 207.531 329.659 207.531 329.659H192.965Z" fill="black"/>
</g>
<path d="M278.988 332.99L115.729 332.304V329.659L278.988 330.355V332.99Z" fill="#455A64"/>
<path d="M176.254 317.6C176.254 317.6 176.558 317.503 177.126 317.395C177.41 317.336 177.753 317.277 178.164 317.238C178.576 317.199 179.036 317.13 179.555 317.12C180.584 317.052 181.818 317.072 183.18 317.189C184.541 317.326 186.02 317.581 187.548 318.002C189.067 318.433 190.467 318.991 191.701 319.569C192.926 320.177 193.994 320.794 194.836 321.391C195.267 321.666 195.629 321.969 195.962 322.214C196.295 322.459 196.56 322.684 196.775 322.88C197.206 323.262 197.432 323.487 197.412 323.507C197.363 323.566 196.413 322.723 194.689 321.617C193.837 321.058 192.769 320.471 191.545 319.893C190.32 319.334 188.929 318.795 187.431 318.374C185.932 317.963 184.473 317.698 183.131 317.542C181.789 317.405 180.574 317.356 179.555 317.385C177.508 317.434 176.254 317.659 176.244 317.591L176.254 317.6Z" fill="#263238"/>
<path d="M116.591 328.082C116.591 328.082 116.659 328.082 116.797 328.082C116.953 328.092 117.159 328.111 117.414 328.131C117.952 328.18 118.746 328.268 119.765 328.346C121.802 328.523 124.77 328.719 128.433 328.719C132.097 328.719 136.466 328.503 141.265 327.866C146.065 327.239 151.276 326.093 156.654 324.565C162.041 323.067 167.203 321.617 172.023 320.931C176.842 320.226 181.289 320.334 184.904 321.029C188.528 321.715 191.29 322.959 193.063 324.007C193.945 324.546 194.611 324.987 195.022 325.329C195.218 325.486 195.375 325.613 195.502 325.711C195.61 325.8 195.659 325.849 195.659 325.849C195.659 325.849 195.59 325.819 195.482 325.741C195.355 325.653 195.189 325.535 194.973 325.388C194.542 325.065 193.866 324.644 192.985 324.134C191.202 323.135 188.459 321.95 184.855 321.303C181.26 320.637 176.852 320.559 172.072 321.284C167.282 321.979 162.139 323.439 156.752 324.938C151.364 326.466 146.124 327.612 141.305 328.219C136.485 328.846 132.097 329.032 128.433 328.993C124.76 328.963 121.792 328.719 119.755 328.493C118.736 328.395 117.943 328.278 117.404 328.199C117.159 328.16 116.953 328.131 116.797 328.111C116.659 328.092 116.591 328.072 116.591 328.062V328.082Z" fill="#263238"/>
<path d="M191.016 328.278C191.016 328.278 190.888 328.258 190.644 328.18C190.369 328.092 190.026 327.974 189.615 327.837C189.174 327.68 188.636 327.494 187.989 327.318C187.352 327.142 186.627 326.897 185.814 326.72C185.001 326.524 184.11 326.309 183.14 326.142C182.18 325.937 181.132 325.819 180.045 325.672C177.851 325.437 175.422 325.31 172.875 325.408C170.328 325.525 167.918 325.849 165.744 326.27C164.666 326.505 163.638 326.711 162.698 326.995C161.747 327.24 160.876 327.524 160.082 327.788C159.279 328.033 158.583 328.327 157.966 328.562C157.339 328.787 156.82 329.012 156.389 329.208C155.988 329.375 155.664 329.512 155.4 329.63C155.175 329.718 155.047 329.767 155.038 329.757C155.028 329.747 155.145 329.679 155.361 329.561C155.625 329.434 155.939 329.267 156.331 329.071C156.752 328.856 157.271 328.611 157.888 328.366C158.505 328.111 159.201 327.798 160.004 327.533C160.797 327.249 161.669 326.946 162.619 326.691C163.569 326.397 164.598 326.172 165.685 325.927C167.869 325.486 170.299 325.153 172.865 325.036C175.431 324.938 177.89 325.075 180.094 325.339C181.191 325.496 182.249 325.633 183.209 325.849C184.179 326.025 185.08 326.26 185.893 326.475C186.716 326.671 187.431 326.926 188.067 327.132C188.704 327.328 189.243 327.533 189.684 327.71C190.085 327.876 190.418 328.004 190.683 328.121C190.908 328.219 191.026 328.278 191.026 328.288L191.016 328.278Z" fill="#263238"/>
<path d="M227.229 316.934C227.21 317.012 225.711 316.591 223.233 316.366C222.616 316.317 221.93 316.268 221.205 316.268C220.47 316.238 219.697 316.297 218.874 316.336C217.238 316.474 215.445 316.748 213.614 317.228C211.782 317.737 210.107 318.403 208.618 319.108C207.893 319.49 207.188 319.833 206.571 320.225C205.934 320.588 205.376 320.97 204.866 321.332C202.839 322.772 201.761 323.898 201.702 323.83C201.683 323.81 201.947 323.526 202.447 323.036C202.692 322.782 203.005 322.488 203.387 322.174C203.769 321.861 204.191 321.469 204.71 321.117C205.219 320.744 205.777 320.333 206.414 319.961C207.031 319.549 207.736 319.187 208.471 318.795C209.96 318.06 211.664 317.375 213.525 316.865C215.387 316.376 217.199 316.111 218.864 315.994C219.697 315.964 220.49 315.915 221.225 315.964C221.969 315.964 222.655 316.033 223.272 316.111C223.899 316.16 224.457 316.278 224.947 316.356C225.437 316.434 225.858 316.532 226.201 316.63C226.876 316.807 227.249 316.914 227.239 316.944L227.229 316.934Z" fill="#263238"/>
<path d="M260.67 327.885C260.67 327.885 260.465 327.934 260.073 327.993C259.681 328.062 259.103 328.111 258.359 328.16C256.86 328.248 254.676 328.209 252.021 327.807C249.367 327.425 246.261 326.641 242.882 325.593C239.503 324.555 235.839 323.242 231.902 322.204C229.933 321.685 227.993 321.283 226.093 321.019C224.193 320.764 222.351 320.676 220.588 320.735C217.071 320.852 213.937 321.528 211.419 322.371C208.882 323.193 206.953 324.183 205.65 324.898C204.994 325.26 204.494 325.554 204.161 325.76C203.828 325.965 203.642 326.063 203.632 326.054C203.632 326.044 203.789 325.916 204.112 325.691C204.435 325.456 204.915 325.143 205.562 324.761C206.855 323.997 208.775 322.968 211.322 322.106C213.849 321.224 217.013 320.509 220.568 320.372C222.341 320.304 224.212 320.382 226.132 320.637C228.052 320.891 230.011 321.303 231.99 321.822C235.947 322.87 239.61 324.183 242.98 325.241C246.34 326.308 249.425 327.111 252.06 327.523C254.695 327.954 256.86 328.032 258.349 327.993C259.093 327.964 259.671 327.934 260.063 327.895C260.455 327.866 260.661 327.856 260.661 327.866L260.67 327.885Z" fill="#263238"/>
<path d="M232.029 329.385C232.029 329.385 231.676 329.375 231.049 329.277C230.422 329.179 229.511 329.052 228.395 328.915C226.152 328.621 223.037 328.337 219.589 328.268C216.141 328.21 213.016 328.406 210.763 328.621C209.637 328.729 208.726 328.827 208.099 328.905C207.472 328.974 207.119 329.003 207.119 328.974C207.119 328.944 207.462 328.866 208.079 328.748C208.706 328.631 209.607 328.484 210.734 328.347C212.987 328.063 216.121 327.828 219.589 327.877C223.056 327.935 226.181 328.278 228.424 328.631C229.541 328.807 230.452 328.983 231.069 329.121C231.686 329.258 232.029 329.346 232.019 329.375L232.029 329.385Z" fill="#263238"/>
<path d="M117.962 312.331H-46.9126V332H117.962V312.331Z" fill="#83B142"/>
<path d="M115.269 314.789H-46.9126V329.462H115.269V314.789Z" fill="#F5F5F5"/>
<g opacity="0.3">
<path d="M117.962 312.331H85.9218V332H117.962V312.331Z" fill="black"/>
</g>
<path d="M115.269 317.992C115.269 317.992 115.122 317.993 114.847 318.002C114.563 318.002 114.152 318.002 113.613 318.012C112.526 318.012 110.929 318.022 108.882 318.032C104.768 318.032 98.8222 318.051 91.4855 318.061C76.7925 318.061 56.4966 318.081 34.0849 318.09C11.6634 318.081 -8.63251 318.071 -23.3255 318.061C-30.672 318.051 -36.608 318.032 -40.722 318.032C-42.7692 318.032 -44.3659 318.012 -45.4531 318.012C-45.9919 318.012 -46.4033 318.012 -46.6874 318.002C-46.9616 318.002 -47.1086 317.992 -47.1086 317.992C-47.1086 317.992 -46.9714 317.992 -46.6874 317.983C-46.4033 317.983 -45.9919 317.983 -45.4531 317.973C-44.3659 317.973 -42.7692 317.963 -40.722 317.953C-36.608 317.953 -30.672 317.934 -23.3255 317.924C-8.63251 317.924 11.6634 317.904 34.0849 317.895C56.4966 317.904 76.7925 317.914 91.4855 317.924C98.832 317.934 104.768 317.953 108.882 317.953C110.929 317.953 112.526 317.973 113.613 317.973C114.152 317.973 114.563 317.973 114.847 317.983C115.122 317.983 115.269 317.992 115.269 317.992Z" fill="#263238"/>
<path d="M115.269 321.92C115.269 321.92 115.122 321.92 114.847 321.93C114.563 321.93 114.152 321.93 113.613 321.94C112.526 321.94 110.929 321.95 108.882 321.959C104.768 321.959 98.8222 321.979 91.4855 321.989C76.7925 321.989 56.4966 322.008 34.0849 322.018C11.6634 322.008 -8.63251 321.999 -23.3255 321.989C-30.672 321.979 -36.608 321.959 -40.722 321.959C-42.7692 321.959 -44.3659 321.94 -45.4531 321.94C-45.9919 321.94 -46.4033 321.94 -46.6874 321.93C-46.9616 321.93 -47.1086 321.92 -47.1086 321.92C-47.1086 321.92 -46.9714 321.92 -46.6874 321.91C-46.4033 321.91 -45.9919 321.91 -45.4531 321.901C-44.3659 321.901 -42.7692 321.891 -40.722 321.881C-36.608 321.881 -30.672 321.861 -23.3255 321.852C-8.63251 321.852 11.6634 321.832 34.0849 321.822C56.4966 321.832 76.7925 321.842 91.4855 321.852C98.832 321.861 104.768 321.881 108.882 321.881C110.929 321.881 112.526 321.901 113.613 321.901C114.152 321.901 114.563 321.901 114.847 321.91C115.122 321.91 115.269 321.92 115.269 321.92Z" fill="#263238"/>
<path d="M115.269 325.85C115.269 325.85 115.122 325.85 114.847 325.86C114.563 325.86 114.152 325.86 113.613 325.869C112.526 325.869 110.929 325.879 108.882 325.889C104.768 325.889 98.8222 325.909 91.4855 325.918C76.7925 325.918 56.4966 325.938 34.0849 325.948C11.6634 325.938 -8.63251 325.928 -23.3255 325.918C-30.672 325.909 -36.608 325.889 -40.722 325.889C-42.7692 325.889 -44.3659 325.869 -45.4531 325.869C-45.9919 325.869 -46.4033 325.869 -46.6874 325.86C-46.9616 325.86 -47.1086 325.85 -47.1086 325.85C-47.1086 325.85 -46.9714 325.85 -46.6874 325.84C-46.4033 325.84 -45.9919 325.84 -45.4531 325.83C-44.3659 325.83 -42.7692 325.821 -40.722 325.811C-36.608 325.811 -30.672 325.791 -23.3255 325.781C-8.63251 325.781 11.6634 325.762 34.0849 325.752C56.4966 325.762 76.7925 325.772 91.4855 325.781C98.832 325.791 104.768 325.811 108.882 325.811C110.929 325.811 112.526 325.83 113.613 325.83C114.152 325.83 114.563 325.83 114.847 325.84C115.122 325.84 115.269 325.85 115.269 325.85Z" fill="#263238"/>
<path d="M86.0197 331.667C85.961 331.667 85.912 327.387 85.912 322.107C85.912 316.827 85.961 312.547 86.0197 312.547C86.0785 312.547 86.1275 316.827 86.1275 322.107C86.1275 327.387 86.0785 331.667 86.0197 331.667Z" fill="#263238"/>
<path d="M92.847 294.132H-34.9918V312.332H92.847V294.132Z" fill="#455A64"/>
<path d="M103.975 294.24H69.1815V312.224H103.975V294.24Z" fill="#455A64"/>
<path d="M103.975 296.708H72.4532V309.628H103.975V296.708Z" fill="#F5F5F5"/>
<g opacity="0.3">
<path d="M103.975 294.241H69.1815V312.225H103.975V294.241Z" fill="black"/>
</g>
<path d="M59.827 308.346C59.827 308.346 59.827 308.17 59.827 307.846C59.827 307.513 59.827 307.023 59.8172 306.387C59.8172 305.104 59.7976 303.203 59.7878 300.745L59.8368 300.784C45.0263 300.794 11.6438 300.813 -27.1359 300.843L-27.0184 300.735C-27.0184 303.34 -27.0184 305.917 -27.0184 308.346L-27.1359 308.238C-2.73574 308.258 18.9903 308.267 34.6236 308.277C42.4501 308.287 48.7387 308.297 53.0878 308.307C55.2624 308.307 56.9472 308.316 58.0932 308.316C58.6614 308.316 59.0924 308.316 59.396 308.316C59.6899 308.316 59.8466 308.316 59.8466 308.316C59.8466 308.316 59.6997 308.316 59.4156 308.316C59.1217 308.316 58.6908 308.316 58.1324 308.316C56.9962 308.316 55.3212 308.316 53.1564 308.326C48.8171 308.326 42.5285 308.346 34.7118 308.356C19.0589 308.365 -2.69656 308.385 -27.1261 308.395H-27.2437V308.287C-27.2437 305.868 -27.2437 303.282 -27.2437 300.676V300.568H-27.1261C11.6536 300.598 45.0361 300.617 59.8466 300.627H59.8956V300.666C59.8858 303.135 59.876 305.045 59.8662 306.338C59.8662 306.975 59.8662 307.464 59.8564 307.788C59.8564 308.111 59.8564 308.277 59.8564 308.277L59.827 308.346Z" fill="#263238"/>
<path d="M69.2305 312.214C69.1619 312.214 69.113 308.14 69.113 303.105C69.113 298.07 69.1619 293.995 69.2305 293.995C69.2991 293.995 69.3481 298.07 69.3481 303.105C69.3481 308.14 69.2991 312.214 69.2305 312.214Z" fill="#263238"/>
<path d="M84.9716 272.896H-42.8672V287.138H84.9716V272.896Z" fill="#83B142"/>
<path d="M56.7415 284.326C56.7415 284.326 56.7415 284.267 56.7317 284.16C56.7317 284.042 56.7317 283.885 56.7219 283.709C56.7219 283.298 56.7023 282.729 56.6925 282.024C56.6827 280.574 56.6632 278.557 56.6436 276.186L56.7513 276.284C54.9 276.284 52.8528 276.284 50.6978 276.284C50.6684 276.304 50.9133 276.088 50.8153 276.186V276.754C50.8153 276.94 50.8153 277.136 50.8153 277.322C50.8153 277.695 50.8153 278.067 50.8153 278.439C50.8153 279.174 50.8153 279.879 50.8153 280.574C50.8153 281.946 50.8056 283.209 50.7958 284.336L50.7076 284.258C52.5197 284.277 54.0184 284.287 55.0861 284.297C55.5955 284.297 56.0069 284.316 56.3105 284.316C56.5946 284.316 56.7513 284.326 56.7513 284.336C56.7513 284.346 56.6142 284.346 56.3399 284.355C56.0363 284.355 55.6346 284.365 55.1351 284.375C54.0478 284.385 52.5295 284.404 50.6978 284.414H50.6097V284.336C50.6097 283.209 50.5999 281.946 50.5901 280.574C50.5901 279.889 50.5901 279.174 50.5901 278.439C50.5901 278.077 50.5901 277.704 50.5901 277.322C50.5901 277.136 50.5901 276.95 50.5901 276.754V276.47V276.323V276.196V276.176C50.4823 276.265 50.7272 276.049 50.7076 276.069C52.8626 276.069 54.9098 276.069 56.7611 276.069H56.8689V276.167C56.8493 278.557 56.8297 280.604 56.8199 282.063C56.8101 282.759 56.8003 283.317 56.7905 283.729C56.7905 283.905 56.7905 284.052 56.7807 284.16C56.7807 284.258 56.7807 284.306 56.7709 284.306L56.7415 284.326Z" fill="#263238"/>
<path d="M84.9717 275.128H65.2537V284.757H84.9717V275.128Z" fill="white"/>
<g opacity="0.3">
<path d="M84.9716 272.896H62.6579V287.138H84.9716V272.896Z" fill="black"/>
</g>
<path d="M62.5599 287.05C62.4914 287.05 62.4424 283.906 62.4424 280.027C62.4424 276.148 62.4914 273.004 62.5599 273.004C62.6285 273.004 62.6775 276.148 62.6775 280.027C62.6775 283.906 62.6285 287.05 62.5599 287.05Z" fill="#263238"/>
<path d="M85.1186 277.401C85.1186 277.459 80.6421 277.508 75.1077 277.508C69.5734 277.508 65.0969 277.459 65.0969 277.401C65.0969 277.342 69.5734 277.293 75.1077 277.293C80.6421 277.293 85.1186 277.342 85.1186 277.401Z" fill="#263238"/>
<path d="M85.1186 279.939C85.1186 279.998 80.6421 280.047 75.1077 280.047C69.5734 280.047 65.0969 279.998 65.0969 279.939C65.0969 279.88 69.5734 279.831 75.1077 279.831C80.6421 279.831 85.1186 279.88 85.1186 279.939Z" fill="#263238"/>
<path d="M85.1186 282.515C85.1186 282.574 80.6421 282.623 75.1077 282.623C69.5734 282.623 65.0969 282.574 65.0969 282.515C65.0969 282.456 69.5734 282.407 75.1077 282.407C80.6421 282.407 85.1186 282.456 85.1186 282.515Z" fill="#263238"/>
<path d="M106.903 287.137H-20.9354V294.16H106.903V287.137Z" fill="#3B6738"/>
<path d="M106.913 288.019H78.3304V293.337H106.913V288.019Z" fill="#E0E0E0"/>
<g opacity="0.3">
<path d="M106.903 287.137H76.7142V294.16H106.903V287.137Z" fill="black"/>
</g>
<path d="M76.7142 294.16C76.6456 294.16 76.6064 292.642 76.6064 290.781C76.6064 288.91 76.6652 287.401 76.7338 287.401C76.8023 287.401 76.8415 288.92 76.8415 290.781C76.8415 292.652 76.7827 294.16 76.7142 294.16Z" fill="#263238"/>
<path d="M65.2537 289.841H-11.7376V291.516H65.2537V289.841Z" fill="#E0E0E0"/>
<path d="M73.5993 294.112C73.5993 294.17 52.412 294.219 26.2879 294.219C0.163717 294.219 -21.0236 294.17 -21.0236 294.112C-21.0236 294.053 0.153923 294.004 26.2879 294.004C52.4218 294.004 73.5993 294.053 73.5993 294.112Z" fill="#263238"/>
<path d="M77.0276 294.141C77.0276 294.2 55.8403 294.249 29.7162 294.249C3.59208 294.249 -17.5952 294.2 -17.5952 294.141C-17.5952 294.082 3.58228 294.033 29.7162 294.033C55.8501 294.033 77.0276 294.082 77.0276 294.141Z" fill="#263238"/>
<path d="M106.903 287.088C106.903 287.147 79.0259 287.196 44.6541 287.196C10.2823 287.196 -17.605 287.147 -17.605 287.088C-17.605 287.029 10.2627 286.98 44.6541 286.98C79.0455 286.98 106.903 287.029 106.903 287.088Z" fill="#263238"/>
<path d="M68.9563 272.895C68.9563 272.993 50.6586 273.081 28.1 273.081C5.54134 273.081 -12.7563 273.003 -12.7563 272.895C-12.7563 272.787 5.53154 272.709 28.1 272.709C50.6684 272.709 68.9563 272.787 68.9563 272.895Z" fill="#263238"/>
<path d="M70.7782 277.568C70.7782 277.568 77.0178 275.344 77.1648 273.591L80.4756 273.845C80.4756 273.845 77.537 277.078 75.3134 277.568H70.7782Z" fill="#455A64"/>
<path d="M75.6171 279.8C75.6171 279.8 81.8567 277.577 82.0037 275.823L85.3145 276.078C85.3145 276.078 82.3759 279.31 80.1523 279.8H75.6171Z" fill="white"/>
<path d="M68.7408 282.406C68.7408 282.406 74.9804 280.182 75.1273 278.429L78.4382 278.683C78.4382 278.683 75.4996 281.916 73.276 282.406H68.7408Z" fill="#FF9A6C"/>
<path d="M7.77464 272.571L26.1801 282.474L45.7413 272.571H7.77464Z" fill="#F5F5F5"/>
<path d="M92.9744 252.523L92.6512 237.468H-36.6668V273.103H93.4446L93.5033 260.379H83.8158V258.234H93.4446V255.031H97.7349V252.523H92.9744Z" fill="#F5F5F5"/>
<path d="M92.9744 252.522C92.9744 252.522 93.3858 252.512 94.189 252.502C94.9922 252.502 96.1774 252.493 97.7349 252.473H97.7741V252.512C97.7741 253.247 97.7741 254.089 97.7839 255.02V255.078H97.7251C96.4811 255.078 95.0412 255.079 93.4445 255.088L93.5131 255.02C93.5131 256.019 93.5131 257.087 93.5131 258.223V258.301H93.4348C90.6333 258.301 87.391 258.311 83.7962 258.321L83.8941 258.223C83.8941 258.869 83.8941 259.604 83.8941 260.358L83.7962 260.26C86.7445 260.26 90.0064 260.26 93.4837 260.241H93.6013V260.358C93.5915 264.257 93.5817 268.537 93.5719 273.082V273.21H93.4445C61.12 273.229 14.7685 273.249 -36.6668 273.268H-36.8627V273.073V272.602C-36.8627 260.515 -36.8627 248.702 -36.8627 237.427V237.241H-36.6766C21.6154 237.29 69.6027 237.329 92.6315 237.349H92.7099V237.427C92.7981 242.286 92.8666 246.047 92.9156 248.594C92.9352 249.867 92.9548 250.837 92.9646 251.493C92.9646 252.15 92.9646 252.493 92.9646 252.493C92.9646 252.493 92.945 252.169 92.9254 251.523C92.9058 250.866 92.8764 249.907 92.847 248.633C92.7785 246.077 92.6805 242.305 92.563 237.427L92.6413 237.506C69.6125 237.525 21.6252 237.564 -36.6668 237.613L-36.4807 237.427C-36.4807 248.692 -36.4807 260.505 -36.4807 272.602V273.073L-36.6766 272.877C14.7587 272.896 61.1102 272.926 93.4348 272.935L93.3074 273.063C93.327 268.518 93.3564 264.227 93.376 260.339L93.4935 260.456C90.0162 260.456 86.7543 260.446 83.806 260.437H83.708V260.339C83.708 259.584 83.708 258.84 83.708 258.203V258.105H83.806C87.4008 258.105 90.6431 258.115 93.4445 258.125L93.3662 258.203C93.3662 257.067 93.3662 255.999 93.3662 255V254.932H93.4348C95.0314 254.932 96.4713 254.932 97.7153 254.941L97.6565 255C97.6565 254.07 97.6565 253.227 97.6663 252.493L97.7055 252.532C96.1383 252.522 94.9432 252.512 94.14 252.502C93.3466 252.502 92.9548 252.483 92.9548 252.483L92.9744 252.522Z" fill="#263238"/>
<path d="M-36.6668 252.521C-36.6668 252.413 -7.64322 252.325 28.1489 252.325C63.941 252.325 92.9744 252.413 92.9744 252.521C92.9744 252.629 63.9606 252.717 28.1489 252.717C-7.66281 252.717 -36.6668 252.629 -36.6668 252.521Z" fill="#263238"/>
<path d="M-36.6668 255.175C-36.6668 255.068 -7.53546 254.979 28.384 254.979C64.3035 254.979 93.4445 255.068 93.4445 255.175C93.4445 255.283 64.323 255.371 28.384 255.371C-7.55505 255.371 -36.6668 255.283 -36.6668 255.175Z" fill="#263238"/>
<path d="M-34.4334 260.377C-34.4334 260.269 -5.79189 260.181 29.5301 260.181C64.852 260.181 93.4935 260.269 93.4935 260.377C93.4935 260.484 64.8618 260.572 29.5301 260.572C-5.80169 260.572 -34.4334 260.484 -34.4334 260.377Z" fill="#263238"/>
<path d="M59.0532 272.601C58.9454 272.601 58.8573 264.755 58.8573 255.078C58.8573 245.4 58.9454 237.554 59.0532 237.554C59.1609 237.554 59.2491 245.4 59.2491 255.078C59.2491 264.755 59.1609 272.601 59.0532 272.601Z" fill="#263238"/>
<g opacity="0.3">
<path d="M92.6511 237.466H58.8769V273.101H93.4446L93.5033 260.377H83.8158V258.232H93.4446V255.029H97.7349V252.521H92.9744L92.6511 237.466Z" fill="black"/>
</g>
</svg>
