<svg width="360" height="338" viewBox="0 0 360 338" fill="none" xmlns="http://www.w3.org/2000/svg">
<path d="M382.313 183.342H329.952V197.19H382.313V183.342Z" fill="#EBEBEB"/>
<path d="M360.173 211.788C360.173 211.788 360.162 211.693 360.151 211.535C360.151 211.344 360.151 211.112 360.13 210.827C360.13 210.172 360.109 209.264 360.088 208.102C360.067 205.714 360.035 202.271 359.993 197.94L360.151 198.098C348.194 198.12 329.181 198.162 307.791 198.204C307.907 198.088 307.526 198.468 308.055 197.94V198.827V199.715C308.055 200.306 308.055 200.898 308.055 201.479C308.055 202.651 308.055 203.824 308.055 204.975C308.055 207.288 308.055 209.559 308.055 211.788L307.791 211.524C322.706 211.566 335.751 211.609 345.11 211.64C349.768 211.672 353.507 211.693 356.127 211.714C357.394 211.725 358.398 211.735 359.106 211.746C359.423 211.746 359.687 211.756 359.887 211.767C360.067 211.767 360.162 211.778 360.162 211.788C360.162 211.788 360.088 211.799 359.919 211.809C359.729 211.809 359.475 211.809 359.169 211.83C358.472 211.83 357.49 211.851 356.243 211.862C353.645 211.883 349.926 211.904 345.289 211.936C335.888 211.968 322.769 212.01 307.791 212.052H307.526V211.788C307.526 209.559 307.526 207.288 307.526 204.975C307.526 203.824 307.526 202.651 307.526 201.479C307.526 200.887 307.526 200.306 307.526 199.715V197.961V197.94C308.065 197.401 307.674 197.792 307.801 197.665C329.191 197.708 348.205 197.75 360.162 197.771H360.32V197.929C360.278 202.303 360.257 205.778 360.225 208.186C360.204 209.337 360.194 210.235 360.183 210.88C360.183 211.154 360.173 211.387 360.162 211.566C360.162 211.714 360.151 211.788 360.141 211.788H360.173Z" fill="#E0E0E0"/>
<path d="M408.762 261.17C408.762 261.17 408.752 261.075 408.741 260.916C408.741 260.726 408.741 260.494 408.72 260.209C408.72 259.554 408.699 258.645 408.678 257.483C408.657 255.096 408.625 251.653 408.583 247.322L408.741 247.48C396.784 247.501 377.771 247.544 356.38 247.586C356.497 247.47 356.116 247.85 356.644 247.322V249.096C356.644 249.688 356.644 250.279 356.644 250.86C356.644 252.033 356.644 253.205 356.644 254.357C356.644 256.67 356.644 258.941 356.644 261.17L356.38 260.906C371.295 260.948 384.341 260.99 393.7 261.022C398.358 261.054 402.097 261.075 404.717 261.096C405.984 261.107 406.988 261.117 407.696 261.128C408.012 261.128 408.276 261.138 408.477 261.149C408.657 261.149 408.752 261.159 408.752 261.17C408.752 261.17 408.678 261.181 408.509 261.191C408.319 261.191 408.065 261.191 407.759 261.212C407.062 261.212 406.079 261.233 404.833 261.244C402.234 261.265 398.516 261.286 393.879 261.318C384.478 261.35 371.369 261.392 356.38 261.434H356.116V261.17C356.116 258.941 356.116 256.67 356.116 254.357C356.116 253.205 356.116 252.033 356.116 250.86C356.116 250.269 356.116 249.688 356.116 249.096V247.343V247.322C356.655 246.783 356.264 247.174 356.391 247.047C377.781 247.089 396.794 247.132 408.752 247.153H408.921V247.311C408.879 251.684 408.847 255.16 408.826 257.568C408.805 258.719 408.794 259.617 408.784 260.262C408.784 260.536 408.773 260.769 408.762 260.948C408.762 261.096 408.752 261.17 408.741 261.17H408.762Z" fill="#E0E0E0"/>
<path d="M357.88 0H351.342V141.798H357.88V0Z" fill="#E0E0E0"/>
<path d="M350.254 1.08789H256.634C256.581 1.08789 256.539 1.13045 256.539 1.18296V140.615C256.539 140.667 256.581 140.71 256.634 140.71H350.254C350.306 140.71 350.349 140.667 350.349 140.615V1.18296C350.349 1.13045 350.306 1.08789 350.254 1.08789Z" fill="#F5F5F5"/>
<path d="M351.342 141.798H255.546C255.546 141.798 255.451 141.756 255.451 141.703V0.0950671C255.451 0.0950671 255.493 0 255.546 0H351.342C351.342 0 351.437 0.042252 351.437 0.0950671V141.703C351.437 141.703 351.395 141.798 351.342 141.798ZM257.722 139.622H349.166C349.166 139.622 349.261 139.58 349.261 139.527V2.27105C349.261 2.27105 349.219 2.17598 349.166 2.17598H257.722C257.722 2.17598 257.627 2.21823 257.627 2.27105V139.527C257.627 139.527 257.669 139.622 257.722 139.622Z" fill="#EBEBEB"/>
<path d="M340.969 9.69629H266.077C266.025 9.69629 265.982 9.73885 265.982 9.79136V131.9C265.982 131.952 266.025 131.995 266.077 131.995H340.969C341.021 131.995 341.064 131.952 341.064 131.9V9.79136C341.064 9.73885 341.021 9.69629 340.969 9.69629Z" fill="white"/>
<path d="M324.459 44.375H282.429C282.394 44.375 282.365 44.4034 282.365 44.4384V93.7254C282.365 93.7604 282.394 93.7888 282.429 93.7888H324.459C324.494 93.7888 324.522 93.7604 324.522 93.7254V44.4384C324.522 44.4034 324.494 44.375 324.459 44.375Z" fill="#EBEBEB"/>
<path d="M321.184 87.7362C321.237 87.8946 319.156 88.8031 315.195 88.3383C313.241 88.0742 310.822 87.3771 308.467 85.6447C306.164 83.923 303.977 81.1343 303.238 77.4267C302.467 73.7402 303.703 69.1453 307.241 66.1877C308.118 65.4588 309.143 64.8356 310.273 64.4131C311.477 63.9694 312.776 63.8215 314.065 63.98C315.343 64.1384 316.706 64.5821 317.857 65.6384C319.019 66.6947 319.653 68.4693 319.357 70.0537C319.082 71.6487 318.216 72.874 317.276 73.8458C316.315 74.8282 315.216 75.557 314.097 76.1803C311.826 77.4373 309.238 78.2189 306.523 78.3457C303.819 78.4724 300.956 77.9232 298.453 76.5077C295.971 75.1134 293.837 72.9902 292.506 70.3495C291.154 67.7299 290.731 64.561 291.439 61.7195C292.126 58.8886 293.731 56.3641 295.981 54.6106C297.111 53.7339 298.389 53.0895 299.794 52.6881C301.199 52.329 302.657 52.255 304.083 52.5508C305.498 52.8466 306.946 53.5437 307.981 54.7479C309.026 55.9415 309.491 57.4943 309.512 58.9097C309.533 60.3252 309.143 61.7195 308.498 62.8709C307.865 64.0328 306.998 64.9729 306.09 65.7651C304.263 67.3073 302.224 68.3214 300.122 68.934C298.02 69.5361 295.865 69.6946 293.837 69.4199C291.809 69.1347 289.907 68.3848 288.365 67.3285C285.26 65.2159 283.464 62.0153 283.147 59.0576C282.798 56.0472 283.897 53.5754 285.08 51.9698C286.295 50.3326 287.7 49.4981 288.661 49.1073C289.643 48.7376 290.203 48.7481 290.235 48.8432C290.277 48.9805 289.791 49.1918 288.988 49.7305C288.207 50.2692 287.098 51.1882 286.21 52.7198C285.334 54.2198 284.615 56.4063 285.07 58.783C285.481 61.1491 287.108 63.6948 289.717 65.2898C292.274 66.9165 295.854 67.3285 299.298 66.1982C300.999 65.6489 302.699 64.73 304.094 63.4835C305.467 62.2477 306.407 60.6526 306.333 58.9942C306.291 57.3253 305.234 56.1528 303.449 55.8042C302.572 55.6352 301.601 55.688 300.692 55.931C299.794 56.2056 298.875 56.6598 298.094 57.2936C296.499 58.54 295.295 60.4414 294.819 62.5223C294.323 64.5926 294.618 66.7897 295.622 68.7862C296.615 70.772 298.263 72.4304 300.154 73.4973C302.044 74.5747 304.231 75.0289 306.396 74.9444C308.562 74.8704 310.685 74.2578 312.533 73.2649C313.473 72.7578 314.329 72.1874 314.984 71.5431C315.649 70.8882 316.114 70.1488 316.23 69.515C316.357 68.8812 316.156 68.3214 315.723 67.8883C315.269 67.4446 314.509 67.1066 313.695 66.9904C312.882 66.8637 312.037 66.9482 311.308 67.1911C310.505 67.4658 309.745 67.8883 309.079 68.4164C307.738 69.4622 306.734 70.8988 306.174 72.4198C305.604 73.9409 305.467 75.5148 305.689 77.0147C306.132 80.0252 307.833 82.5286 309.702 84.1342C311.614 85.7504 313.716 86.5848 315.48 87.0179C319.051 87.8524 321.184 87.4404 321.216 87.7362H321.184Z" fill="#E0E0E0"/>
<path d="M239.754 0.391602H138.624V167.794H239.754V0.391602Z" fill="#E0E0E0"/>
<path d="M236.395 0.391602H135.265V167.794H236.395V0.391602Z" fill="#EBEBEB"/>
<path d="M232.096 3.78223H139.575V164.393H232.096V3.78223Z" fill="#FAFAFA"/>
<path d="M214.076 24.6543H157.183V143.53H214.076V24.6543Z" fill="#EBEBEB"/>
<path d="M157.183 101.458C157.056 90.3565 167.038 79.5188 178.035 77.9661C183.274 77.2267 188.851 78.2724 193.752 76.2549C202.498 72.674 205.277 61.0547 214.086 57.6006L214.487 143.52H157.194V101.458H157.183Z" fill="#E0E0E0"/>
<path d="M124.501 0.0634766H3.53363V252.551H124.501V0.0634766Z" fill="#E0E0E0"/>
<path d="M119.98 5.78809H8.86792V247.28H119.98V5.78809Z" fill="#F5F5F5"/>
<path d="M8.86792 110.585H41.1485V133.168H65.5702V82.656H97.3754V72.8535H119.97V247.281H8.86792V110.585Z" fill="#EBEBEB"/>
<path d="M119.97 19.3203L8.86792 185.371V205.124L119.97 36.3584V19.3203Z" fill="white"/>
<path d="M64.4188 5.78809L8.86792 92.5843V152.044L103.365 5.78809H64.4188Z" fill="white"/>
<path d="M122.283 46.8789H8.86792V50.9668H122.283V46.8789Z" fill="#E0E0E0"/>
<path d="M371.961 304.109C371.961 304.225 286.136 304.32 180.295 304.32C74.4537 304.32 -11.3919 304.225 -11.3919 304.109C-11.3919 303.993 74.4114 303.897 180.295 303.897C286.179 303.897 371.961 303.993 371.961 304.109Z" fill="#263238"/>
<path d="M311.72 272.515L317.234 314.355L339.311 314.334L342.828 272.515H311.72Z" fill="#455A64"/>
<path d="M317.192 314.387V314.355L311.667 272.473H342.86V272.515L339.332 314.376H339.3C335.043 316.975 320.096 316.975 317.192 314.387Z" fill="#D7B06F"/>
<path d="M344.92 269.209H309.481V273.825H344.92V269.209Z" fill="#E0E0E0"/>
<path d="M312.671 270.127C312.745 269.905 314.509 265.796 314.509 265.796L339.226 262.49L341.867 270.117H312.671V270.127Z" fill="#E0E0E0"/>
<path d="M344.93 269.208C344.93 269.356 337.082 269.472 327.406 269.472C317.73 269.472 309.882 269.356 309.882 269.208C309.882 269.061 317.73 268.944 327.406 268.944C337.082 268.944 344.93 269.061 344.93 269.208Z" fill="#263238"/>
<path d="M313.885 298.743L311.72 283.353C321.808 285.476 332.181 285.571 342.87 283.353L341.877 298.743C332.846 300.655 323.498 300.581 313.885 298.743Z" fill="#3B6738"/>
<path d="M265.137 129.913C265.179 130.008 263.975 130.653 261.968 131.72C259.961 132.776 257.247 134.392 254.12 136.241L253.645 136.515L253.507 135.977C253.264 135.036 253.021 134.065 252.768 133.072C252.567 132.248 252.356 131.445 252.166 130.674L252.81 130.917C249.8 133.103 247.275 135.269 245.363 136.684C243.472 138.131 242.237 138.881 242.173 138.786C242.11 138.702 243.229 137.804 245.015 136.251C246.831 134.72 249.261 132.491 252.324 130.23L252.821 129.871L252.979 130.473C253.18 131.244 253.381 132.047 253.592 132.871C253.845 133.864 254.088 134.836 254.321 135.776L253.708 135.522C256.845 133.716 259.644 132.163 261.736 131.244C263.817 130.304 265.105 129.829 265.148 129.924L265.137 129.913Z" fill="#263238"/>
<path d="M263.88 150.206C263.88 150.311 262.591 150.449 260.458 150.533C258.324 150.618 255.345 150.67 251.976 150.512L251.426 150.491L251.606 149.963C251.807 149.371 252.018 148.748 252.229 148.114C252.631 146.963 253.021 145.843 253.381 144.787L253.782 145.326C250.814 145.41 248.226 145.452 246.398 145.452C244.56 145.452 243.472 145.399 243.462 145.304C243.462 145.209 244.55 145.072 246.377 144.935C248.205 144.797 250.782 144.649 253.75 144.512L254.342 144.48L254.152 145.051C253.792 146.107 253.412 147.227 253.021 148.389C252.8 149.023 252.588 149.635 252.388 150.227L252.018 149.667C255.356 149.846 258.324 149.899 260.458 149.973C262.581 150.037 263.88 150.089 263.88 150.206Z" fill="#263238"/>
<path d="M246.377 124.58C246.546 124.738 244.655 127.073 242.152 129.798C239.649 132.523 237.473 134.604 237.304 134.446C237.135 134.287 239.025 131.953 241.529 129.227C244.032 126.502 246.208 124.421 246.377 124.58Z" fill="#263238"/>
<path d="M-4.04004 329.714C-4.01891 329.049 -3.58583 328.478 -2.95205 328.277L60.1936 308.535L131.082 308.958C131.959 308.958 132.666 309.655 132.698 310.532C132.719 311.176 132.36 311.757 131.779 312.042L78.6472 337.71L-2.60347 331.298C-3.42738 331.235 -4.06117 330.538 -4.02948 329.703L-4.04004 329.714Z" fill="#3B6738"/>
<path d="M-4.40971 327.558L-4.63153 321.791L58.6092 297.729L132.55 301.51L132.698 306.728L78.3198 334.086L-4.40971 327.558Z" fill="#E0E0E0"/>
<path opacity="0.3" d="M-4.63153 321.791L78.6155 326.977L78.3198 334.086L-4.40971 327.558L-4.63153 321.791Z" fill="black"/>
<path opacity="0.2" d="M78.6156 326.977L132.55 301.51L132.698 306.728L78.3198 334.086L78.6156 326.977Z" fill="black"/>
<path d="M78.3198 334.224C78.2036 334.224 78.0663 332.608 78.1824 330.611C78.2986 328.615 78.6155 327.02 78.7317 327.03C78.8479 327.051 78.7212 328.657 78.605 330.632C78.4888 332.608 78.436 334.224 78.3198 334.224Z" fill="#263238"/>
<path d="M-4.47308 325.815C-4.47308 325.815 -4.34632 325.815 -4.10337 325.815C-3.8393 325.825 -3.48015 325.847 -3.01538 325.878C-2.04358 325.942 -0.638703 326.026 1.15701 326.142C4.80125 326.396 10.0405 326.755 16.5051 327.209C29.4764 328.149 47.3702 329.449 67.123 330.885C70.8729 331.16 74.5594 331.434 78.0769 331.698L77.9712 331.72C93.3404 323.903 107.062 317.354 116.822 312.548C121.692 310.15 125.6 308.217 128.315 306.886C129.645 306.231 130.691 305.713 131.41 305.354C131.748 305.185 132.022 305.059 132.212 304.963C132.392 304.879 132.487 304.837 132.497 304.847C132.508 304.858 132.413 304.911 132.233 305.006C132.043 305.111 131.779 305.249 131.441 305.428C130.723 305.798 129.698 306.337 128.378 307.023C125.705 308.396 121.808 310.372 116.938 312.801C107.199 317.681 93.5094 324.273 78.1508 332.1L78.098 332.132H78.0346C74.5171 331.867 70.8306 331.593 67.0808 331.318C47.3279 329.839 29.4448 328.498 16.4734 327.526C10.0088 327.019 4.78012 326.607 1.13588 326.322C-0.659829 326.174 -2.05415 326.058 -3.03651 325.973C-3.50128 325.931 -3.86042 325.899 -4.1245 325.868C-4.36745 325.847 -4.4942 325.815 -4.4942 325.815H-4.47308Z" fill="#263238"/>
<path d="M-4.47308 323.755C-4.47308 323.755 -4.34633 323.755 -4.10338 323.755C-3.8393 323.766 -3.48016 323.787 -3.01539 323.808C-2.04359 323.861 -0.638711 323.935 1.157 324.04C4.80124 324.262 10.0299 324.569 16.4839 324.959C29.4447 325.773 47.3068 326.903 67.0385 328.139C70.9679 328.392 74.8234 328.635 78.4994 328.878L78.3937 328.899C93.6361 321.199 107.273 314.851 116.97 310.15C121.797 307.805 125.674 305.914 128.367 304.604C129.688 303.96 130.712 303.453 131.431 303.105C131.769 302.946 132.033 302.819 132.233 302.724C132.413 302.64 132.508 302.597 132.508 302.608C132.508 302.608 132.424 302.661 132.244 302.756C132.054 302.862 131.79 302.999 131.462 303.168C130.755 303.538 129.741 304.055 128.431 304.731C125.779 306.083 121.924 308.016 117.086 310.393C107.431 315.167 93.8157 321.558 78.5839 329.269L78.531 329.29H78.4782C74.7917 329.047 70.9362 328.804 67.0174 328.551C47.2857 327.262 29.4236 326.09 16.4734 325.245C10.0194 324.801 4.79068 324.442 1.157 324.199C-0.638711 324.062 -2.03303 323.966 -3.00483 323.892C-3.4696 323.85 -3.82874 323.829 -4.08225 323.797C-4.3252 323.776 -4.45196 323.755 -4.45196 323.755H-4.47308Z" fill="#263238"/>
<path d="M275.901 188.581C269.753 182.666 262.908 176.814 258.155 174.617C251.532 171.459 239.744 169.177 239.744 169.177C230.469 166.779 221.343 164.635 221.343 164.635L214.847 155.889C214.847 155.889 201.168 156.734 186.633 158.519L176.788 168.237C176.788 168.237 149.05 173.011 138.835 178.398C132.392 181.525 127.892 187.303 122.589 203.232C119.589 212.263 108.234 249.614 104.421 254.019C96.8262 262.807 79.3549 279.846 87.4885 284.145C87.4885 284.145 102.266 297.296 109.46 297.095C116.663 296.884 127.596 281.187 130.976 277.374C133.1 274.965 139.068 259.1 143.187 247.681C143.874 267.191 144.993 300.908 144.729 303.887L251.416 303.655C251.416 295.246 251.194 234.625 251.194 234.625L250.94 215.876C255.461 223.27 261.007 231.731 264.831 235.439C272.309 242.706 287.161 247.745 294.64 246.033C302.118 244.322 304.949 236.41 305.002 225.7C305.044 217.228 289.326 200.612 275.911 188.581H275.901Z" fill="#D9EDB7"/>
<path d="M229.107 177.786C229.107 177.786 229.043 177.944 228.895 178.229C228.716 178.557 228.494 178.958 228.219 179.465C227.586 180.574 226.72 182.106 225.653 183.976C224.544 185.888 223.244 188.137 221.797 190.641C221.068 191.898 220.297 193.208 219.505 194.57C219.294 194.908 219.135 195.257 218.85 195.616C218.702 195.785 218.48 195.944 218.227 195.986C217.963 196.028 217.709 195.954 217.509 195.848C217.097 195.616 216.822 195.278 216.558 194.972C216.283 194.655 216.009 194.338 215.734 194.021C213.062 190.831 211.097 187.409 209.776 184.314L210.083 184.377C207.336 186.997 205.023 189.204 203.354 190.799C202.562 191.539 201.918 192.141 201.442 192.585C200.999 192.996 200.745 193.208 200.735 193.187C200.724 193.176 200.935 192.933 201.358 192.5C201.822 192.035 202.435 191.412 203.206 190.641C204.854 189.014 207.125 186.775 209.829 184.102L210.019 183.912L210.125 184.166C211.456 187.218 213.421 190.599 216.061 193.746C216.336 194.063 216.6 194.37 216.875 194.687C217.149 194.993 217.403 195.299 217.72 195.468C218.026 195.648 218.322 195.595 218.554 195.331C218.776 195.067 218.966 194.687 219.167 194.359C219.97 193.007 220.741 191.697 221.48 190.44C222.959 187.958 224.29 185.719 225.42 183.828C226.529 181.99 227.438 180.479 228.103 179.381C228.41 178.895 228.653 178.493 228.853 178.187C229.033 177.912 229.128 177.775 229.138 177.786H229.107Z" fill="#263238"/>
<path d="M250.719 194.116C250.719 194.116 250.793 194.56 250.856 195.384C250.909 196.197 250.983 197.38 251.046 198.838C251.183 201.753 251.321 205.788 251.384 210.235C251.448 214.693 251.416 218.728 251.31 221.643C251.247 223.101 251.194 224.284 251.131 225.098C251.067 225.911 251.025 226.365 250.993 226.355C250.962 226.355 250.962 225.9 250.972 225.087C250.983 224.2 251.004 223.038 251.014 221.633C251.036 218.717 251.025 214.682 250.962 210.235C250.877 205.82 250.803 201.827 250.75 198.838C250.729 197.433 250.708 196.271 250.698 195.384C250.698 194.57 250.698 194.116 250.729 194.116H250.719Z" fill="#263238"/>
<path d="M143.62 262.501C143.62 262.501 143.578 262.301 143.546 261.921C143.515 261.498 143.462 260.938 143.409 260.241C143.293 258.783 143.166 256.681 143.029 254.072C142.754 248.865 142.564 241.65 142.469 233.696C142.374 225.732 142.289 218.528 142.046 213.32C141.92 210.722 141.772 208.609 141.645 207.162C141.582 206.465 141.539 205.915 141.497 205.493C141.465 205.113 141.465 204.912 141.476 204.901C141.487 204.901 141.529 205.102 141.582 205.482C141.634 205.905 141.708 206.454 141.803 207.151C141.972 208.598 142.173 210.7 142.332 213.31C142.648 218.517 142.786 225.732 142.881 233.696C142.976 241.65 143.124 248.854 143.314 254.072C143.42 256.639 143.504 258.741 143.557 260.241C143.578 260.938 143.599 261.498 143.61 261.921C143.61 262.301 143.61 262.512 143.61 262.512L143.62 262.501Z" fill="#263238"/>
<path d="M285.08 212.949C285.08 212.949 285.038 213.065 284.911 213.245C284.784 213.425 284.615 213.71 284.351 214.048C283.844 214.734 283.042 215.685 281.943 216.741C279.767 218.865 276.186 221.357 271.655 222.614C267.123 223.882 262.771 223.607 259.803 222.921C258.313 222.583 257.141 222.181 256.349 221.864C255.947 221.717 255.652 221.558 255.451 221.474C255.25 221.378 255.145 221.315 255.155 221.305C255.166 221.273 255.609 221.442 256.412 221.717C257.215 221.991 258.387 222.34 259.866 222.635C262.813 223.238 267.091 223.459 271.538 222.224C275.985 220.988 279.535 218.579 281.742 216.541C282.862 215.516 283.686 214.608 284.225 213.963C284.774 213.319 285.059 212.939 285.091 212.96L285.08 212.949Z" fill="#263238"/>
<path d="M281.943 227.021C281.88 226.968 282.851 225.933 284.129 224.042C284.774 223.102 285.46 221.929 286.126 220.588C286.77 219.236 287.404 217.704 287.9 216.046C288.386 214.377 288.693 212.75 288.893 211.261C289.062 209.771 289.126 208.409 289.094 207.278C289.052 205.007 288.798 203.602 288.883 203.592C288.914 203.592 288.988 203.93 289.105 204.564C289.168 204.88 289.231 205.271 289.274 205.726C289.316 206.18 289.39 206.697 289.4 207.268C289.464 208.419 289.432 209.792 289.284 211.303C289.105 212.813 288.809 214.472 288.312 216.162C287.805 217.841 287.161 219.394 286.485 220.757C285.788 222.109 285.07 223.281 284.383 224.211C284.066 224.686 283.717 225.088 283.432 225.436C283.147 225.795 282.883 226.091 282.661 226.313C282.218 226.778 281.964 227.031 281.943 227.01V227.021Z" fill="#263238"/>
<path d="M122.389 270.878C122.389 270.878 121.522 270.255 120.192 269.199C118.85 268.142 116.991 266.695 114.868 265.185C112.745 263.664 110.78 262.364 109.354 261.424C107.928 260.495 107.03 259.914 107.062 259.861C107.072 259.84 107.315 259.946 107.738 260.167C108.16 260.389 108.762 260.727 109.502 261.171C110.981 262.037 112.977 263.315 115.1 264.836C117.223 266.357 119.072 267.847 120.371 268.966C121.015 269.526 121.533 269.991 121.871 270.329C122.22 270.667 122.399 270.857 122.378 270.878H122.389Z" fill="#263238"/>
<path d="M126.392 270.022C126.318 270.106 122.579 266.811 118.047 262.659C113.516 258.508 109.914 255.065 109.988 254.98C110.062 254.896 113.801 258.191 118.332 262.343C122.864 266.494 126.466 269.937 126.392 270.022Z" fill="#263238"/>
<path d="M197.618 193.598C197.618 193.598 197.397 193.408 197.027 193.006C196.657 192.605 196.118 192.013 195.464 191.232C194.154 189.668 192.369 187.334 190.541 184.292H190.848C189.01 187.408 186.601 190.989 183.654 194.58L183.369 194.918L183.274 194.485C183.179 194.031 183.084 193.545 182.978 193.059C182.196 189.616 181.098 186.415 180.126 183.5C179.144 180.584 178.288 177.944 177.728 175.683C177.168 173.423 176.862 171.553 176.788 170.243C176.714 169.599 176.746 169.081 176.735 168.743C176.735 168.405 176.735 168.226 176.756 168.226C176.799 168.226 176.809 168.944 176.947 170.233C177.063 171.521 177.422 173.37 178.013 175.609C178.605 177.848 179.482 180.468 180.485 183.373C181.478 186.278 182.598 189.478 183.379 192.964C183.485 193.461 183.58 193.947 183.675 194.411L183.306 194.316C186.242 190.746 188.661 187.197 190.52 184.112L190.678 183.859L190.826 184.112C192.612 187.144 194.344 189.499 195.601 191.105C196.235 191.908 196.742 192.521 197.08 192.943C197.428 193.366 197.608 193.587 197.597 193.598H197.618Z" fill="#263238"/>
<path d="M197.967 302.778C197.851 302.778 197.756 280.067 197.756 252.065C197.756 224.062 197.851 201.352 197.967 201.352C198.083 201.352 198.178 224.051 198.178 252.065C198.178 280.078 198.083 302.778 197.967 302.778Z" fill="#263238"/>
<path opacity="0.3" d="M139.205 258.434C139.089 257.98 137.261 228.044 142.49 221.379L142.965 248.251L139.205 258.434Z" fill="black"/>
<path opacity="0.3" d="M183.496 194.454C183.496 194.454 184.827 198.024 185.26 197.581C185.703 197.137 190.541 189.997 190.541 189.997L196.361 192.162L190.7 184.208L183.496 194.454Z" fill="black"/>
<path opacity="0.3" d="M201.537 192.383C201.738 192.193 209.724 189.024 209.724 189.024C209.724 189.024 213.526 198.7 214.91 197.623C216.294 196.545 216.949 195.119 216.949 195.119C216.949 195.119 209.903 186.183 209.935 184.239L201.548 192.383H201.537Z" fill="black"/>
<path d="M289.569 201.986C289.474 202.091 287.457 199.915 284.256 198.268C281.077 196.588 278.14 196.166 278.172 196.028C278.172 195.975 278.922 196.028 280.084 196.282C281.246 196.535 282.83 197.053 284.457 197.898C286.073 198.743 287.404 199.757 288.281 200.56C289.157 201.373 289.612 201.954 289.58 201.986H289.569Z" fill="#263238"/>
<path d="M160.447 106.772C156.887 108.051 152.546 106.582 150.56 103.435C149.958 102.484 149.557 101.375 149.694 100.255C149.831 99.146 150.602 98.058 151.701 97.7833C150 97.0967 148.553 95.7658 147.909 94.0651C147.265 92.3751 147.508 90.3364 148.68 88.9315C149.852 87.5266 151.955 86.8929 153.655 87.5795C153.222 85.6781 154.014 83.5444 155.609 82.3613L163.922 82.4986L160.458 106.783L160.447 106.772Z" fill="#263238"/>
<path d="M185.967 168.903L184.658 162.861C184.658 162.861 167.503 163.664 164.017 147.365C162.327 139.485 160.204 122.986 158.451 108.029C156.571 91.9414 167.567 77.0475 183.728 73.7941L185.334 73.4667C202.847 70.9738 214.667 84.1987 216.59 101.48L220.487 156.957L199.139 192.617L185.978 168.903H185.967Z" fill="#FFBF9D"/>
<path d="M184.658 162.873C184.658 162.873 195.316 161.626 205.446 153.979C205.446 153.979 202.446 165.165 185.555 167.034L184.668 162.873H184.658Z" fill="#FF9A6C"/>
<path d="M183.316 131.215C183.295 131.067 181.658 131.119 179.017 131.31C178.352 131.373 177.707 131.373 177.506 130.961C177.264 130.528 177.39 129.778 177.559 128.975C177.866 127.296 178.172 125.542 178.51 123.704C179.799 116.205 180.58 110.099 180.274 110.057C179.968 110.015 178.679 116.046 177.39 123.546C177.095 125.394 176.799 127.148 176.524 128.838C176.429 129.62 176.165 130.528 176.693 131.426C176.968 131.869 177.517 132.123 177.95 132.144C178.394 132.186 178.763 132.123 179.091 132.07C181.711 131.69 183.316 131.373 183.306 131.225L183.316 131.215Z" fill="#263238"/>
<path d="M188.872 118.92C189.231 119.163 190.742 117.462 193.298 116.913C195.833 116.332 197.988 117.209 198.199 116.85C198.305 116.68 197.893 116.205 196.942 115.793C196.013 115.392 194.523 115.117 192.939 115.476C191.355 115.825 190.14 116.691 189.506 117.452C188.851 118.212 188.703 118.825 188.883 118.92H188.872Z" fill="#263238"/>
<path d="M198.168 108.672C197.967 107.954 195.347 108.081 192.316 107.489C189.284 106.951 186.886 105.884 186.432 106.475C186.232 106.761 186.612 107.447 187.552 108.197C188.492 108.947 190.013 109.708 191.83 110.046C193.647 110.384 195.347 110.225 196.488 109.866C197.64 109.507 198.242 109.01 198.157 108.672H198.168Z" fill="#263238"/>
<path d="M169.764 123.261C169.964 124.507 171.2 125.352 172.531 125.152C173.852 124.961 174.76 123.799 174.559 122.553C174.359 121.307 173.123 120.462 171.802 120.652C170.482 120.842 169.574 122.014 169.774 123.25L169.764 123.261Z" fill="#263238"/>
<path d="M163.986 117.06C164.345 117.303 165.877 115.634 168.433 115.127C170.979 114.588 173.112 115.497 173.334 115.127C173.44 114.958 173.028 114.472 172.098 114.05C171.179 113.627 169.69 113.342 168.095 113.669C166.5 113.997 165.285 114.842 164.63 115.592C163.965 116.342 163.806 116.944 163.975 117.05L163.986 117.06Z" fill="#263238"/>
<path d="M163.553 108.695C164.049 109.287 166.035 108.738 168.422 108.769C170.809 108.727 172.816 109.276 173.292 108.674C173.503 108.389 173.197 107.797 172.331 107.216C171.475 106.646 170.028 106.16 168.391 106.16C166.753 106.16 165.317 106.657 164.482 107.227C163.627 107.808 163.331 108.4 163.553 108.685V108.695Z" fill="#263238"/>
<path d="M217.107 117.927C216.706 115.382 218.512 112.942 221.121 112.667C224.28 112.329 228.082 113.364 229.149 119.712C231.029 130.962 218.28 131.279 218.206 130.962C218.153 130.74 217.857 122.649 217.118 117.927H217.107Z" fill="#FFBF9D"/>
<path d="M220.857 125.617C220.857 125.617 221.079 125.722 221.438 125.817C221.787 125.912 222.378 125.912 222.938 125.596C224.079 124.951 224.776 122.891 224.491 120.863C224.353 119.839 223.963 118.899 223.466 118.149C222.98 117.388 222.346 116.902 221.713 116.902C221.079 116.87 220.709 117.293 220.625 117.642C220.519 117.98 220.625 118.191 220.572 118.223C220.54 118.254 220.297 118.075 220.308 117.599C220.308 117.367 220.403 117.082 220.635 116.818C220.878 116.554 221.258 116.374 221.692 116.342C222.589 116.258 223.508 116.913 224.068 117.737C224.67 118.55 225.124 119.596 225.283 120.758C225.589 123.039 224.765 125.363 223.191 126.103C222.42 126.441 221.713 126.324 221.322 126.113C220.92 125.891 220.815 125.648 220.857 125.627V125.617Z" fill="#FF9A6C"/>
<path d="M173.693 95.0154C173.693 95.0154 173.64 95.0366 173.619 95.0366C173.556 95.0577 173.482 95.0683 173.419 95.0894L173.704 95.0049L173.693 95.0154Z" fill="#FF725E"/>
<path d="M225.874 95.4167C225.473 94.4661 224.628 93.7372 223.656 93.3675C224.079 92.6809 224.364 91.9098 224.438 91.107C224.649 88.8571 223.234 86.5544 221.121 85.6882C222.737 83.4383 222.98 80.3011 221.723 77.861C220.466 75.4104 217.773 73.752 214.984 73.7098C214.477 70.319 212.016 67.2874 208.773 66.041C205.53 64.8051 201.611 65.4072 198.886 67.5621C195.506 62.6925 187.584 61.7524 183.063 65.6819C179.218 64.0024 175.119 62.27 170.936 62.8615C166.753 63.4425 162.739 67.3508 163.743 71.3753C160.637 71.1852 157.416 71.4387 154.595 72.7696C151.775 74.1006 149.43 76.6568 148.976 79.699C148.522 82.7411 150.37 86.1002 153.381 86.8818C151.321 90.019 152.166 94.6456 155.197 96.8533C156.074 97.4977 157.099 97.8991 158.166 98.0786C158.25 98.7863 158.377 99.4941 158.556 100.212C158.556 100.212 158.725 99.4201 159.053 98.1948C161.419 98.3427 163.88 97.466 165.433 95.6808C167.957 97.4871 171.57 97.6878 174.306 96.1773C177.042 94.6668 178.763 91.5296 178.542 88.4557C180.475 89.6599 183.031 89.8289 185.133 88.9099C187.235 87.9909 188.819 85.9945 189.221 83.7657C192.21 86.0051 196.615 86.2269 199.858 84.3045C200.354 86.4699 201.875 88.2656 203.819 89.3641C204.051 91.2549 204.178 93.4415 204.844 96.04C212.375 125.12 219.516 132.334 218.29 118.169C218.163 116.659 221.966 114.652 221.575 108.525C222.199 108.293 222.78 107.987 223.308 107.596C224.417 106.751 225.241 105.494 225.378 104.121C225.505 102.747 224.882 101.3 223.688 100.582C225.642 99.811 226.709 97.3498 225.906 95.4379L225.874 95.4167Z" fill="#263238"/>
<path d="M203.713 88.7825C203.713 88.7825 203.777 90.2296 203.977 91.1063C203.988 91.2542 204.009 91.3915 204.03 91.5394C204.685 92.807 205.879 93.7999 207.273 94.1802C208.784 94.6027 210.495 94.2964 211.783 93.3879C212.65 95.2153 214.9 96.0709 216.949 95.9336C218.998 95.8069 220.899 94.8879 222.748 93.99C223.107 93.821 223.456 93.6309 223.804 93.4302C223.762 93.4091 223.72 93.3879 223.677 93.3668C224.1 92.6802 224.385 91.9091 224.459 91.1063C224.67 88.8564 223.255 86.5537 221.142 85.6875C221.142 85.6875 219.072 88.4867 216.378 88.2649C213.685 88.043 211.055 86.0572 211.055 86.0572C211.055 86.0572 210.442 88.0431 208.372 88.7085C206.301 89.3634 203.745 88.7719 203.745 88.7719L203.713 88.7825Z" fill="#263238"/>
<path d="M200.724 86.079C200.724 86.079 200.766 86.4381 201.094 86.9663C201.421 87.4944 202.044 88.2233 203.058 88.8042C204.062 89.3852 205.541 89.7972 207.136 89.4486C208.71 89.1317 210.379 88.0965 211.319 86.4064L210.653 86.5015C211.361 87.2198 212.248 87.8008 213.252 88.1705C215.385 88.9521 217.741 88.7197 219.452 87.7268C221.206 86.7445 222.177 85.1494 222.621 83.7868C223.075 82.4031 223.001 81.1989 222.853 80.4278C222.684 79.6461 222.452 79.2658 222.41 79.287C222.241 79.287 223.012 81.0299 222.061 83.5967C221.586 84.8325 220.635 86.2374 219.082 87.0613C217.551 87.8958 215.449 88.086 213.547 87.3888C212.66 87.0613 211.868 86.5543 211.255 85.9417L210.854 85.5403L210.59 86.0262C209.808 87.4839 208.361 88.424 206.977 88.7514C205.583 89.1 204.263 88.7937 203.312 88.3289C201.358 87.3465 200.83 85.9734 200.713 86.0579L200.724 86.079Z" fill="#FAFAFA"/>
<g opacity="0.2">
<path d="M211.467 142.031C208.857 145.813 207.653 150.482 208.857 154.792C210.062 159.101 213.885 162.893 218.744 163.834L218.882 136.634C215.681 137.278 213.178 139.539 211.456 142.031H211.467Z" fill="#FF725E"/>
</g>
<g opacity="0.2">
<path d="M214.033 144.059C212.322 146.531 211.54 149.594 212.322 152.414C213.104 155.235 215.618 157.717 218.797 158.33L218.892 140.521C216.801 140.943 215.153 142.422 214.033 144.059Z" fill="#FF725E"/>
</g>
<path d="M195.305 134.616C195.305 134.87 193.171 134.901 190.9 136.042C188.608 137.141 187.277 138.81 187.077 138.651C186.992 138.588 187.203 138.081 187.774 137.394C188.344 136.708 189.295 135.884 190.52 135.282C191.745 134.68 192.981 134.426 193.869 134.405C194.756 134.373 195.295 134.511 195.295 134.616H195.305Z" fill="#263238"/>
<path d="M183.718 103.486C183.76 103.602 183.559 103.761 183.348 104.046C183.137 104.321 182.915 104.754 182.915 105.218C182.915 105.683 183.126 106.116 183.337 106.401C183.538 106.687 183.739 106.845 183.696 106.961C183.665 107.067 183.348 107.099 182.936 106.845C182.534 106.602 182.059 106.011 182.059 105.208C182.059 104.416 182.545 103.824 182.946 103.581C183.358 103.328 183.675 103.37 183.707 103.476L183.718 103.486Z" fill="#FF9A6C"/>
<path d="M241.909 200.591C241.909 200.591 241.803 200.465 241.613 200.211C241.413 199.937 241.138 199.556 240.779 199.07C240.42 198.563 239.965 197.94 239.406 197.232C238.856 196.514 238.223 195.68 237.473 194.771C235.994 192.944 234.114 190.768 231.769 188.402C229.413 186.067 226.624 183.448 223.16 181.156L223.223 181.177C221.808 180.997 220.35 180.543 219.072 179.687C217.804 178.811 216.79 177.522 216.209 176.011C215.607 174.511 215.364 172.853 215.343 171.184C215.333 169.505 215.512 167.793 215.914 166.082L215.935 166.219C214.783 164.065 213.928 161.603 213.864 158.984C213.759 156.375 214.392 153.723 215.407 151.22C215.892 149.963 216.516 148.727 217.054 147.491C217.551 146.245 217.825 144.882 218.047 143.52C218.47 140.773 218.67 137.932 218.734 135.059V134.826L218.966 134.847C220.329 134.985 221.808 135.449 222.991 136.389C224.248 137.425 225.051 138.946 225.209 140.562L225.051 140.361C226.498 140.752 227.617 141.787 228.42 142.928C229.233 144.079 229.825 145.347 230.258 146.667L229.962 146.541C230.332 146.435 230.512 146.583 230.723 146.667C230.924 146.773 231.082 146.91 231.24 147.048C231.547 147.333 231.811 147.639 232.054 147.967C232.54 148.611 232.962 149.287 233.311 150.005C233.997 151.452 234.346 153.037 234.188 154.621V154.6C234.114 157.241 234.04 159.829 233.976 162.343L233.902 162.184C246.092 171.554 256.497 179.539 263.87 185.212C267.524 188.043 270.429 190.293 272.436 191.835C273.419 192.606 274.179 193.197 274.707 193.609C274.95 193.81 275.14 193.958 275.288 194.074C275.415 194.18 275.478 194.233 275.478 194.243C275.478 194.243 275.404 194.201 275.267 194.106C275.119 194 274.918 193.852 274.665 193.673C274.126 193.271 273.355 192.69 272.362 191.951C270.345 190.419 267.408 188.201 263.722 185.412C256.328 179.782 245.891 171.828 233.67 162.512L233.585 162.448V162.343C233.649 159.829 233.723 157.251 233.786 154.6V154.568C233.934 153.121 233.596 151.558 232.941 150.195C232.614 149.509 232.191 148.843 231.726 148.231C231.494 147.924 231.24 147.629 230.966 147.375C230.828 147.248 230.681 147.132 230.522 147.048C230.385 146.963 230.163 146.921 230.142 146.931L229.931 147.037L229.857 146.805C229.445 145.548 228.864 144.301 228.082 143.203C227.311 142.104 226.255 141.153 224.955 140.805L224.808 140.763V140.604C224.66 139.146 223.899 137.689 222.737 136.738C221.639 135.861 220.244 135.407 218.935 135.28L219.167 135.069C219.104 137.963 218.913 140.805 218.48 143.593C218.248 144.977 217.973 146.361 217.456 147.66C216.896 148.938 216.294 150.132 215.808 151.389C214.804 153.861 214.181 156.449 214.276 158.994C214.34 161.54 215.164 163.938 216.283 166.061L216.315 166.124L216.294 166.198C215.892 167.857 215.713 169.557 215.713 171.195C215.723 172.832 215.966 174.448 216.537 175.895C217.086 177.353 218.058 178.589 219.262 179.423C220.487 180.247 221.882 180.691 223.265 180.87H223.297L223.318 180.891C226.825 183.236 229.582 185.867 231.938 188.233C234.272 190.62 236.142 192.817 237.599 194.666C240.525 198.363 241.909 200.591 241.909 200.591Z" fill="#FF9A6C"/>
<path d="M218.935 135.069C218.935 135.069 218.839 144.312 217.044 148.03C214.593 153.122 212.174 158.963 216.083 166.146C216.083 166.146 212.491 179.614 223.223 181.029C223.223 181.029 232.233 186.522 241.909 200.592C251.585 214.662 254.067 216.468 254.775 217.028C264.44 224.686 283.306 201.014 277.485 195.807L233.765 162.354L233.976 154.611C233.976 154.611 234.378 152.055 232.624 149.203C230.871 146.34 230.036 146.741 230.036 146.741C230.036 146.741 228.494 141.471 224.977 140.583C224.977 140.583 224.765 135.693 218.924 135.069H218.935Z" fill="#FFBF9D"/>
<path d="M224.48 146.393C224.364 146.362 224.681 144.978 224.797 143.245C224.924 141.513 224.797 140.098 224.924 140.087C225.029 140.066 225.357 141.492 225.219 143.277C225.093 145.062 224.575 146.425 224.47 146.393H224.48Z" fill="#FF9A6C"/>
<path d="M228.895 152.256C228.779 152.214 229.191 150.925 229.487 149.298C229.793 147.672 229.867 146.33 229.994 146.33C230.1 146.33 230.226 147.714 229.91 149.383C229.603 151.052 229.001 152.309 228.895 152.266V152.256Z" fill="#FF9A6C"/>
<path d="M227.987 158.973C228.05 158.878 229.614 159.702 231.473 160.811C233.332 161.92 234.8 162.913 234.737 163.008C234.684 163.114 233.121 162.29 231.251 161.17C229.381 160.051 227.924 159.068 227.987 158.973Z" fill="#FF9A6C"/>
<path d="M89.8863 278.832L76.0381 294.803L91.3756 304.838L105.002 294.317C105.002 294.317 109.544 278.832 89.8863 278.832Z" fill="#FFBF9D"/>
<path d="M52.6622 318.095C52.6622 318.095 50.951 317.134 49.9581 315.401C48.9652 313.669 54.8065 305.662 55.6093 305.007C56.4121 304.352 63.9752 296.092 66.6371 294.708C70.4926 292.701 72.7214 292.258 75.3938 291.244C78.0663 290.23 82.1858 288.614 87.4673 291.244C92.7171 293.863 98.9176 297.867 97.9775 303.951C97.4071 307.669 94.7875 315.708 92.4531 317.567C89.4532 319.965 85.7773 318.116 85.5766 315.296C85.3759 312.486 88.0272 308.852 86.6329 306.866C85.0062 304.553 78.9852 302.863 77.0311 304.405C75.0769 305.937 74.929 320.313 73.5981 322.405C72.415 324.274 70.8517 325.563 68.7814 322.922C66.711 320.281 66.9645 306.222 66.9645 306.222C66.9645 306.222 65.8026 312.021 65.0209 317.039C64.5773 319.933 64.947 322.817 63.9752 323.524C61.3344 325.468 59.8979 324.697 58.2184 322.077C58.2184 322.077 57.3205 323.133 54.4262 322.077C53.0636 321.581 52.6517 318.095 52.6517 318.095H52.6622Z" fill="#FFBF9D"/>
<path d="M66.8484 309.264C66.7322 309.264 66.8061 306.898 67.2181 304.024C67.63 301.151 68.2215 298.87 68.3272 298.891C68.4434 298.912 68.042 301.225 67.63 304.088C67.2181 306.95 66.9645 309.274 66.8484 309.264Z" fill="#FF9A6C"/>
<path d="M86.6435 310.807C86.5167 310.765 87.3406 308.726 87.4674 306.075C87.6258 303.423 87.0449 301.311 87.1716 301.279C87.2667 301.237 88.0589 303.36 87.8899 306.096C87.7526 308.842 86.728 310.86 86.6435 310.807Z" fill="#FF9A6C"/>
<path d="M76.7142 292.786C76.7037 292.913 75.2248 292.67 73.5559 293.251C71.8764 293.811 70.8623 294.899 70.7672 294.804C70.6722 294.761 71.6123 293.452 73.4186 292.849C75.2143 292.226 76.767 292.691 76.7142 292.786Z" fill="#FF9A6C"/>
<path d="M58.229 322.066C58.229 322.066 58.1128 321.823 57.986 321.38C57.8487 320.925 57.7008 320.26 57.5529 319.436C57.2572 317.778 57.0565 315.443 57.2572 312.876C57.4579 310.309 58.0283 308.028 58.5775 306.443C58.8522 305.651 59.1057 305.017 59.3064 304.595C59.5071 304.172 59.6233 303.94 59.655 303.951C59.7184 303.982 59.3275 304.943 58.8628 306.538C58.3874 308.134 57.8804 310.383 57.6797 312.919C57.4896 315.454 57.6374 317.746 57.8487 319.404C58.06 321.052 58.3029 322.066 58.229 322.087V322.066Z" fill="#FF9A6C"/>
<path d="M53.6551 307.574C53.7925 307.606 53.127 310.057 52.7573 313.131C52.3665 316.215 52.7678 318.718 52.6517 318.739C52.5988 318.739 52.4298 318.137 52.3031 317.113C52.1869 316.088 52.1552 314.652 52.3348 313.088C52.5143 311.525 52.8418 310.141 53.1059 309.148C53.3805 308.155 53.6023 307.564 53.6551 307.574Z" fill="#FF9A6C"/>
<path d="M92.5059 292.11C92.5059 292.11 93.1186 292.438 93.9319 293.198C94.7453 293.959 95.7594 295.142 96.5938 296.621C97.4283 298.11 97.9142 299.589 98.136 300.677C98.3579 301.765 98.3684 302.462 98.3156 302.462C98.1783 302.494 97.8825 299.737 96.2241 296.821C94.608 293.895 92.4003 292.205 92.5059 292.1V292.11Z" fill="#FF9A6C"/>
<path d="M104.601 294.835C104.495 294.804 105.435 293.409 105.488 290.853C105.498 289.596 105.266 288.075 104.59 286.554C103.925 285.033 102.763 283.543 101.273 282.329C99.7733 281.125 98.0938 280.29 96.4882 279.804C94.8826 279.297 93.3721 279.096 92.1045 279.012C89.5589 278.864 87.9744 279.107 87.9744 279.022C87.9744 279.001 88.3652 278.906 89.0729 278.822C89.7912 278.737 90.8264 278.663 92.1257 278.706C93.4143 278.758 94.9565 278.938 96.6044 279.424C98.2522 279.91 99.9845 280.744 101.537 281.991C103.08 283.248 104.273 284.79 104.949 286.385C105.636 287.98 105.847 289.554 105.794 290.853C105.731 292.152 105.435 293.187 105.15 293.842C105.002 294.17 104.886 294.423 104.78 294.592C104.685 294.761 104.622 294.835 104.611 294.835H104.601Z" fill="#263238"/>
<path d="M244.349 310.499H147.148C146.557 310.499 146.293 311.249 146.757 311.608C151.627 315.411 167.503 327.833 170.809 330.442C171.2 330.748 171.412 330.917 171.412 330.917H277.316C278.552 330.59 246.736 311.83 244.592 310.562C244.518 310.52 244.434 310.499 244.339 310.499H244.349Z" fill="#202628"/>
<path d="M277.327 330.917H171.422L188.386 259.765C188.798 258.054 190.319 256.85 192.083 256.85H290.171C292.622 256.85 294.439 259.142 293.868 261.529L277.327 330.917Z" fill="#202628"/>
<path d="M172.352 329.397C172.352 329.397 171.971 329.196 171.338 328.784C170.704 328.362 169.795 327.739 168.686 326.936C166.468 325.341 163.489 323.049 160.215 320.471C156.951 317.894 153.993 315.559 151.828 313.912C150.793 313.119 149.926 312.464 149.261 311.957C148.659 311.493 148.321 311.229 148.342 311.207C148.363 311.186 148.722 311.408 149.356 311.82C149.99 312.243 150.898 312.866 152.007 313.669C154.226 315.264 157.204 317.556 160.479 320.133C163.743 322.711 166.7 325.045 168.866 326.693C169.901 327.485 170.767 328.14 171.433 328.647C172.035 329.112 172.373 329.376 172.352 329.397Z" fill="#263238"/>
<path d="M176.408 309.992C176.461 310.002 176.281 311.08 175.943 312.812C175.595 314.544 175.098 316.931 174.517 319.572C173.936 322.202 173.387 324.59 172.964 326.301C172.542 328.023 172.257 329.068 172.204 329.058C172.151 329.047 172.331 327.97 172.679 326.227C173.028 324.495 173.524 322.107 174.105 319.477C174.686 316.847 175.235 314.47 175.658 312.748C176.08 311.027 176.366 309.97 176.418 309.992H176.408Z" fill="#263238"/>
<path d="M190.573 261.487C190.573 261.487 190.552 261.73 190.467 262.195C190.383 262.66 190.245 263.336 190.066 264.212C189.696 265.966 189.136 268.49 188.418 271.607C186.992 277.839 184.964 286.437 182.693 295.923C180.411 305.408 178.32 313.996 176.778 320.196C176.006 323.27 175.373 325.763 174.929 327.538C174.707 328.372 174.528 329.038 174.401 329.523C174.274 329.978 174.2 330.21 174.19 330.21C174.179 330.21 174.221 329.967 174.316 329.502C174.433 329.006 174.58 328.34 174.771 327.495C175.183 325.71 175.774 323.207 176.492 320.122C177.982 313.869 180.031 305.292 182.291 295.817C184.573 286.352 186.633 277.775 188.133 271.533C188.872 268.459 189.474 265.945 189.907 264.17C190.108 263.325 190.267 262.66 190.393 262.174C190.509 261.72 190.573 261.477 190.583 261.477L190.573 261.487Z" fill="#263238"/>
<path opacity="0.3" d="M172.457 326.555C172.309 326.502 159.401 316.773 159.528 316.456C159.655 316.14 175.299 315.96 175.172 315.981C175.045 316.013 172.457 326.555 172.457 326.555Z" fill="black"/>
<path d="M231.378 298.172C232.413 300.411 235.497 301.182 238.254 299.904C241.011 298.626 242.405 295.763 241.37 293.535C240.335 291.295 237.251 290.524 234.494 291.802C231.737 293.08 230.343 295.943 231.378 298.172Z" fill="#E0E0E0"/>
</svg>
